<svg width="774" height="368" viewBox="0 0 774 368" fill="none" xmlns="http://www.w3.org/2000/svg">
<path d="M7.97159 3.27273V12H6.91477V4.38068H6.86364L4.73295 5.79545V4.72159L6.91477 3.27273H7.97159ZM13.3281 12.1193C12.6861 12.1193 12.1392 11.9446 11.6875 11.5952C11.2358 11.2429 10.8906 10.733 10.652 10.0653C10.4134 9.39489 10.294 8.58523 10.294 7.63636C10.294 6.69318 10.4134 5.88778 10.652 5.22017C10.8935 4.54972 11.2401 4.03835 11.6918 3.68608C12.1463 3.33097 12.6918 3.15341 13.3281 3.15341C13.9645 3.15341 14.5085 3.33097 14.9602 3.68608C15.4148 4.03835 15.7614 4.54972 16 5.22017C16.2415 5.88778 16.3622 6.69318 16.3622 7.63636C16.3622 8.58523 16.2429 9.39489 16.0043 10.0653C15.7656 10.733 15.4205 11.2429 14.9688 11.5952C14.517 11.9446 13.9702 12.1193 13.3281 12.1193ZM13.3281 11.1818C13.9645 11.1818 14.4588 10.875 14.8111 10.2614C15.1634 9.64773 15.3395 8.77273 15.3395 7.63636C15.3395 6.88068 15.2585 6.23722 15.0966 5.70597C14.9375 5.17472 14.7074 4.76989 14.4062 4.49148C14.108 4.21307 13.7486 4.07386 13.3281 4.07386C12.6974 4.07386 12.2045 4.38494 11.8494 5.0071C11.4943 5.62642 11.3168 6.50284 11.3168 7.63636C11.3168 8.39205 11.3963 9.03409 11.5554 9.5625C11.7145 10.0909 11.9432 10.4929 12.2415 10.7685C12.5426 11.044 12.9048 11.1818 13.3281 11.1818ZM20.8281 12.1193C20.1861 12.1193 19.6392 11.9446 19.1875 11.5952C18.7358 11.2429 18.3906 10.733 18.152 10.0653C17.9134 9.39489 17.794 8.58523 17.794 7.63636C17.794 6.69318 17.9134 5.88778 18.152 5.22017C18.3935 4.54972 18.7401 4.03835 19.1918 3.68608C19.6463 3.33097 20.1918 3.15341 20.8281 3.15341C21.4645 3.15341 22.0085 3.33097 22.4602 3.68608C22.9148 4.03835 23.2614 4.54972 23.5 5.22017C23.7415 5.88778 23.8622 6.69318 23.8622 7.63636C23.8622 8.58523 23.7429 9.39489 23.5043 10.0653C23.2656 10.733 22.9205 11.2429 22.4688 11.5952C22.017 11.9446 21.4702 12.1193 20.8281 12.1193ZM20.8281 11.1818C21.4645 11.1818 21.9588 10.875 22.3111 10.2614C22.6634 9.64773 22.8395 8.77273 22.8395 7.63636C22.8395 6.88068 22.7585 6.23722 22.5966 5.70597C22.4375 5.17472 22.2074 4.76989 21.9062 4.49148C21.608 4.21307 21.2486 4.07386 20.8281 4.07386C20.1974 4.07386 19.7045 4.38494 19.3494 5.0071C18.9943 5.62642 18.8168 6.50284 18.8168 7.63636C18.8168 8.39205 18.8963 9.03409 19.0554 9.5625C19.2145 10.0909 19.4432 10.4929 19.7415 10.7685C20.0426 11.044 20.4048 11.1818 20.8281 11.1818ZM26.4361 9.61364L26.419 8.36932H26.6236L29.4872 5.45455H30.7315L27.6804 8.53977H27.5952L26.4361 9.61364ZM25.4986 12V3.27273H26.5043V12H25.4986ZM29.6577 12L27.1009 8.76136L27.8168 8.0625L30.9361 12H29.6577Z" fill="black" fill-opacity="0.7"/>
<path d="M13.6989 78.5193C13.1136 78.5193 12.5966 78.4156 12.1477 78.2083C11.7017 77.998 11.3537 77.7097 11.1037 77.3432C10.8537 76.9739 10.7301 76.5534 10.733 76.0818C10.7301 75.7125 10.8026 75.3716 10.9503 75.0591C11.098 74.7438 11.2997 74.481 11.5554 74.2708C11.8139 74.0577 12.1023 73.9228 12.4205 73.8659V73.8148C12.0028 73.7068 11.6705 73.4725 11.4233 73.1117C11.1761 72.748 11.054 72.3347 11.0568 71.8716C11.054 71.4284 11.1662 71.0321 11.3935 70.6827C11.6207 70.3333 11.9332 70.0577 12.331 69.856C12.7315 69.6543 13.1875 69.5534 13.6989 69.5534C14.2045 69.5534 14.6563 69.6543 15.054 69.856C15.4517 70.0577 15.7642 70.3333 15.9915 70.6827C16.2216 71.0321 16.3381 71.4284 16.3409 71.8716C16.3381 72.3347 16.2116 72.748 15.9616 73.1117C15.7145 73.4725 15.3864 73.7068 14.9773 73.8148V73.8659C15.2926 73.9228 15.5767 74.0577 15.8295 74.2708C16.0824 74.481 16.2841 74.7438 16.4347 75.0591C16.5852 75.3716 16.6619 75.7125 16.6648 76.0818C16.6619 76.5534 16.5341 76.9739 16.2812 77.3432C16.0312 77.7097 15.6832 77.998 15.2372 78.2083C14.794 78.4156 14.2813 78.5193 13.6989 78.5193ZM13.6989 77.5818C14.0938 77.5818 14.4347 77.5179 14.7216 77.3901C15.0085 77.2622 15.2301 77.0818 15.3864 76.8489C15.5426 76.6159 15.6222 76.3432 15.625 76.0307C15.6222 75.7012 15.5369 75.41 15.3693 75.1571C15.2017 74.9043 14.973 74.7054 14.6832 74.5605C14.3963 74.4156 14.0682 74.3432 13.6989 74.3432C13.3267 74.3432 12.9943 74.4156 12.7017 74.5605C12.4119 74.7054 12.1832 74.9043 12.0156 75.1571C11.8509 75.41 11.7699 75.7012 11.7727 76.0307C11.7699 76.3432 11.8452 76.6159 11.9986 76.8489C12.1548 77.0818 12.3778 77.2622 12.6676 77.3901C12.9574 77.5179 13.3011 77.5818 13.6989 77.5818ZM13.6989 73.4398C14.0114 73.4398 14.2884 73.3773 14.5298 73.2523C14.7741 73.1273 14.9659 72.9526 15.1051 72.7281C15.2443 72.5037 15.3153 72.2409 15.3182 71.9398C15.3153 71.6443 15.2457 71.3872 15.1094 71.1685C14.973 70.9469 14.7841 70.7764 14.5426 70.6571C14.3011 70.535 14.0199 70.4739 13.6989 70.4739C13.3722 70.4739 13.0866 70.535 12.8423 70.6571C12.598 70.7764 12.4091 70.9469 12.2756 71.1685C12.142 71.3872 12.0767 71.6443 12.0795 71.9398C12.0767 72.2409 12.1435 72.5037 12.2798 72.7281C12.419 72.9526 12.6108 73.1273 12.8551 73.2523C13.0994 73.3773 13.3807 73.4398 13.6989 73.4398ZM21.1445 78.5193C20.5025 78.5193 19.9556 78.3446 19.5039 77.9952C19.0522 77.6429 18.707 77.133 18.4684 76.4654C18.2298 75.7949 18.1104 74.9853 18.1104 74.0364C18.1104 73.0932 18.2298 72.2878 18.4684 71.6202C18.7099 70.9497 19.0565 70.4384 19.5082 70.0861C19.9627 69.731 20.5082 69.5534 21.1445 69.5534C21.7809 69.5534 22.3249 69.731 22.7766 70.0861C23.2312 70.4384 23.5778 70.9497 23.8164 71.6202C24.0579 72.2878 24.1786 73.0932 24.1786 74.0364C24.1786 74.9853 24.0593 75.7949 23.8207 76.4654C23.582 77.133 23.2369 77.6429 22.7852 77.9952C22.3335 78.3446 21.7866 78.5193 21.1445 78.5193ZM21.1445 77.5818C21.7809 77.5818 22.2752 77.275 22.6275 76.6614C22.9798 76.0478 23.1559 75.1728 23.1559 74.0364C23.1559 73.2807 23.0749 72.6372 22.913 72.106C22.7539 71.5747 22.5238 71.1699 22.2227 70.8915C21.9244 70.6131 21.565 70.4739 21.1445 70.4739C20.5138 70.4739 20.021 70.785 19.6658 71.4071C19.3107 72.0264 19.1332 72.9029 19.1332 74.0364C19.1332 74.7921 19.2127 75.4341 19.3718 75.9625C19.5309 76.4909 19.7596 76.8929 20.0579 77.1685C20.359 77.4441 20.7212 77.5818 21.1445 77.5818ZM26.7525 76.0137L26.7354 74.7693H26.94L29.8036 71.8546H31.0479L27.9968 74.9398H27.9116L26.7525 76.0137ZM25.815 78.4V69.6728H26.8207V78.4H25.815ZM29.9741 78.4L27.4173 75.1614L28.1332 74.4625L31.2525 78.4H29.9741Z" fill="black" fill-opacity="0.7"/>
<path d="M13.8011 144.919C13.4432 144.914 13.0852 144.846 12.7273 144.715C12.3693 144.584 12.0426 144.364 11.7472 144.054C11.4517 143.742 11.2145 143.32 11.0355 142.789C10.8565 142.255 10.767 141.584 10.767 140.777C10.767 140.005 10.8395 139.32 10.9844 138.723C11.1293 138.124 11.3395 137.62 11.6151 137.211C11.8906 136.799 12.223 136.486 12.6122 136.273C13.0043 136.06 13.446 135.953 13.9375 135.953C14.4261 135.953 14.8608 136.051 15.2415 136.247C15.625 136.441 15.9375 136.711 16.179 137.057C16.4205 137.404 16.5767 137.803 16.6477 138.255H15.608C15.5114 137.863 15.3239 137.537 15.0455 137.279C14.767 137.02 14.3977 136.891 13.9375 136.891C13.2614 136.891 12.7287 137.185 12.3395 137.773C11.9531 138.361 11.7585 139.186 11.7557 140.249H11.8239C11.983 140.007 12.1719 139.801 12.3906 139.631C12.6122 139.458 12.8565 139.324 13.1236 139.23C13.3906 139.137 13.6733 139.09 13.9716 139.09C14.4716 139.09 14.929 139.215 15.3438 139.465C15.7585 139.712 16.0909 140.054 16.3409 140.492C16.5909 140.926 16.7159 141.425 16.7159 141.988C16.7159 142.527 16.5952 143.022 16.3537 143.471C16.1122 143.917 15.7727 144.272 15.3352 144.536C14.9006 144.797 14.3892 144.925 13.8011 144.919ZM13.8011 143.982C14.1591 143.982 14.4801 143.892 14.7642 143.713C15.0511 143.534 15.277 143.294 15.4418 142.993C15.6094 142.692 15.6932 142.357 15.6932 141.988C15.6932 141.627 15.6122 141.299 15.4503 141.003C15.2912 140.705 15.071 140.468 14.7898 140.292C14.5114 140.115 14.1932 140.027 13.8352 140.027C13.5653 140.027 13.3139 140.081 13.081 140.189C12.848 140.294 12.6435 140.439 12.4673 140.624C12.294 140.809 12.1577 141.02 12.0582 141.259C11.9588 141.495 11.9091 141.743 11.9091 142.005C11.9091 142.351 11.9901 142.675 12.152 142.976C12.3168 143.277 12.5412 143.52 12.8253 143.705C13.1122 143.89 13.4375 143.982 13.8011 143.982ZM21.2383 144.919C20.5962 144.919 20.0494 144.745 19.5977 144.395C19.146 144.043 18.8008 143.533 18.5621 142.865C18.3235 142.195 18.2042 141.385 18.2042 140.436C18.2042 139.493 18.3235 138.688 18.5621 138.02C18.8036 137.35 19.1502 136.838 19.6019 136.486C20.0565 136.131 20.6019 135.953 21.2383 135.953C21.8746 135.953 22.4187 136.131 22.8704 136.486C23.3249 136.838 23.6715 137.35 23.9102 138.02C24.1516 138.688 24.2724 139.493 24.2724 140.436C24.2724 141.385 24.1531 142.195 23.9144 142.865C23.6758 143.533 23.3306 144.043 22.8789 144.395C22.4272 144.745 21.8803 144.919 21.2383 144.919ZM21.2383 143.982C21.8746 143.982 22.369 143.675 22.7212 143.061C23.0735 142.448 23.2496 141.573 23.2496 140.436C23.2496 139.681 23.1687 139.037 23.0067 138.506C22.8477 137.975 22.6175 137.57 22.3164 137.292C22.0181 137.013 21.6587 136.874 21.2383 136.874C20.6076 136.874 20.1147 137.185 19.7596 137.807C19.4045 138.426 19.2269 139.303 19.2269 140.436C19.2269 141.192 19.3065 141.834 19.4656 142.363C19.6246 142.891 19.8533 143.293 20.1516 143.569C20.4528 143.844 20.815 143.982 21.2383 143.982ZM26.8462 142.414L26.8292 141.169H27.0337L29.8974 138.255H31.1417L28.0906 141.34H28.0053L26.8462 142.414ZM25.9087 144.8V136.073H26.9144V144.8H25.9087ZM30.0678 144.8L27.511 141.561L28.2269 140.863L31.3462 144.8H30.0678Z" fill="black" fill-opacity="0.7"/>
<path d="M10.6989 209.41V208.541L14.5341 202.473H15.1648V203.819H14.7386L11.8409 208.404V208.473H17.0057V209.41H10.6989ZM14.8068 211.2V209.146V208.741V202.473H15.8125V211.2H14.8068ZM21.4492 211.319C20.8072 211.319 20.2603 211.145 19.8086 210.795C19.3569 210.443 19.0117 209.933 18.7731 209.265C18.5344 208.595 18.4151 207.785 18.4151 206.836C18.4151 205.893 18.5344 205.088 18.7731 204.42C19.0146 203.75 19.3612 203.238 19.8129 202.886C20.2674 202.531 20.8129 202.353 21.4492 202.353C22.0856 202.353 22.6296 202.531 23.0813 202.886C23.5359 203.238 23.8825 203.75 24.1211 204.42C24.3626 205.088 24.4833 205.893 24.4833 206.836C24.4833 207.785 24.364 208.595 24.1254 209.265C23.8867 209.933 23.5415 210.443 23.0898 210.795C22.6381 211.145 22.0913 211.319 21.4492 211.319ZM21.4492 210.382C22.0856 210.382 22.5799 210.075 22.9322 209.461C23.2844 208.848 23.4606 207.973 23.4606 206.836C23.4606 206.081 23.3796 205.437 23.2177 204.906C23.0586 204.375 22.8285 203.97 22.5273 203.691C22.229 203.413 21.8697 203.274 21.4492 203.274C20.8185 203.274 20.3256 203.585 19.9705 204.207C19.6154 204.826 19.4379 205.703 19.4379 206.836C19.4379 207.592 19.5174 208.234 19.6765 208.762C19.8356 209.291 20.0643 209.693 20.3626 209.968C20.6637 210.244 21.0259 210.382 21.4492 210.382ZM27.0572 208.814L27.0401 207.569H27.2447L30.1083 204.654H31.3526L28.3015 207.74H28.2163L27.0572 208.814ZM26.1197 211.2V202.473H27.1254V211.2H26.1197ZM30.2788 211.2L27.7219 207.961L28.4379 207.262L31.5572 211.2H30.2788Z" fill="black" fill-opacity="0.7"/>
<path d="M10.9034 277.6V276.833L13.7841 273.68C14.1222 273.31 14.4006 272.989 14.6193 272.716C14.8381 272.441 15 272.182 15.1051 271.941C15.2131 271.697 15.267 271.441 15.267 271.174C15.267 270.867 15.1932 270.601 15.0455 270.377C14.9006 270.153 14.7017 269.979 14.4489 269.857C14.196 269.735 13.9119 269.674 13.5966 269.674C13.2614 269.674 12.9688 269.743 12.7188 269.883C12.4716 270.019 12.2798 270.211 12.1435 270.458C12.0099 270.705 11.9432 270.995 11.9432 271.327H10.9375C10.9375 270.816 11.0554 270.367 11.2912 269.981C11.527 269.594 11.848 269.293 12.2543 269.077C12.6634 268.861 13.1222 268.753 13.6307 268.753C14.142 268.753 14.5952 268.861 14.9901 269.077C15.3849 269.293 15.6946 269.584 15.919 269.951C16.1435 270.317 16.2557 270.725 16.2557 271.174C16.2557 271.495 16.1974 271.809 16.081 272.116C15.9673 272.42 15.7685 272.759 15.4844 273.134C15.2031 273.506 14.8125 273.961 14.3125 274.498L12.3523 276.594V276.662H16.4091V277.6H10.9034ZM21.0156 277.719C20.3736 277.719 19.8267 277.545 19.375 277.195C18.9233 276.843 18.5781 276.333 18.3395 275.665C18.1009 274.995 17.9815 274.185 17.9815 273.236C17.9815 272.293 18.1009 271.488 18.3395 270.82C18.581 270.15 18.9276 269.638 19.3793 269.286C19.8338 268.931 20.3793 268.753 21.0156 268.753C21.652 268.753 22.196 268.931 22.6477 269.286C23.1023 269.638 23.4489 270.15 23.6875 270.82C23.929 271.488 24.0497 272.293 24.0497 273.236C24.0497 274.185 23.9304 274.995 23.6918 275.665C23.4531 276.333 23.108 276.843 22.6562 277.195C22.2045 277.545 21.6577 277.719 21.0156 277.719ZM21.0156 276.782C21.652 276.782 22.1463 276.475 22.4986 275.861C22.8509 275.248 23.027 274.373 23.027 273.236C23.027 272.481 22.946 271.837 22.7841 271.306C22.625 270.775 22.3949 270.37 22.0938 270.091C21.7955 269.813 21.4361 269.674 21.0156 269.674C20.3849 269.674 19.892 269.985 19.5369 270.607C19.1818 271.226 19.0043 272.103 19.0043 273.236C19.0043 273.992 19.0838 274.634 19.2429 275.162C19.402 275.691 19.6307 276.093 19.929 276.368C20.2301 276.644 20.5923 276.782 21.0156 276.782ZM26.6236 275.214L26.6065 273.969H26.8111L29.6747 271.055H30.919L27.8679 274.14H27.7827L26.6236 275.214ZM25.6861 277.6V268.873H26.6918V277.6H25.6861ZM29.8452 277.6L27.2884 274.361L28.0043 273.662L31.1236 277.6H29.8452Z" fill="black" fill-opacity="0.7"/>
<path d="M27.75 344.119C27.108 344.119 26.5611 343.945 26.1094 343.595C25.6577 343.243 25.3125 342.733 25.0739 342.065C24.8352 341.395 24.7159 340.585 24.7159 339.636C24.7159 338.693 24.8352 337.888 25.0739 337.22C25.3153 336.55 25.6619 336.038 26.1136 335.686C26.5682 335.331 27.1136 335.153 27.75 335.153C28.3864 335.153 28.9304 335.331 29.3821 335.686C29.8366 336.038 30.1832 336.55 30.4219 337.22C30.6634 337.888 30.7841 338.693 30.7841 339.636C30.7841 340.585 30.6648 341.395 30.4261 342.065C30.1875 342.733 29.8423 343.243 29.3906 343.595C28.9389 343.945 28.392 344.119 27.75 344.119ZM27.75 343.182C28.3864 343.182 28.8807 342.875 29.233 342.261C29.5852 341.648 29.7614 340.773 29.7614 339.636C29.7614 338.881 29.6804 338.237 29.5185 337.706C29.3594 337.175 29.1293 336.77 28.8281 336.491C28.5298 336.213 28.1705 336.074 27.75 336.074C27.1193 336.074 26.6264 336.385 26.2713 337.007C25.9162 337.626 25.7386 338.503 25.7386 339.636C25.7386 340.392 25.8182 341.034 25.9773 341.562C26.1364 342.091 26.3651 342.493 26.6634 342.768C26.9645 343.044 27.3267 343.182 27.75 343.182Z" fill="black" fill-opacity="0.7"/>
<line x1="37" y1="5.5" x2="773" y2="5.5" stroke="#00001A" stroke-opacity="0.15" stroke-dasharray="2"/>
<line x1="37" y1="72.5" x2="773" y2="72.5" stroke="#00001A" stroke-opacity="0.15" stroke-dasharray="2"/>
<line x1="37" y1="139.5" x2="773" y2="139.5" stroke="#00001A" stroke-opacity="0.15" stroke-dasharray="2"/>
<line x1="37" y1="206.5" x2="773" y2="206.5" stroke="#00001A" stroke-opacity="0.15" stroke-dasharray="2"/>
<line x1="37" y1="273.5" x2="773" y2="273.5" stroke="#00001A" stroke-opacity="0.15" stroke-dasharray="2"/>
<line x1="37" y1="340.5" x2="773" y2="340.5" stroke="#00001A" stroke-opacity="0.3"/>
<line x1="36.5" y1="341" x2="36.5" y2="6" stroke="#00001A" stroke-opacity="0.15" stroke-dasharray="2"/>
<line x1="159.167" y1="341" x2="159.167" y2="6" stroke="#00001A" stroke-opacity="0.15" stroke-dasharray="2"/>
<line x1="281.833" y1="341" x2="281.833" y2="6" stroke="#00001A" stroke-opacity="0.15" stroke-dasharray="2"/>
<line x1="404.5" y1="341" x2="404.5" y2="6" stroke="#00001A" stroke-opacity="0.15" stroke-dasharray="2"/>
<line x1="527.167" y1="341" x2="527.167" y2="6" stroke="#00001A" stroke-opacity="0.15" stroke-dasharray="2"/>
<line x1="649.833" y1="341" x2="649.833" y2="6" stroke="#00001A" stroke-opacity="0.15" stroke-dasharray="2"/>
<line x1="772.5" y1="341" x2="772.5" y2="6" stroke="#00001A" stroke-opacity="0.15" stroke-dasharray="2"/>
<g opacity="0.2">
<rect opacity="0.8" x="68" y="6" width="18" height="334" fill="#8979FF"/>
</g>
<rect opacity="0.8" x="68" y="169.66" width="18" height="170.18" fill="#8979FF"/>
<path d="M73.9855 182.956C73.5689 182.956 73.1936 182.873 72.8598 182.707C72.526 182.541 72.2585 182.314 72.0573 182.025C71.856 181.736 71.7459 181.407 71.727 181.038H72.5793C72.6124 181.367 72.7616 181.639 73.0267 181.855C73.2942 182.068 73.6138 182.174 73.9855 182.174C74.2838 182.174 74.549 182.105 74.781 181.965C75.0154 181.825 75.1988 181.633 75.3314 181.39C75.4664 181.143 75.5338 180.865 75.5338 180.555C75.5338 180.238 75.464 179.955 75.3243 179.706C75.187 179.455 74.9976 179.258 74.7561 179.113C74.5146 178.969 74.2388 178.896 73.9287 178.893C73.7062 178.891 73.4777 178.925 73.2433 178.996C73.009 179.065 72.816 179.154 72.6645 179.262L71.8406 179.163L72.281 175.583H76.0594V176.365H73.0196L72.7639 178.51H72.8066C72.9557 178.391 73.1427 178.293 73.3676 178.215C73.5925 178.137 73.8269 178.098 74.0708 178.098C74.5158 178.098 74.9124 178.204 75.2604 178.417C75.6108 178.628 75.8854 178.917 76.0843 179.284C76.2855 179.651 76.3861 180.07 76.3861 180.541C76.3861 181.005 76.2819 181.419 76.0736 181.784C75.8676 182.146 75.5835 182.432 75.2213 182.643C74.8591 182.851 74.4472 182.956 73.9855 182.956ZM80.3536 175.583V182.856H79.4729V176.507H79.4303L77.6547 177.686V176.791L79.4729 175.583H80.3536Z" fill="black" fill-opacity="0.7"/>
<g opacity="0.2">
<rect opacity="0.8" x="88.3333" y="6" width="18" height="334" fill="#FF928A"/>
</g>
<rect opacity="0.8" x="88.3333" y="19.36" width="18" height="321.28" fill="#FF928A"/>
<path d="M93.7784 25.184C94.0767 25.1864 94.375 25.2432 94.6733 25.3544C94.9716 25.4657 95.2438 25.6504 95.49 25.9084C95.7362 26.1641 95.9339 26.5133 96.0831 26.956C96.2322 27.3987 96.3068 27.9539 96.3068 28.6215C96.3068 29.2678 96.2452 29.8419 96.1221 30.3438C96.0014 30.8433 95.8262 31.2647 95.5966 31.608C95.3693 31.9513 95.0923 32.2117 94.7656 32.3892C94.4413 32.5668 94.0743 32.6556 93.6648 32.6556C93.2576 32.6556 92.8942 32.5751 92.5746 32.4141C92.2573 32.2508 91.9969 32.0247 91.7933 31.7358C91.5921 31.4446 91.463 31.1073 91.4062 30.7238H92.2727C92.3508 31.0576 92.5059 31.3334 92.7379 31.5512C92.9723 31.7666 93.2812 31.8743 93.6648 31.8743C94.2258 31.8743 94.6685 31.6293 94.9929 31.1392C95.3196 30.6492 95.4829 29.9567 95.4829 29.0618H95.4261C95.2935 29.2607 95.1361 29.4323 94.9538 29.5767C94.7715 29.7212 94.5691 29.8324 94.3466 29.9106C94.124 29.9887 93.8873 30.0277 93.6363 30.0277C93.2197 30.0277 92.8373 29.9248 92.4893 29.7188C92.1437 29.5105 91.8667 29.2252 91.6584 28.863C91.4524 28.4984 91.3494 28.0817 91.3494 27.613C91.3494 27.1679 91.4488 26.7607 91.6477 26.3914C91.8489 26.0197 92.1307 25.7238 92.4929 25.5036C92.8575 25.2834 93.286 25.1769 93.7784 25.184ZM93.7784 25.9652C93.4801 25.9652 93.2114 26.0398 92.9723 26.189C92.7355 26.3357 92.5473 26.5346 92.4076 26.7856C92.2703 27.0341 92.2017 27.3099 92.2017 27.613C92.2017 27.916 92.268 28.1918 92.4005 28.4404C92.5355 28.6866 92.719 28.8831 92.951 29.0299C93.1853 29.1743 93.4517 29.2465 93.75 29.2465C93.9749 29.2465 94.1844 29.2027 94.3785 29.1151C94.5727 29.0251 94.7419 28.9032 94.8863 28.7493C95.0331 28.5931 95.1479 28.4167 95.2308 28.2202C95.3137 28.0214 95.3551 27.8142 95.3551 27.5988C95.3551 27.3147 95.2864 27.0483 95.1491 26.7998C95.0142 26.5512 94.8272 26.3499 94.588 26.1961C94.3513 26.0422 94.0814 25.9652 93.7784 25.9652ZM100.118 32.6556C99.8198 32.6508 99.5215 32.594 99.2232 32.4851C98.9249 32.3762 98.6526 32.1928 98.4064 31.9347C98.1602 31.6743 97.9625 31.3227 97.8134 30.88C97.6642 30.4349 97.5896 29.8762 97.5896 29.2039C97.5896 28.5599 97.65 27.9894 97.7708 27.4922C97.8915 26.9927 98.0667 26.5725 98.2963 26.2316C98.526 25.8883 98.8029 25.6279 99.1273 25.4503C99.454 25.2728 99.8221 25.184 100.232 25.184C100.639 25.184 101.001 25.2657 101.318 25.429C101.638 25.59 101.898 25.8149 102.1 26.1037C102.301 26.3926 102.431 26.7252 102.49 27.1016H101.624C101.543 26.7749 101.387 26.5038 101.155 26.2884C100.923 26.073 100.615 25.9652 100.232 25.9652C99.6682 25.9652 99.2244 26.2103 98.9 26.7003C98.578 27.1904 98.4159 27.8781 98.4135 28.7635H98.4703C98.6029 28.5623 98.7603 28.3907 98.9426 28.2486C99.1273 28.1042 99.3309 27.9929 99.5534 27.9148C99.776 27.8367 100.012 27.7976 100.26 27.7976C100.677 27.7976 101.058 27.9018 101.404 28.1101C101.749 28.3161 102.026 28.6014 102.235 28.966C102.443 29.3282 102.547 29.7437 102.547 30.2124C102.547 30.6622 102.446 31.0741 102.245 31.4482C102.044 31.8199 101.761 32.1158 101.396 32.336C101.034 32.5538 100.608 32.6603 100.118 32.6556ZM100.118 31.8743C100.416 31.8743 100.684 31.7998 100.921 31.6506C101.16 31.5015 101.348 31.3014 101.485 31.0505C101.625 30.7995 101.695 30.5202 101.695 30.2124C101.695 29.9117 101.627 29.6383 101.492 29.3921C101.36 29.1435 101.176 28.9458 100.942 28.799C100.71 28.6523 100.445 28.5789 100.146 28.5789C99.9216 28.5789 99.712 28.6239 99.5179 28.7138C99.3238 28.8014 99.1533 28.9222 99.0065 29.076C98.8621 29.2299 98.7485 29.4063 98.6656 29.6052C98.5828 29.8017 98.5413 30.0088 98.5413 30.2266C98.5413 30.5154 98.6088 30.7853 98.7438 31.0363C98.8811 31.2872 99.0681 31.4896 99.3048 31.6435C99.544 31.7974 99.815 31.8743 100.118 31.8743Z" fill="black" fill-opacity="0.7"/>
<g opacity="0.2">
<rect opacity="0.8" x="108.667" y="6" width="18" height="334" fill="#3CC3DF"/>
</g>
<rect opacity="0.8" x="108.667" y="56.1" width="18" height="284.3" fill="#3CC3DF"/>
<path d="M114.126 69.3956C113.638 69.3956 113.207 69.3092 112.833 69.1363C112.462 68.9612 112.172 68.7209 111.963 68.4155C111.755 68.1077 111.652 67.7573 111.654 67.3643C111.652 67.0566 111.712 66.7725 111.835 66.5121C111.959 66.2493 112.127 66.0303 112.34 65.8551C112.555 65.6775 112.795 65.5651 113.061 65.5177V65.4751C112.713 65.3852 112.436 65.1898 112.23 64.8892C112.024 64.5862 111.922 64.2417 111.924 63.8558C111.922 63.4865 112.015 63.1562 112.205 62.865C112.394 62.5738 112.655 62.3442 112.986 62.1761C113.32 62.008 113.7 61.924 114.126 61.924C114.547 61.924 114.924 62.008 115.255 62.1761C115.587 62.3442 115.847 62.5738 116.036 62.865C116.228 63.1562 116.325 63.4865 116.328 63.8558C116.325 64.2417 116.22 64.5862 116.012 64.8892C115.806 65.1898 115.532 65.3852 115.191 65.4751V65.5177C115.454 65.5651 115.691 65.6775 115.902 65.8551C116.112 66.0303 116.28 66.2493 116.406 66.5121C116.531 66.7725 116.595 67.0566 116.598 67.3643C116.595 67.7573 116.489 68.1077 116.278 68.4155C116.07 68.7209 115.78 68.9612 115.408 69.1363C115.039 69.3092 114.611 69.3956 114.126 69.3956ZM114.126 68.6143C114.455 68.6143 114.739 68.5611 114.978 68.4545C115.217 68.348 115.402 68.1977 115.532 68.0035C115.662 67.8094 115.729 67.5821 115.731 67.3217C115.729 67.0471 115.658 66.8044 115.518 66.5937C115.378 66.383 115.188 66.2173 114.946 66.0966C114.707 65.9758 114.434 65.9155 114.126 65.9155C113.816 65.9155 113.539 65.9758 113.295 66.0966C113.054 66.2173 112.863 66.383 112.723 66.5937C112.586 66.8044 112.518 67.0471 112.521 67.3217C112.518 67.5821 112.581 67.8094 112.709 68.0035C112.839 68.1977 113.025 68.348 113.267 68.4545C113.508 68.5611 113.795 68.6143 114.126 68.6143ZM114.126 65.1626C114.386 65.1626 114.617 65.1105 114.818 65.0064C115.022 64.9022 115.182 64.7566 115.298 64.5696C115.414 64.3826 115.473 64.1636 115.475 63.9126C115.473 63.6664 115.415 63.4522 115.301 63.2699C115.188 63.0852 115.03 62.9432 114.829 62.8437C114.628 62.7419 114.393 62.691 114.126 62.691C113.854 62.691 113.616 62.7419 113.412 62.8437C113.209 62.9432 113.051 63.0852 112.94 63.2699C112.829 63.4522 112.774 63.6664 112.777 63.9126C112.774 64.1636 112.83 64.3826 112.943 64.5696C113.059 64.7566 113.219 64.9022 113.423 65.0064C113.626 65.1105 113.861 65.1626 114.126 65.1626ZM120.231 69.3956C119.815 69.3956 119.439 69.3127 119.106 69.147C118.772 68.9813 118.504 68.754 118.303 68.4652C118.102 68.1764 117.992 67.8473 117.973 67.478H118.825C118.858 67.807 119.007 68.0793 119.272 68.2947C119.54 68.5078 119.86 68.6143 120.231 68.6143C120.53 68.6143 120.795 68.5445 121.027 68.4048C121.261 68.2651 121.445 68.0734 121.577 67.8295C121.712 67.5833 121.78 67.3051 121.78 66.995C121.78 66.6778 121.71 66.3949 121.57 66.1463C121.433 65.8953 121.243 65.6977 121.002 65.5532C120.76 65.4088 120.485 65.3354 120.174 65.3331C119.952 65.3307 119.723 65.365 119.489 65.4361C119.255 65.5047 119.062 65.5935 118.91 65.7024L118.086 65.603L118.527 62.0234H122.305V62.8047H119.265L119.01 64.9496H119.052C119.201 64.8312 119.388 64.7329 119.613 64.6548C119.838 64.5767 120.073 64.5376 120.316 64.5376C120.762 64.5376 121.158 64.6442 121.506 64.8572C121.856 65.0679 122.131 65.3567 122.33 65.7237C122.531 66.0906 122.632 66.5097 122.632 66.9808C122.632 67.4448 122.528 67.8591 122.319 68.2237C122.113 68.5859 121.829 68.8724 121.467 69.0831C121.105 69.2914 120.693 69.3956 120.231 69.3956Z" fill="black" fill-opacity="0.7"/>
<g opacity="0.2">
<rect opacity="0.8" x="191" y="6" width="18" height="334" fill="#8979FF"/>
</g>
<rect opacity="0.8" x="191" y="12.6801" width="18" height="326.64" fill="#8979FF"/>
<path d="M196.445 18.5041C196.743 18.5064 197.042 18.5632 197.34 18.6745C197.638 18.7858 197.911 18.9704 198.157 19.2285C198.403 19.4842 198.601 19.8334 198.75 20.2761C198.899 20.7188 198.973 21.2739 198.973 21.9416C198.973 22.5879 198.912 23.162 198.789 23.6639C198.668 24.1634 198.493 24.5848 198.263 24.9281C198.036 25.2713 197.759 25.5318 197.432 25.7093C197.108 25.8869 196.741 25.9757 196.331 25.9757C195.924 25.9757 195.561 25.8952 195.241 25.7342C194.924 25.5708 194.664 25.3447 194.46 25.0559C194.259 24.7647 194.13 24.4274 194.073 24.0438H194.939C195.018 24.3776 195.173 24.6534 195.405 24.8712C195.639 25.0867 195.948 25.1944 196.331 25.1944C196.893 25.1944 197.335 24.9494 197.66 24.4593C197.986 23.9693 198.15 23.2768 198.15 22.3819H198.093C197.96 22.5808 197.803 22.7524 197.621 22.8968C197.438 23.0412 197.236 23.1525 197.013 23.2306C196.791 23.3087 196.554 23.3478 196.303 23.3478C195.886 23.3478 195.504 23.2448 195.156 23.0389C194.81 22.8305 194.533 22.5453 194.325 22.183C194.119 21.8185 194.016 21.4018 194.016 20.933C194.016 20.488 194.116 20.0808 194.314 19.7114C194.516 19.3398 194.797 19.0438 195.16 18.8237C195.524 18.6035 195.953 18.497 196.445 18.5041ZM196.445 19.2853C196.147 19.2853 195.878 19.3599 195.639 19.509C195.402 19.6558 195.214 19.8547 195.074 20.1056C194.937 20.3542 194.868 20.63 194.868 20.933C194.868 21.2361 194.935 21.5119 195.067 21.7605C195.202 22.0067 195.386 22.2032 195.618 22.3499C195.852 22.4944 196.118 22.5666 196.417 22.5666C196.642 22.5666 196.851 22.5228 197.045 22.4352C197.239 22.3452 197.409 22.2233 197.553 22.0694C197.7 21.9132 197.815 21.7368 197.897 21.5403C197.98 21.3414 198.022 21.1343 198.022 20.9188C198.022 20.6347 197.953 20.3684 197.816 20.1198C197.681 19.8712 197.494 19.67 197.255 19.5161C197.018 19.3623 196.748 19.2853 196.445 19.2853ZM202.7 25.9757C202.212 25.9757 201.781 25.8892 201.407 25.7164C201.035 25.5412 200.745 25.3009 200.537 24.9955C200.329 24.6878 200.226 24.3374 200.228 23.9444C200.226 23.6366 200.286 23.3525 200.409 23.0921C200.532 22.8293 200.7 22.6104 200.913 22.4352C201.129 22.2576 201.369 22.1452 201.634 22.0978V22.0552C201.286 21.9652 201.009 21.7699 200.803 21.4693C200.597 21.1662 200.495 20.8218 200.498 20.4359C200.495 20.0666 200.589 19.7363 200.778 19.4451C200.968 19.1539 201.228 18.9243 201.56 18.7562C201.893 18.5881 202.273 18.5041 202.7 18.5041C203.121 18.5041 203.497 18.5881 203.829 18.7562C204.16 18.9243 204.421 19.1539 204.61 19.4451C204.802 19.7363 204.899 20.0666 204.901 20.4359C204.899 20.8218 204.793 21.1662 204.585 21.4693C204.379 21.7699 204.106 21.9652 203.765 22.0552V22.0978C204.028 22.1452 204.264 22.2576 204.475 22.4352C204.686 22.6104 204.854 22.8293 204.979 23.0921C205.105 23.3525 205.169 23.6366 205.171 23.9444C205.169 24.3374 205.062 24.6878 204.852 24.9955C204.643 25.3009 204.353 25.5412 203.981 25.7164C203.612 25.8892 203.185 25.9757 202.7 25.9757ZM202.7 25.1944C203.029 25.1944 203.313 25.1411 203.552 25.0346C203.791 24.9281 203.976 24.7777 204.106 24.5836C204.236 24.3895 204.302 24.1622 204.305 23.9018C204.302 23.6272 204.231 23.3845 204.092 23.1738C203.952 22.9631 203.761 22.7974 203.52 22.6766C203.281 22.5559 203.007 22.4955 202.7 22.4955C202.389 22.4955 202.112 22.5559 201.869 22.6766C201.627 22.7974 201.436 22.9631 201.297 23.1738C201.16 23.3845 201.092 23.6272 201.094 23.9018C201.092 24.1622 201.155 24.3895 201.283 24.5836C201.413 24.7777 201.599 24.9281 201.84 25.0346C202.082 25.1411 202.368 25.1944 202.7 25.1944ZM202.7 21.7427C202.96 21.7427 203.191 21.6906 203.392 21.5864C203.596 21.4823 203.755 21.3367 203.871 21.1497C203.987 20.9626 204.047 20.7436 204.049 20.4927C204.047 20.2465 203.989 20.0322 203.875 19.8499C203.761 19.6653 203.604 19.5232 203.403 19.4238C203.201 19.322 202.967 19.2711 202.7 19.2711C202.427 19.2711 202.189 19.322 201.986 19.4238C201.782 19.5232 201.625 19.6653 201.513 19.8499C201.402 20.0322 201.348 20.2465 201.35 20.4927C201.348 20.7436 201.403 20.9626 201.517 21.1497C201.633 21.3367 201.793 21.4823 201.996 21.5864C202.2 21.6906 202.434 21.7427 202.7 21.7427Z" fill="black" fill-opacity="0.7"/>
<g opacity="0.2">
<rect opacity="0.8" x="211.333" y="6" width="18" height="334" fill="#FF928A"/>
</g>
<rect opacity="0.8" x="211.333" y="196.38" width="18" height="143.74" fill="#FF928A"/>
<path d="M214.293 208.085V207.36L217.489 202.303H218.014V203.426H217.659L215.244 207.247V207.303H219.548V208.085H214.293ZM217.716 209.576V207.865V207.527V202.303H218.554V209.576H217.716ZM223.336 209.676C222.868 209.676 222.45 209.595 222.083 209.434C221.718 209.273 221.428 209.049 221.213 208.763C221 208.474 220.884 208.139 220.865 207.758H221.76C221.779 207.992 221.859 208.195 222.001 208.365C222.143 208.533 222.329 208.664 222.559 208.756C222.788 208.848 223.043 208.894 223.322 208.894C223.635 208.894 223.912 208.84 224.153 208.731C224.395 208.622 224.584 208.471 224.721 208.276C224.859 208.082 224.927 207.857 224.927 207.602C224.927 207.334 224.861 207.099 224.728 206.895C224.596 206.689 224.402 206.528 224.146 206.412C223.89 206.296 223.578 206.238 223.209 206.238H222.626V205.457H223.209C223.497 205.457 223.751 205.405 223.969 205.301C224.189 205.196 224.36 205.05 224.483 204.86C224.609 204.671 224.672 204.448 224.672 204.193C224.672 203.946 224.617 203.732 224.508 203.55C224.399 203.368 224.246 203.226 224.047 203.124C223.85 203.022 223.618 202.971 223.351 202.971C223.1 202.971 222.863 203.017 222.64 203.11C222.42 203.2 222.24 203.331 222.101 203.504C221.961 203.674 221.885 203.88 221.873 204.122H221.021C221.035 203.74 221.15 203.407 221.366 203.12C221.581 202.831 221.863 202.606 222.211 202.445C222.561 202.285 222.946 202.204 223.365 202.204C223.815 202.204 224.201 202.295 224.523 202.477C224.844 202.657 225.092 202.895 225.265 203.191C225.438 203.487 225.524 203.807 225.524 204.15C225.524 204.56 225.416 204.909 225.201 205.198C224.988 205.486 224.698 205.686 224.331 205.798V205.855C224.79 205.93 225.149 206.126 225.407 206.441C225.665 206.753 225.794 207.14 225.794 207.602C225.794 207.997 225.686 208.352 225.471 208.667C225.258 208.98 224.966 209.226 224.597 209.406C224.228 209.586 223.808 209.676 223.336 209.676Z" fill="black" fill-opacity="0.7"/>
<g opacity="0.2">
<rect opacity="0.8" x="231.667" y="6" width="18" height="334" fill="#3CC3DF"/>
</g>
<rect opacity="0.8" x="231.667" y="226.44" width="18" height="114.12" fill="#3CC3DF"/>
<path d="M237.254 239.736C236.785 239.736 236.367 239.655 236 239.494C235.636 239.333 235.346 239.109 235.13 238.823C234.917 238.534 234.801 238.199 234.782 237.818H235.677C235.696 238.052 235.777 238.255 235.919 238.425C236.061 238.593 236.246 238.724 236.476 238.816C236.706 238.908 236.96 238.954 237.24 238.954C237.552 238.954 237.829 238.9 238.071 238.791C238.312 238.682 238.501 238.531 238.639 238.337C238.776 238.142 238.845 237.917 238.845 237.662C238.845 237.394 238.778 237.159 238.646 236.955C238.513 236.749 238.319 236.588 238.063 236.472C237.808 236.356 237.495 236.298 237.126 236.298H236.544V235.517H237.126C237.415 235.517 237.668 235.465 237.886 235.361C238.106 235.256 238.278 235.11 238.401 234.92C238.526 234.731 238.589 234.508 238.589 234.253C238.589 234.006 238.535 233.792 238.426 233.61C238.317 233.428 238.163 233.286 237.964 233.184C237.768 233.082 237.536 233.031 237.268 233.031C237.017 233.031 236.78 233.077 236.558 233.17C236.338 233.26 236.158 233.391 236.018 233.564C235.878 233.734 235.803 233.94 235.791 234.182H234.938C234.953 233.801 235.067 233.467 235.283 233.18C235.498 232.891 235.78 232.667 236.128 232.506C236.478 232.345 236.863 232.264 237.282 232.264C237.732 232.264 238.118 232.355 238.44 232.538C238.762 232.717 239.009 232.955 239.182 233.251C239.355 233.547 239.441 233.867 239.441 234.21C239.441 234.62 239.334 234.969 239.118 235.258C238.905 235.547 238.615 235.747 238.248 235.858V235.915C238.707 235.99 239.066 236.186 239.324 236.501C239.582 236.813 239.711 237.2 239.711 237.662C239.711 238.057 239.603 238.412 239.388 238.727C239.175 239.04 238.884 239.286 238.514 239.466C238.145 239.646 237.725 239.736 237.254 239.736ZM240.993 238.145V237.42L244.189 232.364H244.715V233.486H244.36L241.945 237.307V237.364H246.249V238.145H240.993ZM244.416 239.636V237.925V237.587V232.364H245.255V239.636H244.416Z" fill="black" fill-opacity="0.7"/>
<g opacity="0.2">
<rect opacity="0.8" x="314" y="6" width="18" height="334" fill="#8979FF"/>
</g>
<rect opacity="0.8" x="314" y="256.5" width="18" height="83.5" fill="#8979FF"/>
<path d="M317.13 269.696V269.057L319.53 266.429C319.812 266.121 320.044 265.854 320.226 265.627C320.409 265.397 320.544 265.181 320.631 264.98C320.721 264.777 320.766 264.564 320.766 264.341C320.766 264.085 320.705 263.864 320.581 263.677C320.461 263.49 320.295 263.346 320.084 263.244C319.874 263.142 319.637 263.091 319.374 263.091C319.095 263.091 318.851 263.149 318.643 263.265C318.437 263.379 318.277 263.538 318.163 263.744C318.052 263.95 317.996 264.192 317.996 264.469H317.158C317.158 264.043 317.256 263.669 317.453 263.347C317.649 263.025 317.917 262.774 318.255 262.594C318.596 262.414 318.979 262.324 319.402 262.324C319.829 262.324 320.206 262.414 320.535 262.594C320.864 262.774 321.122 263.016 321.309 263.322C321.496 263.627 321.59 263.967 321.59 264.341C321.59 264.609 321.541 264.87 321.444 265.126C321.35 265.379 321.184 265.662 320.947 265.975C320.713 266.285 320.387 266.663 319.971 267.111L318.337 268.858V268.915H321.718V269.696H317.13ZM325.457 269.796C325.04 269.796 324.665 269.713 324.331 269.547C323.998 269.381 323.73 269.154 323.529 268.865C323.328 268.576 323.218 268.247 323.199 267.878H324.051C324.084 268.207 324.233 268.479 324.498 268.695C324.766 268.908 325.085 269.014 325.457 269.014C325.755 269.014 326.021 268.945 326.253 268.805C326.487 268.665 326.67 268.473 326.803 268.23C326.938 267.983 327.005 267.705 327.005 267.395C327.005 267.078 326.936 266.795 326.796 266.546C326.659 266.295 326.469 266.098 326.228 265.953C325.986 265.809 325.71 265.735 325.4 265.733C325.178 265.731 324.949 265.765 324.715 265.836C324.481 265.905 324.288 265.994 324.136 266.102L323.312 266.003L323.753 262.423H327.531V263.205H324.491L324.236 265.35H324.278C324.427 265.231 324.614 265.133 324.839 265.055C325.064 264.977 325.299 264.938 325.542 264.938C325.987 264.938 326.384 265.044 326.732 265.257C327.082 265.468 327.357 265.757 327.556 266.124C327.757 266.491 327.858 266.91 327.858 267.381C327.858 267.845 327.754 268.259 327.545 268.624C327.339 268.986 327.055 269.272 326.693 269.483C326.331 269.691 325.919 269.796 325.457 269.796Z" fill="black" fill-opacity="0.7"/>
<g opacity="0.2">
<rect opacity="0.8" x="334.333" y="6" width="18" height="334" fill="#FF928A"/>
</g>
<rect opacity="0.8" x="334.333" y="136.26" width="18" height="203.98" fill="#FF928A"/>
<path d="M340.461 149.556C340.163 149.551 339.864 149.494 339.566 149.385C339.268 149.276 338.995 149.093 338.749 148.835C338.503 148.574 338.305 148.223 338.156 147.78C338.007 147.335 337.932 146.776 337.932 146.104C337.932 145.46 337.993 144.889 338.114 144.392C338.234 143.893 338.41 143.473 338.639 143.132C338.869 142.788 339.146 142.528 339.47 142.35C339.797 142.173 340.165 142.084 340.575 142.084C340.982 142.084 341.344 142.166 341.661 142.329C341.981 142.49 342.241 142.715 342.442 143.004C342.644 143.293 342.774 143.625 342.833 144.002H341.967C341.886 143.675 341.73 143.404 341.498 143.188C341.266 142.973 340.958 142.865 340.575 142.865C340.011 142.865 339.567 143.11 339.243 143.6C338.921 144.09 338.759 144.778 338.756 145.664H338.813C338.946 145.462 339.103 145.291 339.285 145.149C339.47 145.004 339.674 144.893 339.896 144.815C340.119 144.737 340.354 144.698 340.603 144.698C341.02 144.698 341.401 144.802 341.746 145.01C342.092 145.216 342.369 145.501 342.577 145.866C342.786 146.228 342.89 146.644 342.89 147.112C342.89 147.562 342.789 147.974 342.588 148.348C342.387 148.72 342.104 149.016 341.739 149.236C341.377 149.454 340.951 149.56 340.461 149.556ZM340.461 148.774C340.759 148.774 341.027 148.7 341.263 148.551C341.503 148.401 341.691 148.201 341.828 147.95C341.968 147.7 342.038 147.42 342.038 147.112C342.038 146.812 341.97 146.538 341.835 146.292C341.703 146.044 341.519 145.846 341.285 145.699C341.053 145.552 340.788 145.479 340.489 145.479C340.264 145.479 340.055 145.524 339.861 145.614C339.667 145.701 339.496 145.822 339.349 145.976C339.205 146.13 339.091 146.306 339.008 146.505C338.926 146.702 338.884 146.909 338.884 147.127C338.884 147.415 338.952 147.685 339.087 147.936C339.224 148.187 339.411 148.39 339.648 148.544C339.887 148.697 340.158 148.774 340.461 148.774ZM346.843 142.183V149.456H345.962V143.107H345.92L344.144 144.286V143.391L345.962 142.183H346.843Z" fill="black" fill-opacity="0.7"/>
<g opacity="0.2">
<rect opacity="0.8" x="354.667" y="6" width="18" height="334" fill="#3CC3DF"/>
</g>
<rect opacity="0.8" x="354.667" y="72.8" width="18" height="267.4" fill="#3CC3DF"/>
<path d="M360.126 86.0956C359.638 86.0956 359.207 86.0092 358.833 85.8364C358.462 85.6612 358.172 85.4209 357.963 85.1155C357.755 84.8078 357.652 84.4574 357.654 84.0644C357.652 83.7566 357.712 83.4725 357.835 83.2121C357.959 82.9493 358.127 82.7304 358.34 82.5552C358.555 82.3776 358.795 82.2652 359.061 82.2178V82.1752C358.713 82.0852 358.436 81.8899 358.23 81.5893C358.024 81.2862 357.922 80.9418 357.924 80.5559C357.922 80.1866 358.015 79.8563 358.205 79.5651C358.394 79.2739 358.655 79.0443 358.986 78.8762C359.32 78.7081 359.7 78.6241 360.126 78.6241C360.547 78.6241 360.924 78.7081 361.255 78.8762C361.587 79.0443 361.847 79.2739 362.036 79.5651C362.228 79.8563 362.325 80.1866 362.328 80.5559C362.325 80.9418 362.22 81.2862 362.012 81.5893C361.806 81.8899 361.532 82.0852 361.191 82.1752V82.2178C361.454 82.2652 361.691 82.3776 361.902 82.5552C362.112 82.7304 362.28 82.9493 362.406 83.2121C362.531 83.4725 362.595 83.7566 362.598 84.0644C362.595 84.4574 362.489 84.8078 362.278 85.1155C362.07 85.4209 361.78 85.6612 361.408 85.8364C361.039 86.0092 360.611 86.0956 360.126 86.0956ZM360.126 85.3144C360.455 85.3144 360.739 85.2611 360.978 85.1546C361.217 85.0481 361.402 84.8977 361.532 84.7036C361.662 84.5095 361.729 84.2822 361.731 84.0218C361.729 83.7472 361.658 83.5045 361.518 83.2938C361.378 83.0831 361.188 82.9174 360.946 82.7966C360.707 82.6759 360.434 82.6155 360.126 82.6155C359.816 82.6155 359.539 82.6759 359.295 82.7966C359.054 82.9174 358.863 83.0831 358.723 83.2938C358.586 83.5045 358.518 83.7472 358.521 84.0218C358.518 84.2822 358.581 84.5095 358.709 84.7036C358.839 84.8977 359.025 85.0481 359.267 85.1546C359.508 85.2611 359.795 85.3144 360.126 85.3144ZM360.126 81.8627C360.386 81.8627 360.617 81.8106 360.818 81.7064C361.022 81.6023 361.182 81.4567 361.298 81.2697C361.414 81.0826 361.473 80.8636 361.475 80.6127C361.473 80.3665 361.415 80.1522 361.301 79.9699C361.188 79.7853 361.03 79.6432 360.829 79.5438C360.628 79.442 360.393 79.3911 360.126 79.3911C359.854 79.3911 359.616 79.442 359.412 79.5438C359.209 79.6432 359.051 79.7853 358.94 79.9699C358.829 80.1522 358.774 80.3665 358.777 80.6127C358.774 80.8636 358.83 81.0826 358.943 81.2697C359.059 81.4567 359.219 81.6023 359.423 81.7064C359.626 81.8106 359.861 81.8627 360.126 81.8627ZM366.331 86.0956C365.796 86.0956 365.34 85.9501 364.964 85.6589C364.587 85.3653 364.299 84.9403 364.101 84.384C363.902 83.8253 363.802 83.1506 363.802 82.3599C363.802 81.5739 363.902 80.9027 364.101 80.3464C364.302 79.7876 364.591 79.3615 364.967 79.0679C365.346 78.772 365.8 78.6241 366.331 78.6241C366.861 78.6241 367.314 78.772 367.691 79.0679C368.07 79.3615 368.358 79.7876 368.557 80.3464C368.758 80.9027 368.859 81.5739 368.859 82.3599C368.859 83.1506 368.76 83.8253 368.561 84.384C368.362 84.9403 368.074 85.3653 367.698 85.6589C367.321 85.9501 366.866 86.0956 366.331 86.0956ZM366.331 85.3144C366.861 85.3144 367.273 85.0587 367.566 84.5474C367.86 84.036 368.007 83.3068 368.007 82.3599C368.007 81.7301 367.939 81.1939 367.804 80.7512C367.672 80.3085 367.48 79.9711 367.229 79.7391C366.981 79.5071 366.681 79.3911 366.331 79.3911C365.805 79.3911 365.394 79.6503 365.098 80.1688C364.803 80.6849 364.655 81.4152 364.655 82.3599C364.655 82.9896 364.721 83.5246 364.853 83.965C364.986 84.4053 365.177 84.7403 365.425 84.9699C365.676 85.1996 365.978 85.3144 366.331 85.3144Z" fill="black" fill-opacity="0.7"/>
<g opacity="0.2">
<rect opacity="0.8" x="437" y="6" width="18" height="334" fill="#8979FF"/>
</g>
<rect opacity="0.8" x="437" y="189.7" width="18" height="150.1" fill="#8979FF"/>
<path d="M439.959 201.405V200.68L443.155 195.623H443.681V196.746H443.326L440.911 200.567V200.623H445.215V201.405H439.959ZM443.383 202.896V201.184V200.847V195.623H444.221V202.896H443.383ZM448.819 202.996C448.402 202.996 448.027 202.913 447.693 202.747C447.359 202.581 447.092 202.354 446.89 202.065C446.689 201.776 446.579 201.447 446.56 201.078H447.412C447.445 201.407 447.595 201.679 447.86 201.895C448.127 202.108 448.447 202.214 448.819 202.214C449.117 202.214 449.382 202.144 449.614 202.005C449.848 201.865 450.032 201.673 450.164 201.429C450.299 201.183 450.367 200.905 450.367 200.595C450.367 200.278 450.297 199.995 450.157 199.746C450.02 199.495 449.831 199.298 449.589 199.153C449.348 199.009 449.072 198.935 448.762 198.933C448.539 198.931 448.311 198.965 448.076 199.036C447.842 199.105 447.649 199.193 447.498 199.302L446.674 199.203L447.114 195.623H450.892V196.405H447.853L447.597 198.55H447.64C447.789 198.431 447.976 198.333 448.201 198.255C448.426 198.177 448.66 198.138 448.904 198.138C449.349 198.138 449.745 198.244 450.093 198.457C450.444 198.668 450.718 198.957 450.917 199.324C451.118 199.691 451.219 200.11 451.219 200.581C451.219 201.045 451.115 201.459 450.907 201.824C450.701 202.186 450.417 202.472 450.054 202.683C449.692 202.891 449.28 202.996 448.819 202.996Z" fill="black" fill-opacity="0.7"/>
<g opacity="0.2">
<rect opacity="0.8" x="457.333" y="6" width="18" height="334" fill="#FF928A"/>
</g>
<rect opacity="0.8" x="457.333" y="296.58" width="18" height="43.34" fill="#FF928A"/>
<path d="M463.311 302.503V309.776H462.431V303.427H462.388L460.613 304.606V303.711L462.431 302.503H463.311ZM467.86 309.876C467.392 309.876 466.974 309.795 466.607 309.634C466.242 309.473 465.952 309.249 465.737 308.963C465.524 308.674 465.408 308.339 465.389 307.958H466.284C466.303 308.192 466.383 308.395 466.525 308.565C466.667 308.733 466.853 308.863 467.083 308.956C467.312 309.048 467.567 309.094 467.846 309.094C468.159 309.094 468.436 309.04 468.677 308.931C468.919 308.822 469.108 308.671 469.245 308.476C469.383 308.282 469.451 308.057 469.451 307.802C469.451 307.534 469.385 307.299 469.253 307.095C469.12 306.889 468.926 306.728 468.67 306.612C468.414 306.496 468.102 306.438 467.733 306.438H467.15V305.657H467.733C468.021 305.657 468.275 305.605 468.493 305.501C468.713 305.396 468.884 305.25 469.008 305.06C469.133 304.871 469.196 304.648 469.196 304.393C469.196 304.146 469.141 303.932 469.032 303.75C468.923 303.568 468.77 303.426 468.571 303.324C468.374 303.222 468.142 303.171 467.875 303.171C467.624 303.171 467.387 303.217 467.164 303.31C466.944 303.399 466.764 303.531 466.625 303.704C466.485 303.874 466.409 304.08 466.397 304.322H465.545C465.559 303.94 465.674 303.607 465.89 303.32C466.105 303.031 466.387 302.806 466.735 302.645C467.085 302.484 467.47 302.404 467.889 302.404C468.339 302.404 468.725 302.495 469.047 302.677C469.369 302.857 469.616 303.095 469.789 303.391C469.962 303.687 470.048 304.007 470.048 304.35C470.048 304.76 469.94 305.109 469.725 305.398C469.512 305.686 469.222 305.886 468.855 305.998V306.055C469.314 306.13 469.673 306.326 469.931 306.64C470.189 306.953 470.318 307.34 470.318 307.802C470.318 308.197 470.21 308.552 469.995 308.867C469.782 309.18 469.49 309.426 469.121 309.606C468.752 309.786 468.332 309.876 467.86 309.876Z" fill="black" fill-opacity="0.7"/>
<g opacity="0.2">
<rect opacity="0.8" x="477.667" y="6" width="18" height="334" fill="#3CC3DF"/>
</g>
<rect opacity="0.8" x="477.667" y="139.6" width="18" height="199.8" fill="#3CC3DF"/>
<path d="M483.211 152.896C482.913 152.891 482.615 152.834 482.316 152.725C482.018 152.616 481.746 152.433 481.5 152.175C481.253 151.914 481.056 151.563 480.907 151.12C480.757 150.675 480.683 150.116 480.683 149.444C480.683 148.8 480.743 148.229 480.864 147.732C480.985 147.233 481.16 146.812 481.389 146.472C481.619 146.128 481.896 145.868 482.22 145.69C482.547 145.513 482.915 145.424 483.325 145.424C483.732 145.424 484.094 145.506 484.411 145.669C484.731 145.83 484.991 146.055 485.193 146.344C485.394 146.633 485.524 146.965 485.583 147.342H484.717C484.636 147.015 484.48 146.744 484.248 146.528C484.016 146.313 483.708 146.205 483.325 146.205C482.761 146.205 482.317 146.45 481.993 146.94C481.671 147.43 481.509 148.118 481.507 149.004H481.563C481.696 148.802 481.853 148.631 482.036 148.489C482.22 148.344 482.424 148.233 482.647 148.155C482.869 148.077 483.105 148.038 483.353 148.038C483.77 148.038 484.151 148.142 484.497 148.35C484.842 148.556 485.119 148.841 485.328 149.206C485.536 149.568 485.64 149.984 485.64 150.452C485.64 150.902 485.54 151.314 485.338 151.688C485.137 152.06 484.854 152.356 484.49 152.576C484.127 152.794 483.701 152.9 483.211 152.896ZM483.211 152.114C483.509 152.114 483.777 152.04 484.014 151.891C484.253 151.741 484.441 151.541 484.578 151.29C484.718 151.04 484.788 150.76 484.788 150.452C484.788 150.152 484.72 149.878 484.585 149.632C484.453 149.384 484.269 149.186 484.035 149.039C483.803 148.892 483.538 148.819 483.24 148.819C483.015 148.819 482.805 148.864 482.611 148.954C482.417 149.041 482.246 149.162 482.1 149.316C481.955 149.47 481.842 149.646 481.759 149.845C481.676 150.042 481.634 150.249 481.634 150.467C481.634 150.755 481.702 151.025 481.837 151.276C481.974 151.527 482.161 151.73 482.398 151.884C482.637 152.037 482.908 152.114 483.211 152.114ZM489.409 152.896C488.874 152.896 488.418 152.75 488.042 152.459C487.665 152.165 487.378 151.74 487.179 151.184C486.98 150.625 486.88 149.95 486.88 149.16C486.88 148.374 486.98 147.703 487.179 147.146C487.38 146.588 487.669 146.161 488.045 145.868C488.424 145.572 488.879 145.424 489.409 145.424C489.939 145.424 490.392 145.572 490.769 145.868C491.148 146.161 491.437 146.588 491.635 147.146C491.837 147.703 491.937 148.374 491.937 149.16C491.937 149.95 491.838 150.625 491.639 151.184C491.44 151.74 491.152 152.165 490.776 152.459C490.4 152.75 489.944 152.896 489.409 152.896ZM489.409 152.114C489.939 152.114 490.351 151.859 490.645 151.347C490.938 150.836 491.085 150.107 491.085 149.16C491.085 148.53 491.017 147.994 490.883 147.551C490.75 147.108 490.558 146.771 490.307 146.539C490.059 146.307 489.759 146.191 489.409 146.191C488.883 146.191 488.472 146.45 488.177 146.969C487.881 147.485 487.733 148.215 487.733 149.16C487.733 149.79 487.799 150.325 487.932 150.765C488.064 151.205 488.255 151.54 488.503 151.77C488.754 152 489.056 152.114 489.409 152.114Z" fill="black" fill-opacity="0.7"/>
<g opacity="0.2">
<rect opacity="0.8" x="560" y="6" width="18" height="334" fill="#8979FF"/>
</g>
<rect opacity="0.8" x="560" y="42.74" width="18" height="297.02" fill="#8979FF"/>
<path d="M565.459 56.0356C564.972 56.0356 564.541 55.9492 564.167 55.7764C563.795 55.6012 563.505 55.3609 563.297 55.0555C563.088 54.7477 562.985 54.3973 562.988 54.0043C562.985 53.6966 563.046 53.4125 563.169 53.1521C563.292 52.8893 563.46 52.6703 563.673 52.4951C563.889 52.3175 564.129 52.2051 564.394 52.1577V52.1151C564.046 52.0252 563.769 51.8299 563.563 51.5292C563.357 51.2262 563.255 50.8817 563.258 50.4958C563.255 50.1265 563.349 49.7962 563.538 49.505C563.728 49.2139 563.988 48.9842 564.319 48.8161C564.653 48.648 565.033 48.564 565.459 48.564C565.881 48.564 566.257 48.648 566.589 48.8161C566.92 48.9842 567.18 49.2139 567.37 49.505C567.562 49.7962 567.659 50.1265 567.661 50.4958C567.659 50.8817 567.553 51.2262 567.345 51.5292C567.139 51.8299 566.866 52.0252 566.525 52.1151V52.1577C566.787 52.2051 567.024 52.3175 567.235 52.4951C567.446 52.6703 567.614 52.8893 567.739 53.1521C567.865 53.4125 567.929 53.6966 567.931 54.0043C567.929 54.3973 567.822 54.7477 567.611 55.0555C567.403 55.3609 567.113 55.6012 566.741 55.7764C566.372 55.9492 565.945 56.0356 565.459 56.0356ZM565.459 55.2543C565.788 55.2543 566.073 55.2011 566.312 55.0945C566.551 54.988 566.735 54.8377 566.866 54.6435C566.996 54.4494 567.062 54.2221 567.064 53.9617C567.062 53.6871 566.991 53.4444 566.851 53.2337C566.712 53.023 566.521 52.8573 566.28 52.7366C566.041 52.6158 565.767 52.5555 565.459 52.5555C565.149 52.5555 564.872 52.6158 564.628 52.7366C564.387 52.8573 564.196 53.023 564.057 53.2337C563.919 53.4444 563.852 53.6871 563.854 53.9617C563.852 54.2221 563.915 54.4494 564.042 54.6435C564.173 54.8377 564.358 54.988 564.6 55.0945C564.841 55.2011 565.128 55.2543 565.459 55.2543ZM565.459 51.8026C565.72 51.8026 565.951 51.7506 566.152 51.6464C566.355 51.5422 566.515 51.3966 566.631 51.2096C566.747 51.0226 566.806 50.8036 566.809 50.5526C566.806 50.3064 566.748 50.0922 566.635 49.9099C566.521 49.7252 566.364 49.5832 566.162 49.4837C565.961 49.3819 565.727 49.331 565.459 49.331C565.187 49.331 564.949 49.3819 564.746 49.4837C564.542 49.5832 564.385 49.7252 564.273 49.9099C564.162 50.0922 564.108 50.3064 564.11 50.5526C564.108 50.8036 564.163 51.0226 564.277 51.2096C564.393 51.3966 564.553 51.5422 564.756 51.6464C564.96 51.7506 565.194 51.8026 565.459 51.8026ZM571.607 48.564C571.906 48.5664 572.204 48.6232 572.502 48.7345C572.8 48.8457 573.073 49.0304 573.319 49.2884C573.565 49.5441 573.763 49.8933 573.912 50.336C574.061 50.7787 574.136 51.3339 574.136 52.0015C574.136 52.6478 574.074 53.2219 573.951 53.7238C573.83 54.2233 573.655 54.6447 573.425 54.988C573.198 55.3313 572.921 55.5917 572.594 55.7693C572.27 55.9468 571.903 56.0356 571.494 56.0356C571.086 56.0356 570.723 55.9551 570.403 55.7941C570.086 55.6308 569.826 55.4047 569.622 55.1158C569.421 54.8247 569.292 54.4873 569.235 54.1038H570.102C570.18 54.4376 570.335 54.7134 570.567 54.9312C570.801 55.1466 571.11 55.2543 571.494 55.2543C572.055 55.2543 572.497 55.0093 572.822 54.5193C573.148 54.0292 573.312 53.3367 573.312 52.4418H573.255C573.122 52.6407 572.965 52.8123 572.783 52.9568C572.6 53.1012 572.398 53.2124 572.175 53.2906C571.953 53.3687 571.716 53.4077 571.465 53.4077C571.049 53.4077 570.666 53.3048 570.318 53.0988C569.973 52.8905 569.696 52.6052 569.487 52.243C569.281 51.8784 569.178 51.4617 569.178 50.993C569.178 50.5479 569.278 50.1407 569.477 49.7714C569.678 49.3997 569.96 49.1038 570.322 48.8836C570.686 48.6634 571.115 48.5569 571.607 48.564ZM571.607 49.3452C571.309 49.3452 571.04 49.4198 570.801 49.569C570.564 49.7157 570.376 49.9146 570.237 50.1656C570.099 50.4141 570.031 50.6899 570.031 50.993C570.031 51.296 570.097 51.5718 570.229 51.8204C570.364 52.0666 570.548 52.2631 570.78 52.4099C571.014 52.5543 571.281 52.6265 571.579 52.6265C571.804 52.6265 572.013 52.5827 572.207 52.4951C572.402 52.4051 572.571 52.2832 572.715 52.1293C572.862 51.9731 572.977 51.7967 573.06 51.6002C573.143 51.4014 573.184 51.1942 573.184 50.9788C573.184 50.6947 573.115 50.4283 572.978 50.1798C572.843 49.9312 572.656 49.73 572.417 49.5761C572.18 49.4222 571.91 49.3452 571.607 49.3452Z" fill="black" fill-opacity="0.7"/>
<g opacity="0.2">
<rect opacity="0.8" x="580.333" y="6" width="18" height="334" fill="#FF928A"/>
</g>
<rect opacity="0.8" x="580.333" y="36.0601" width="18" height="304.38" fill="#FF928A"/>
<path d="M586.362 41.8841C586.66 41.8864 586.958 41.9433 587.256 42.0545C587.555 42.1658 587.827 42.3504 588.073 42.6085C588.319 42.8642 588.517 43.2134 588.666 43.6561C588.815 44.0988 588.89 44.654 588.89 45.3216C588.89 45.9679 588.828 46.542 588.705 47.0439C588.585 47.5434 588.409 47.9648 588.18 48.3081C587.952 48.6513 587.675 48.9118 587.349 49.0893C587.024 49.2669 586.657 49.3557 586.248 49.3557C585.841 49.3557 585.477 49.2752 585.158 49.1142C584.84 48.9508 584.58 48.7247 584.376 48.4359C584.175 48.1447 584.046 47.8074 583.989 47.4238H584.856C584.934 47.7576 585.089 48.0335 585.321 48.2513C585.555 48.4667 585.864 48.5744 586.248 48.5744C586.809 48.5744 587.252 48.3294 587.576 47.8393C587.903 47.3493 588.066 46.6568 588.066 45.7619H588.009C587.877 45.9608 587.719 46.1324 587.537 46.2768C587.355 46.4212 587.152 46.5325 586.93 46.6106C586.707 46.6888 586.47 46.7278 586.219 46.7278C585.803 46.7278 585.42 46.6248 585.072 46.4189C584.727 46.2105 584.45 45.9253 584.241 45.563C584.036 45.1985 583.933 44.7818 583.933 44.313C583.933 43.868 584.032 43.4608 584.231 43.0915C584.432 42.7198 584.714 42.4238 585.076 42.2037C585.441 41.9835 585.869 41.877 586.362 41.8841ZM586.362 42.6653C586.063 42.6653 585.795 42.7399 585.555 42.889C585.319 43.0358 585.13 43.2347 584.991 43.4856C584.853 43.7342 584.785 44.01 584.785 44.313C584.785 44.6161 584.851 44.8919 584.984 45.1405C585.119 45.3867 585.302 45.5832 585.534 45.7299C585.768 45.8744 586.035 45.9466 586.333 45.9466C586.558 45.9466 586.768 45.9028 586.962 45.8152C587.156 45.7252 587.325 45.6033 587.469 45.4494C587.616 45.2932 587.731 45.1168 587.814 44.9203C587.897 44.7214 587.938 44.5143 587.938 44.2988C587.938 44.0147 587.87 43.7484 587.732 43.4998C587.597 43.2513 587.41 43.05 587.171 42.8961C586.934 42.7423 586.665 42.6653 586.362 42.6653ZM592.843 41.9835V49.2562H591.963V42.9068H591.92L590.144 44.0858V43.1909L591.963 41.9835H592.843Z" fill="black" fill-opacity="0.7"/>
<g opacity="0.2">
<rect opacity="0.8" x="600.667" y="6" width="18" height="334" fill="#3CC3DF"/>
</g>
<rect opacity="0.8" x="600.667" y="89.5" width="18" height="250.5" fill="#3CC3DF"/>
<path d="M604.315 102.696L607.568 96.2615V96.2047H603.818V95.4234H608.477V96.2473L605.238 102.696H604.315ZM611.976 102.796C611.559 102.796 611.184 102.713 610.85 102.547C610.516 102.381 610.249 102.154 610.048 101.865C609.846 101.576 609.736 101.247 609.717 100.878H610.57C610.603 101.207 610.752 101.479 611.017 101.695C611.285 101.908 611.604 102.014 611.976 102.014C612.274 102.014 612.539 101.945 612.771 101.805C613.006 101.665 613.189 101.473 613.322 101.23C613.457 100.983 613.524 100.705 613.524 100.395C613.524 100.078 613.454 99.7949 613.315 99.5463C613.177 99.2954 612.988 99.0977 612.746 98.9533C612.505 98.8089 612.229 98.7355 611.919 98.7331C611.697 98.7307 611.468 98.7651 611.234 98.8361C610.999 98.9047 610.806 98.9935 610.655 99.1024L609.831 99.003L610.271 95.4234H614.05V96.2047H611.01L610.754 98.3496H610.797C610.946 98.2312 611.133 98.133 611.358 98.0548C611.583 97.9767 611.817 97.9376 612.061 97.9376C612.506 97.9376 612.903 98.0442 613.251 98.2572C613.601 98.4679 613.876 98.7568 614.075 99.1237C614.276 99.4907 614.376 99.9097 614.376 100.381C614.376 100.845 614.272 101.259 614.064 101.624C613.858 101.986 613.574 102.272 613.212 102.483C612.849 102.691 612.438 102.796 611.976 102.796Z" fill="black" fill-opacity="0.7"/>
<g opacity="0.2">
<rect opacity="0.8" x="683" y="6" width="18" height="334" fill="#8979FF"/>
</g>
<rect opacity="0.8" x="683" y="229.78" width="18" height="109.94" fill="#8979FF"/>
<path d="M688.587 243.076C688.118 243.076 687.701 242.995 687.334 242.834C686.969 242.673 686.679 242.449 686.464 242.163C686.251 241.874 686.135 241.539 686.116 241.158H687.01C687.029 241.392 687.11 241.595 687.252 241.765C687.394 241.933 687.58 242.064 687.809 242.156C688.039 242.248 688.294 242.294 688.573 242.294C688.885 242.294 689.162 242.24 689.404 242.131C689.645 242.022 689.835 241.871 689.972 241.676C690.109 241.482 690.178 241.257 690.178 241.002C690.178 240.734 690.112 240.499 689.979 240.295C689.847 240.089 689.653 239.928 689.397 239.812C689.141 239.696 688.829 239.638 688.459 239.638H687.877V238.857H688.459C688.748 238.857 689.001 238.805 689.219 238.701C689.439 238.596 689.611 238.45 689.734 238.26C689.86 238.071 689.922 237.848 689.922 237.593C689.922 237.346 689.868 237.132 689.759 236.95C689.65 236.768 689.496 236.626 689.297 236.524C689.101 236.422 688.869 236.371 688.601 236.371C688.35 236.371 688.114 236.417 687.891 236.51C687.671 236.6 687.491 236.731 687.351 236.904C687.212 237.074 687.136 237.28 687.124 237.522H686.272C686.286 237.14 686.401 236.807 686.616 236.52C686.832 236.231 687.113 236.006 687.461 235.846C687.812 235.685 688.197 235.604 688.616 235.604C689.065 235.604 689.451 235.695 689.773 235.877C690.095 236.057 690.343 236.295 690.515 236.591C690.688 236.887 690.775 237.207 690.775 237.55C690.775 237.96 690.667 238.309 690.452 238.598C690.238 238.886 689.948 239.087 689.581 239.198V239.255C690.041 239.33 690.399 239.526 690.657 239.841C690.916 240.153 691.045 240.54 691.045 241.002C691.045 241.397 690.937 241.752 690.721 242.067C690.508 242.38 690.217 242.626 689.848 242.806C689.479 242.986 689.058 243.076 688.587 243.076ZM694.954 243.076C694.486 243.076 694.068 242.995 693.701 242.834C693.336 242.673 693.046 242.449 692.831 242.163C692.618 241.874 692.502 241.539 692.483 241.158H693.378C693.397 241.392 693.477 241.595 693.619 241.765C693.761 241.933 693.947 242.064 694.177 242.156C694.406 242.248 694.661 242.294 694.94 242.294C695.253 242.294 695.53 242.24 695.771 242.131C696.013 242.022 696.202 241.871 696.339 241.676C696.477 241.482 696.545 241.257 696.545 241.002C696.545 240.734 696.479 240.499 696.346 240.295C696.214 240.089 696.02 239.928 695.764 239.812C695.508 239.696 695.196 239.638 694.827 239.638H694.244V238.857H694.827C695.115 238.857 695.369 238.805 695.586 238.701C695.807 238.596 695.978 238.45 696.101 238.26C696.227 238.071 696.29 237.848 696.29 237.593C696.29 237.346 696.235 237.132 696.126 236.95C696.017 236.768 695.863 236.626 695.665 236.524C695.468 236.422 695.236 236.371 694.969 236.371C694.718 236.371 694.481 236.417 694.258 236.51C694.038 236.6 693.858 236.731 693.719 236.904C693.579 237.074 693.503 237.28 693.491 237.522H692.639C692.653 237.14 692.768 236.807 692.983 236.52C693.199 236.231 693.481 236.006 693.829 235.846C694.179 235.685 694.564 235.604 694.983 235.604C695.433 235.604 695.818 235.695 696.14 235.877C696.462 236.057 696.71 236.295 696.883 236.591C697.055 236.887 697.142 237.207 697.142 237.55C697.142 237.96 697.034 238.309 696.819 238.598C696.606 238.886 696.316 239.087 695.949 239.198V239.255C696.408 239.33 696.767 239.526 697.025 239.841C697.283 240.153 697.412 240.54 697.412 241.002C697.412 241.397 697.304 241.752 697.089 242.067C696.876 242.38 696.584 242.626 696.215 242.806C695.846 242.986 695.425 243.076 694.954 243.076Z" fill="black" fill-opacity="0.7"/>
<g opacity="0.2">
<rect opacity="0.8" x="703.333" y="6" width="18" height="334" fill="#FF928A"/>
</g>
<rect opacity="0.8" x="703.333" y="196.38" width="18" height="143.74" fill="#FF928A"/>
<path d="M706.293 208.085V207.36L709.489 202.303H710.014V203.426H709.659L707.244 207.247V207.303H711.548V208.085H706.293ZM709.716 209.576V207.865V207.527V202.303H710.554V209.576H709.716ZM715.337 209.676C714.868 209.676 714.45 209.595 714.083 209.434C713.718 209.273 713.428 209.049 713.213 208.763C713 208.474 712.884 208.139 712.865 207.758H713.76C713.779 207.992 713.859 208.195 714.001 208.365C714.143 208.533 714.329 208.664 714.559 208.756C714.789 208.848 715.043 208.894 715.322 208.894C715.635 208.894 715.912 208.84 716.153 208.731C716.395 208.622 716.584 208.471 716.722 208.276C716.859 208.082 716.927 207.857 716.927 207.602C716.927 207.334 716.861 207.099 716.729 206.895C716.596 206.689 716.402 206.528 716.146 206.412C715.891 206.296 715.578 206.238 715.209 206.238H714.626V205.457H715.209C715.498 205.457 715.751 205.405 715.969 205.301C716.189 205.196 716.36 205.05 716.484 204.86C716.609 204.671 716.672 204.448 716.672 204.193C716.672 203.946 716.617 203.732 716.508 203.55C716.4 203.368 716.246 203.226 716.047 203.124C715.85 203.022 715.618 202.971 715.351 202.971C715.1 202.971 714.863 203.017 714.641 203.11C714.42 203.2 714.24 203.331 714.101 203.504C713.961 203.674 713.885 203.88 713.874 204.122H713.021C713.035 203.74 713.15 203.407 713.366 203.12C713.581 202.831 713.863 202.606 714.211 202.445C714.561 202.285 714.946 202.204 715.365 202.204C715.815 202.204 716.201 202.295 716.523 202.477C716.845 202.657 717.092 202.895 717.265 203.191C717.438 203.487 717.524 203.807 717.524 204.15C717.524 204.56 717.416 204.909 717.201 205.198C716.988 205.486 716.698 205.686 716.331 205.798V205.855C716.79 205.93 717.149 206.126 717.407 206.441C717.665 206.753 717.794 207.14 717.794 207.602C717.794 207.997 717.686 208.352 717.471 208.667C717.258 208.98 716.967 209.226 716.597 209.406C716.228 209.586 715.808 209.676 715.337 209.676Z" fill="black" fill-opacity="0.7"/>
<g opacity="0.2">
<rect opacity="0.8" x="723.667" y="6" width="18" height="334" fill="#3CC3DF"/>
</g>
<rect opacity="0.8" x="723.667" y="243.14" width="18" height="97.22" fill="#3CC3DF"/>
<path d="M726.796 256.336V255.697L729.197 253.069C729.479 252.761 729.711 252.494 729.893 252.267C730.075 252.037 730.21 251.822 730.298 251.62C730.388 251.417 730.433 251.204 730.433 250.981C730.433 250.725 730.371 250.504 730.248 250.317C730.127 250.13 729.962 249.986 729.751 249.884C729.54 249.782 729.304 249.731 729.041 249.731C728.761 249.731 728.518 249.789 728.309 249.905C728.103 250.019 727.943 250.179 727.83 250.384C727.719 250.59 727.663 250.832 727.663 251.109H726.825C726.825 250.683 726.923 250.309 727.12 249.987C727.316 249.665 727.584 249.414 727.922 249.234C728.263 249.054 728.645 248.964 729.069 248.964C729.495 248.964 729.873 249.054 730.202 249.234C730.531 249.414 730.789 249.656 730.976 249.962C731.163 250.267 731.257 250.607 731.257 250.981C731.257 251.249 731.208 251.51 731.111 251.766C731.016 252.019 730.851 252.302 730.614 252.615C730.38 252.925 730.054 253.304 729.637 253.751L728.004 255.498V255.555H731.384V256.336H726.796ZM735.166 248.964C735.465 248.966 735.763 249.023 736.061 249.134C736.36 249.246 736.632 249.43 736.878 249.688C737.124 249.944 737.322 250.293 737.471 250.736C737.62 251.179 737.695 251.734 737.695 252.402C737.695 253.048 737.633 253.622 737.51 254.124C737.389 254.623 737.214 255.045 736.985 255.388C736.757 255.731 736.48 255.992 736.154 256.169C735.829 256.347 735.462 256.436 735.053 256.436C734.646 256.436 734.282 256.355 733.963 256.194C733.645 256.031 733.385 255.805 733.181 255.516C732.98 255.225 732.851 254.887 732.794 254.504H733.661C733.739 254.838 733.894 255.113 734.126 255.331C734.36 255.547 734.669 255.654 735.053 255.654C735.614 255.654 736.057 255.409 736.381 254.919C736.708 254.429 736.871 253.737 736.871 252.842H736.814C736.682 253.041 736.524 253.212 736.342 253.357C736.16 253.501 735.957 253.612 735.735 253.691C735.512 253.769 735.275 253.808 735.024 253.808C734.608 253.808 734.225 253.705 733.877 253.499C733.532 253.29 733.255 253.005 733.046 252.643C732.84 252.278 732.737 251.862 732.737 251.393C732.737 250.948 732.837 250.541 733.036 250.171C733.237 249.8 733.519 249.504 733.881 249.284C734.246 249.063 734.674 248.957 735.166 248.964ZM735.166 249.745C734.868 249.745 734.599 249.82 734.36 249.969C734.124 250.116 733.935 250.315 733.796 250.566C733.658 250.814 733.59 251.09 733.59 251.393C733.59 251.696 733.656 251.972 733.789 252.22C733.924 252.467 734.107 252.663 734.339 252.81C734.573 252.954 734.84 253.027 735.138 253.027C735.363 253.027 735.572 252.983 735.767 252.895C735.961 252.805 736.13 252.683 736.274 252.529C736.421 252.373 736.536 252.197 736.619 252C736.702 251.801 736.743 251.594 736.743 251.379C736.743 251.095 736.674 250.828 736.537 250.58C736.402 250.331 736.215 250.13 735.976 249.976C735.739 249.822 735.469 249.745 735.166 249.745Z" fill="black" fill-opacity="0.7"/>
<path d="M85.9383 350.455C85.8871 350.023 85.6797 349.688 85.3161 349.449C84.9525 349.21 84.5065 349.091 83.978 349.091C83.5917 349.091 83.2536 349.153 82.9638 349.278C82.6769 349.403 82.4525 349.575 82.2905 349.794C82.1315 350.013 82.0519 350.261 82.0519 350.54C82.0519 350.773 82.1073 350.973 82.2181 351.141C82.3317 351.305 82.4766 351.443 82.6528 351.554C82.8289 351.662 83.0136 351.751 83.2067 351.822C83.3999 351.891 83.5775 351.946 83.7394 351.989L84.6258 352.227C84.853 352.287 85.1059 352.369 85.3843 352.474C85.6655 352.58 85.934 352.723 86.1897 352.905C86.4482 353.084 86.6613 353.314 86.8289 353.595C86.9965 353.876 87.0803 354.222 87.0803 354.631C87.0803 355.102 86.9567 355.528 86.7096 355.909C86.4653 356.29 86.1073 356.592 85.6357 356.817C85.167 357.041 84.5974 357.153 83.9269 357.153C83.3019 357.153 82.7607 357.053 82.3033 356.851C81.8488 356.649 81.4908 356.368 81.2295 356.007C80.9709 355.646 80.8246 355.227 80.7905 354.75H81.8815C81.9099 355.08 82.0207 355.352 82.2138 355.568C82.4099 355.781 82.657 355.94 82.9553 356.045C83.2565 356.148 83.5803 356.199 83.9269 356.199C84.3303 356.199 84.6925 356.134 85.0136 356.003C85.3346 355.869 85.5888 355.685 85.7763 355.449C85.9638 355.21 86.0576 354.932 86.0576 354.614C86.0576 354.324 85.9766 354.088 85.8147 353.906C85.6528 353.724 85.4397 353.577 85.1755 353.463C84.9113 353.349 84.6258 353.25 84.319 353.165L83.2451 352.858C82.5633 352.662 82.0235 352.382 81.6258 352.018C81.228 351.655 81.0292 351.179 81.0292 350.591C81.0292 350.102 81.1613 349.676 81.4255 349.312C81.6925 348.946 82.0505 348.662 82.4993 348.46C82.9511 348.256 83.4553 348.153 84.0121 348.153C84.5746 348.153 85.0746 348.254 85.5121 348.456C85.9496 348.655 86.2962 348.928 86.5519 349.274C86.8104 349.621 86.9468 350.014 86.961 350.455H85.9383ZM91.4258 357.136C90.7952 357.136 90.2511 356.997 89.7937 356.719C89.3392 356.438 88.9883 356.045 88.7412 355.543C88.4969 355.037 88.3747 354.449 88.3747 353.778C88.3747 353.108 88.4969 352.517 88.7412 352.006C88.9883 351.491 89.3321 351.091 89.7724 350.804C90.2156 350.514 90.7327 350.369 91.3236 350.369C91.6645 350.369 92.0011 350.426 92.3335 350.54C92.6659 350.653 92.9685 350.838 93.2412 351.094C93.5139 351.347 93.7312 351.682 93.8932 352.099C94.0551 352.517 94.1361 353.031 94.1361 353.642V354.068H89.0906V353.199H93.1133C93.1133 352.83 93.0395 352.5 92.8917 352.21C92.7469 351.92 92.5395 351.692 92.2696 351.524C92.0025 351.357 91.6872 351.273 91.3236 351.273C90.923 351.273 90.5764 351.372 90.2838 351.571C89.994 351.767 89.771 352.023 89.6148 352.338C89.4585 352.653 89.3804 352.991 89.3804 353.352V353.932C89.3804 354.426 89.4656 354.845 89.6361 355.189C89.8094 355.53 90.0494 355.79 90.3562 355.969C90.6631 356.145 91.0196 356.233 91.4258 356.233C91.69 356.233 91.9287 356.196 92.1417 356.122C92.3577 356.045 92.5437 355.932 92.7 355.781C92.8562 355.628 92.977 355.437 93.0622 355.21L94.0338 355.483C93.9315 355.812 93.7596 356.102 93.5182 356.352C93.2767 356.599 92.9784 356.793 92.6233 356.932C92.2682 357.068 91.869 357.136 91.4258 357.136ZM95.6659 359.455V350.455H96.6375V351.494H96.7568C96.8307 351.381 96.9329 351.236 97.0636 351.06C97.1971 350.881 97.3875 350.722 97.6346 350.582C97.8846 350.44 98.2227 350.369 98.6488 350.369C99.2 350.369 99.6858 350.507 100.106 350.783C100.527 351.058 100.855 351.449 101.091 351.955C101.326 352.46 101.444 353.057 101.444 353.744C101.444 354.438 101.326 355.038 101.091 355.547C100.855 356.053 100.528 356.445 100.11 356.723C99.6929 356.999 99.2113 357.136 98.6659 357.136C98.2454 357.136 97.9088 357.067 97.6559 356.928C97.4031 356.786 97.2085 356.625 97.0721 356.446C96.9358 356.264 96.8307 356.114 96.7568 355.994H96.6716V359.455H95.6659ZM96.6545 353.727C96.6545 354.222 96.727 354.658 96.8719 355.036C97.0167 355.411 97.2284 355.705 97.5068 355.918C97.7852 356.128 98.1261 356.233 98.5295 356.233C98.95 356.233 99.3008 356.122 99.5821 355.901C99.8662 355.676 100.079 355.375 100.221 354.997C100.366 354.616 100.439 354.193 100.439 353.727C100.439 353.267 100.368 352.852 100.226 352.483C100.086 352.111 99.8747 351.817 99.5906 351.601C99.3094 351.382 98.9557 351.273 98.5295 351.273C98.1204 351.273 97.7767 351.376 97.4983 351.584C97.2199 351.788 97.0096 352.075 96.8676 352.445C96.7256 352.811 96.6545 353.239 96.6545 353.727Z" fill="black" fill-opacity="0.7"/>
<path d="M213.569 352.636C213.569 353.557 213.403 354.352 213.07 355.023C212.738 355.693 212.282 356.21 211.702 356.574C211.123 356.938 210.461 357.119 209.717 357.119C208.972 357.119 208.31 356.938 207.731 356.574C207.151 356.21 206.695 355.693 206.363 355.023C206.03 354.352 205.864 353.557 205.864 352.636C205.864 351.716 206.03 350.92 206.363 350.25C206.695 349.58 207.151 349.062 207.731 348.699C208.31 348.335 208.972 348.153 209.717 348.153C210.461 348.153 211.123 348.335 211.702 348.699C212.282 349.062 212.738 349.58 213.07 350.25C213.403 350.92 213.569 351.716 213.569 352.636ZM212.546 352.636C212.546 351.881 212.42 351.243 212.167 350.723C211.917 350.203 211.577 349.81 211.148 349.543C210.722 349.276 210.245 349.142 209.717 349.142C209.188 349.142 208.709 349.276 208.28 349.543C207.854 349.81 207.515 350.203 207.262 350.723C207.012 351.243 206.887 351.881 206.887 352.636C206.887 353.392 207.012 354.03 207.262 354.55C207.515 355.07 207.854 355.463 208.28 355.73C208.709 355.997 209.188 356.131 209.717 356.131C210.245 356.131 210.722 355.997 211.148 355.73C211.577 355.463 211.917 355.07 212.167 354.55C212.42 354.03 212.546 353.392 212.546 352.636ZM217.869 357.136C217.255 357.136 216.727 356.991 216.283 356.702C215.84 356.412 215.499 356.013 215.261 355.504C215.022 354.996 214.903 354.415 214.903 353.761C214.903 353.097 215.025 352.51 215.269 352.001C215.516 351.49 215.86 351.091 216.3 350.804C216.744 350.514 217.261 350.369 217.852 350.369C218.312 350.369 218.727 350.455 219.096 350.625C219.465 350.795 219.768 351.034 220.004 351.341C220.239 351.648 220.386 352.006 220.442 352.415H219.437C219.36 352.116 219.19 351.852 218.925 351.622C218.664 351.389 218.312 351.273 217.869 351.273C217.477 351.273 217.133 351.375 216.837 351.58C216.545 351.781 216.316 352.067 216.151 352.436C215.989 352.803 215.908 353.233 215.908 353.727C215.908 354.233 215.988 354.673 216.147 355.048C216.309 355.423 216.536 355.714 216.829 355.922C217.124 356.129 217.471 356.233 217.869 356.233C218.13 356.233 218.367 356.188 218.58 356.097C218.793 356.006 218.974 355.875 219.121 355.705C219.269 355.534 219.374 355.33 219.437 355.091H220.442C220.386 355.477 220.245 355.825 220.021 356.135C219.799 356.442 219.505 356.686 219.138 356.868C218.775 357.047 218.352 357.136 217.869 357.136ZM224.759 350.455V351.307H221.367V350.455H224.759ZM222.356 348.886H223.361V355.125C223.361 355.409 223.403 355.622 223.485 355.764C223.57 355.903 223.678 355.997 223.809 356.045C223.942 356.091 224.083 356.114 224.231 356.114C224.342 356.114 224.432 356.108 224.504 356.097C224.575 356.082 224.631 356.071 224.674 356.062L224.879 356.966C224.81 356.991 224.715 357.017 224.593 357.043C224.471 357.071 224.316 357.085 224.129 357.085C223.844 357.085 223.566 357.024 223.293 356.902C223.023 356.78 222.799 356.594 222.62 356.344C222.444 356.094 222.356 355.778 222.356 355.398V348.886Z" fill="black" fill-opacity="0.7"/>
<path d="M336.074 348.273V357H335.051L330.295 350.148H330.21V357H329.153V348.273H330.176L334.949 355.142H335.034V348.273H336.074ZM340.711 357.136C340.12 357.136 339.602 356.996 339.156 356.714C338.712 356.433 338.366 356.04 338.116 355.534C337.869 355.028 337.745 354.437 337.745 353.761C337.745 353.08 337.869 352.484 338.116 351.976C338.366 351.467 338.712 351.072 339.156 350.791C339.602 350.51 340.12 350.369 340.711 350.369C341.302 350.369 341.819 350.51 342.262 350.791C342.708 351.072 343.055 351.467 343.302 351.976C343.552 352.484 343.677 353.08 343.677 353.761C343.677 354.437 343.552 355.028 343.302 355.534C343.055 356.04 342.708 356.433 342.262 356.714C341.819 356.996 341.302 357.136 340.711 357.136ZM340.711 356.233C341.16 356.233 341.529 356.118 341.819 355.888C342.109 355.658 342.323 355.355 342.462 354.98C342.602 354.605 342.671 354.199 342.671 353.761C342.671 353.324 342.602 352.916 342.462 352.538C342.323 352.161 342.109 351.855 341.819 351.622C341.529 351.389 341.16 351.273 340.711 351.273C340.262 351.273 339.893 351.389 339.603 351.622C339.313 351.855 339.099 352.161 338.96 352.538C338.82 352.916 338.751 353.324 338.751 353.761C338.751 354.199 338.82 354.605 338.96 354.98C339.099 355.355 339.313 355.658 339.603 355.888C339.893 356.118 340.262 356.233 340.711 356.233ZM350.33 350.455L347.91 357H346.887L344.466 350.455H345.557L347.364 355.67H347.432L349.239 350.455H350.33Z" fill="black" fill-opacity="0.7"/>
<path d="M456.177 357H453.484V348.273H456.296C457.143 348.273 457.867 348.447 458.47 348.797C459.072 349.143 459.534 349.642 459.855 350.293C460.176 350.94 460.336 351.716 460.336 352.619C460.336 353.528 460.174 354.311 459.85 354.967C459.527 355.621 459.055 356.124 458.436 356.476C457.816 356.825 457.063 357 456.177 357ZM454.541 356.062H456.109C456.83 356.062 457.429 355.923 457.903 355.645C458.377 355.366 458.731 354.97 458.964 354.456C459.197 353.942 459.313 353.33 459.313 352.619C459.313 351.915 459.198 351.308 458.968 350.8C458.738 350.288 458.394 349.896 457.937 349.624C457.48 349.348 456.91 349.21 456.228 349.21H454.541V356.062ZM464.717 357.136C464.086 357.136 463.542 356.997 463.085 356.719C462.63 356.438 462.279 356.045 462.032 355.543C461.788 355.037 461.666 354.449 461.666 353.778C461.666 353.108 461.788 352.517 462.032 352.006C462.279 351.491 462.623 351.091 463.063 350.804C463.507 350.514 464.024 350.369 464.615 350.369C464.955 350.369 465.292 350.426 465.625 350.54C465.957 350.653 466.259 350.838 466.532 351.094C466.805 351.347 467.022 351.682 467.184 352.099C467.346 352.517 467.427 353.031 467.427 353.642V354.068H462.382V353.199H466.404C466.404 352.83 466.33 352.5 466.183 352.21C466.038 351.92 465.83 351.692 465.561 351.524C465.294 351.357 464.978 351.273 464.615 351.273C464.214 351.273 463.867 351.372 463.575 351.571C463.285 351.767 463.062 352.023 462.906 352.338C462.75 352.653 462.671 352.991 462.671 353.352V353.932C462.671 354.426 462.757 354.845 462.927 355.189C463.1 355.53 463.34 355.79 463.647 355.969C463.954 356.145 464.311 356.233 464.717 356.233C464.981 356.233 465.22 356.196 465.433 356.122C465.649 356.045 465.835 355.932 465.991 355.781C466.147 355.628 466.268 355.437 466.353 355.21L467.325 355.483C467.223 355.812 467.051 356.102 466.809 356.352C466.568 356.599 466.269 356.793 465.914 356.932C465.559 357.068 465.16 357.136 464.717 357.136ZM471.616 357.136C471.002 357.136 470.474 356.991 470.031 356.702C469.588 356.412 469.247 356.013 469.008 355.504C468.769 354.996 468.65 354.415 468.65 353.761C468.65 353.097 468.772 352.51 469.017 352.001C469.264 351.49 469.607 351.091 470.048 350.804C470.491 350.514 471.008 350.369 471.599 350.369C472.059 350.369 472.474 350.455 472.843 350.625C473.213 350.795 473.515 351.034 473.751 351.341C473.987 351.648 474.133 352.006 474.19 352.415H473.184C473.107 352.116 472.937 351.852 472.673 351.622C472.411 351.389 472.059 351.273 471.616 351.273C471.224 351.273 470.88 351.375 470.585 351.58C470.292 351.781 470.063 352.067 469.899 352.436C469.737 352.803 469.656 353.233 469.656 353.727C469.656 354.233 469.735 354.673 469.894 355.048C470.056 355.423 470.284 355.714 470.576 355.922C470.872 356.129 471.218 356.233 471.616 356.233C471.877 356.233 472.115 356.188 472.328 356.097C472.541 356.006 472.721 355.875 472.869 355.705C473.017 355.534 473.122 355.33 473.184 355.091H474.19C474.133 355.477 473.992 355.825 473.768 356.135C473.546 356.442 473.252 356.686 472.886 356.868C472.522 357.047 472.099 357.136 471.616 357.136Z" fill="black" fill-opacity="0.7"/>
<path d="M581.999 348.273H583.056V354.511C583.056 355.068 582.954 355.541 582.749 355.93C582.545 356.32 582.256 356.615 581.884 356.817C581.512 357.018 581.073 357.119 580.567 357.119C580.09 357.119 579.665 357.033 579.293 356.859C578.921 356.683 578.629 356.433 578.415 356.109C578.202 355.786 578.096 355.401 578.096 354.955H579.136C579.136 355.202 579.197 355.418 579.319 355.602C579.444 355.784 579.614 355.926 579.83 356.028C580.046 356.131 580.292 356.182 580.567 356.182C580.871 356.182 581.13 356.118 581.343 355.99C581.556 355.862 581.718 355.675 581.829 355.428C581.942 355.178 581.999 354.872 581.999 354.511V348.273ZM586.964 357.153C586.549 357.153 586.173 357.075 585.834 356.919C585.496 356.76 585.228 356.531 585.029 356.233C584.83 355.932 584.731 355.568 584.731 355.142C584.731 354.767 584.805 354.463 584.952 354.23C585.1 353.994 585.298 353.81 585.545 353.676C585.792 353.543 586.065 353.443 586.363 353.378C586.664 353.31 586.967 353.256 587.271 353.216C587.668 353.165 587.991 353.126 588.238 353.101C588.488 353.072 588.67 353.026 588.783 352.96C588.9 352.895 588.958 352.781 588.958 352.619V352.585C588.958 352.165 588.843 351.838 588.613 351.605C588.386 351.372 588.04 351.256 587.577 351.256C587.097 351.256 586.721 351.361 586.448 351.571C586.175 351.781 585.984 352.006 585.873 352.244L584.918 351.903C585.089 351.506 585.316 351.196 585.6 350.974C585.887 350.75 586.2 350.594 586.538 350.506C586.879 350.415 587.214 350.369 587.543 350.369C587.754 350.369 587.995 350.395 588.268 350.446C588.543 350.494 588.809 350.595 589.065 350.749C589.323 350.902 589.538 351.134 589.708 351.443C589.879 351.753 589.964 352.168 589.964 352.688V357H588.958V356.114H588.907C588.839 356.256 588.725 356.408 588.566 356.57C588.407 356.732 588.195 356.869 587.931 356.983C587.667 357.097 587.344 357.153 586.964 357.153ZM587.117 356.25C587.515 356.25 587.85 356.172 588.123 356.016C588.398 355.859 588.606 355.658 588.745 355.411C588.887 355.163 588.958 354.903 588.958 354.631V353.71C588.915 353.761 588.822 353.808 588.677 353.851C588.535 353.891 588.37 353.926 588.182 353.957C587.998 353.986 587.817 354.011 587.641 354.034C587.468 354.054 587.327 354.071 587.219 354.085C586.958 354.119 586.714 354.175 586.486 354.251C586.262 354.325 586.08 354.437 585.941 354.588C585.805 354.736 585.736 354.937 585.736 355.193C585.736 355.543 585.866 355.807 586.124 355.986C586.386 356.162 586.717 356.25 587.117 356.25ZM592.805 353.062V357H591.799V350.455H592.771V351.477H592.856C593.01 351.145 593.243 350.878 593.555 350.676C593.868 350.472 594.271 350.369 594.765 350.369C595.208 350.369 595.596 350.46 595.929 350.642C596.261 350.821 596.519 351.094 596.704 351.46C596.889 351.824 596.981 352.284 596.981 352.841V357H595.975V352.909C595.975 352.395 595.842 351.994 595.575 351.707C595.308 351.418 594.941 351.273 594.475 351.273C594.154 351.273 593.868 351.342 593.615 351.482C593.365 351.621 593.167 351.824 593.022 352.091C592.877 352.358 592.805 352.682 592.805 353.062Z" fill="black" fill-opacity="0.7"/>
<path d="M702.473 357V348.273H707.706V349.21H703.53V352.159H707.314V353.097H703.53V357H702.473ZM711.644 357.136C711.013 357.136 710.469 356.997 710.012 356.719C709.557 356.438 709.206 356.045 708.959 355.543C708.715 355.037 708.593 354.449 708.593 353.778C708.593 353.108 708.715 352.517 708.959 352.006C709.206 351.491 709.55 351.091 709.99 350.804C710.434 350.514 710.951 350.369 711.542 350.369C711.882 350.369 712.219 350.426 712.552 350.54C712.884 350.653 713.186 350.838 713.459 351.094C713.732 351.347 713.949 351.682 714.111 352.099C714.273 352.517 714.354 353.031 714.354 353.642V354.068H709.309V353.199H713.331C713.331 352.83 713.257 352.5 713.11 352.21C712.965 351.92 712.757 351.692 712.488 351.524C712.221 351.357 711.905 351.273 711.542 351.273C711.141 351.273 710.794 351.372 710.502 351.571C710.212 351.767 709.989 352.023 709.833 352.338C709.677 352.653 709.598 352.991 709.598 353.352V353.932C709.598 354.426 709.684 354.845 709.854 355.189C710.027 355.53 710.267 355.79 710.574 355.969C710.881 356.145 711.238 356.233 711.644 356.233C711.908 356.233 712.147 356.196 712.36 356.122C712.576 356.045 712.762 355.932 712.918 355.781C713.074 355.628 713.195 355.437 713.28 355.21L714.252 355.483C714.15 355.812 713.978 356.102 713.736 356.352C713.495 356.599 713.196 356.793 712.841 356.932C712.486 357.068 712.087 357.136 711.644 357.136ZM716.02 357V348.273H717.026V351.494H717.111C717.185 351.381 717.287 351.236 717.418 351.06C717.552 350.881 717.742 350.722 717.989 350.582C718.239 350.44 718.577 350.369 719.003 350.369C719.554 350.369 720.04 350.507 720.461 350.783C720.881 351.058 721.209 351.449 721.445 351.955C721.681 352.46 721.799 353.057 721.799 353.744C721.799 354.438 721.681 355.038 721.445 355.547C721.209 356.053 720.882 356.445 720.465 356.723C720.047 356.999 719.566 357.136 719.02 357.136C718.6 357.136 718.263 357.067 718.01 356.928C717.757 356.786 717.563 356.625 717.427 356.446C717.29 356.264 717.185 356.114 717.111 355.994H716.992V357H716.02ZM717.009 353.727C717.009 354.222 717.081 354.658 717.226 355.036C717.371 355.411 717.583 355.705 717.861 355.918C718.14 356.128 718.481 356.233 718.884 356.233C719.304 356.233 719.655 356.122 719.936 355.901C720.221 355.676 720.434 355.375 720.576 354.997C720.721 354.616 720.793 354.193 720.793 353.727C720.793 353.267 720.722 352.852 720.58 352.483C720.441 352.111 720.229 351.817 719.945 351.601C719.664 351.382 719.31 351.273 718.884 351.273C718.475 351.273 718.131 351.376 717.853 351.584C717.574 351.788 717.364 352.075 717.222 352.445C717.08 352.811 717.009 353.239 717.009 353.727Z" fill="black" fill-opacity="0.7"/>
</svg>
