<svg width="749" height="291" viewBox="0 0 749 291" fill="none" xmlns="http://www.w3.org/2000/svg">
<rect x="86.9408" y="53.2065" width="0.916594" height="171.531" rx="0.458297" fill="#F3F2F7"/>
<rect x="142.658" y="53.2065" width="0.916594" height="171.531" rx="0.458297" fill="#F3F2F7"/>
<rect x="198.375" y="53.2065" width="0.916594" height="171.531" rx="0.458297" fill="#F3F2F7"/>
<rect x="254.092" y="53.2065" width="0.916594" height="171.531" rx="0.458297" fill="#F3F2F7"/>
<rect x="310.775" y="53.2065" width="0.916594" height="171.531" rx="0.458297" fill="#F3F2F7"/>
<rect x="422.208" y="53.2065" width="0.916594" height="171.531" rx="0.458297" fill="#F3F2F7"/>
<rect x="474.065" y="53.2065" width="0.916594" height="171.531" rx="0.458297" fill="#F3F2F7"/>
<rect x="533.642" y="53.2065" width="0.916594" height="171.531" rx="0.458297" fill="#F3F2F7"/>
<rect x="641.216" y="53.2065" width="0.916594" height="171.531" rx="0.458297" fill="#F3F2F7"/>
<rect x="696.933" y="53.2065" width="0.916594" height="171.531" rx="0.458297" fill="#F3F2F7"/>
<path d="M367.867 224.738V75.0449" stroke="#2D9CDB" stroke-miterlimit="4.62023" stroke-linecap="round" stroke-dasharray="7 7"/>
<path d="M90.3436 216.002C93.5517 198.796 120.225 167.164 201.252 178.281C302.535 192.179 316.284 70.6774 389.612 74.648C462.939 78.6187 462.481 206.473 577.972 166.767C670.365 135.001 729.821 141.09 748 148.105" stroke="#2D9CDB" stroke-width="3"/>
<path d="M368.325 80.9128C371.982 80.9128 375.325 78.3027 375.325 74.6481C375.325 70.9934 371.982 68.3833 368.325 68.3833C364.668 68.3833 361.325 70.9934 361.325 74.6481C361.325 78.3027 364.668 80.9128 368.325 80.9128Z" fill="#2D9CDB" stroke="white" stroke-width="3"/>
<path d="M591.194 227.12V53.2065" stroke="#2D9CDB" stroke-miterlimit="4.62023" stroke-linecap="round" stroke-dasharray="7 7"/>
<path d="M615.913 15.768C615.904 15.7867 615.904 15.8053 615.913 15.824C615.922 15.8333 615.936 15.838 615.955 15.838H620.169C620.262 15.838 620.309 15.8847 620.309 15.978V16.86C620.309 16.9533 620.262 17 620.169 17H614.303C614.21 17 614.163 16.9533 614.163 16.86V16.006C614.163 15.9407 614.186 15.8847 614.233 15.838C614.55 15.474 615.278 14.62 616.417 13.276L617.383 12.114C618.251 11.078 618.685 10.2753 618.685 9.706C618.685 9.26733 618.536 8.91733 618.237 8.656C617.948 8.38533 617.56 8.25 617.075 8.25C616.59 8.25 616.202 8.38533 615.913 8.656C615.624 8.92667 615.484 9.28133 615.493 9.72V10.14C615.493 10.2333 615.446 10.28 615.353 10.28H614.275C614.182 10.28 614.135 10.2333 614.135 10.14V9.538C614.154 9.05267 614.289 8.62333 614.541 8.25C614.802 7.87667 615.152 7.592 615.591 7.396C616.03 7.19067 616.524 7.088 617.075 7.088C617.672 7.088 618.195 7.2 618.643 7.424C619.091 7.648 619.436 7.956 619.679 8.348C619.922 8.74 620.043 9.18333 620.043 9.678C620.043 10.4527 619.623 11.3673 618.783 12.422C618.41 12.898 617.966 13.4347 617.453 14.032C616.94 14.62 616.426 15.1987 615.913 15.768ZM624.97 17.14C624.027 17.14 623.276 16.874 622.716 16.342C622.165 15.8007 621.89 15.0773 621.89 14.172V10.028C621.89 9.12267 622.165 8.404 622.716 7.872C623.276 7.34 624.027 7.074 624.97 7.074C625.913 7.074 626.664 7.34 627.224 7.872C627.793 8.404 628.078 9.12267 628.078 10.028V14.172C628.078 15.0773 627.793 15.8007 627.224 16.342C626.664 16.874 625.913 17.14 624.97 17.14ZM624.97 15.978C625.511 15.978 625.941 15.824 626.258 15.516C626.575 15.1987 626.734 14.7787 626.734 14.256V9.972C626.734 9.44933 626.575 9.034 626.258 8.726C625.941 8.40867 625.511 8.25 624.97 8.25C624.447 8.25 624.027 8.40867 623.71 8.726C623.393 9.034 623.234 9.44933 623.234 9.972V14.256C623.234 14.7787 623.393 15.1987 623.71 15.516C624.027 15.824 624.447 15.978 624.97 15.978ZM631.017 7.242C631.073 7.214 631.134 7.2 631.199 7.2H632.305C632.399 7.2 632.445 7.24667 632.445 7.34V16.86C632.445 16.9533 632.399 17 632.305 17H631.241C631.148 17 631.101 16.9533 631.101 16.86V8.642C631.101 8.62333 631.092 8.60933 631.073 8.6C631.064 8.59067 631.05 8.59067 631.031 8.6L629.561 9.104C629.543 9.11333 629.519 9.118 629.491 9.118C629.435 9.118 629.403 9.08067 629.393 9.006L629.337 8.208C629.337 8.11467 629.365 8.05867 629.421 8.04L631.017 7.242ZM639.873 12.17C640.135 12.6647 640.265 13.2573 640.265 13.948C640.265 14.5173 640.172 15.0167 639.985 15.446C639.771 15.978 639.435 16.3887 638.977 16.678C638.529 16.958 637.983 17.098 637.339 17.098C636.649 17.098 636.061 16.9393 635.575 16.622C635.099 16.3047 634.763 15.8567 634.567 15.278C634.427 14.886 634.357 14.4333 634.357 13.92V9.608C634.357 8.84267 634.623 8.23133 635.155 7.774C635.687 7.31667 636.383 7.088 637.241 7.088C637.792 7.088 638.277 7.19067 638.697 7.396C639.127 7.60133 639.458 7.89067 639.691 8.264C639.925 8.628 640.041 9.048 640.041 9.524V9.804C640.041 9.89733 639.995 9.944 639.901 9.944H638.837C638.744 9.944 638.697 9.89733 638.697 9.804V9.678C638.697 9.258 638.562 8.91733 638.291 8.656C638.021 8.39467 637.671 8.264 637.241 8.264C636.784 8.264 636.411 8.39933 636.121 8.67C635.841 8.94067 635.701 9.3 635.701 9.748V11.512C635.701 11.5307 635.706 11.5447 635.715 11.554C635.734 11.554 635.753 11.5447 635.771 11.526C636.173 11.078 636.756 10.854 637.521 10.854C638.623 10.854 639.407 11.2927 639.873 12.17ZM638.711 15.026C638.851 14.7273 638.921 14.368 638.921 13.948C638.921 13.472 638.837 13.0893 638.669 12.8C638.399 12.2587 637.941 11.988 637.297 11.988C636.971 11.988 636.691 12.0627 636.457 12.212C636.224 12.352 636.047 12.5573 635.925 12.828C635.776 13.136 635.701 13.5327 635.701 14.018C635.701 14.41 635.762 14.7413 635.883 15.012C636.005 15.3107 636.187 15.5393 636.429 15.698C636.672 15.8473 636.966 15.922 637.311 15.922C637.993 15.922 638.459 15.6233 638.711 15.026Z" fill="#A3A3A3"/>
<ellipse cx="599.757" cy="9.52953" rx="7.37288" ry="6.35301" fill="#2D9CDB"/>
<path d="M674.543 15.768C674.534 15.7867 674.534 15.8053 674.543 15.824C674.552 15.8333 674.566 15.838 674.585 15.838H678.799C678.892 15.838 678.939 15.8847 678.939 15.978V16.86C678.939 16.9533 678.892 17 678.799 17H672.933C672.84 17 672.793 16.9533 672.793 16.86V16.006C672.793 15.9407 672.816 15.8847 672.863 15.838C673.18 15.474 673.908 14.62 675.047 13.276L676.013 12.114C676.881 11.078 677.315 10.2753 677.315 9.706C677.315 9.26733 677.166 8.91733 676.867 8.656C676.578 8.38533 676.19 8.25 675.705 8.25C675.22 8.25 674.832 8.38533 674.543 8.656C674.254 8.92667 674.114 9.28133 674.123 9.72V10.14C674.123 10.2333 674.076 10.28 673.983 10.28H672.905C672.812 10.28 672.765 10.2333 672.765 10.14V9.538C672.784 9.05267 672.919 8.62333 673.171 8.25C673.432 7.87667 673.782 7.592 674.221 7.396C674.66 7.19067 675.154 7.088 675.705 7.088C676.302 7.088 676.825 7.2 677.273 7.424C677.721 7.648 678.066 7.956 678.309 8.348C678.552 8.74 678.673 9.18333 678.673 9.678C678.673 10.4527 678.253 11.3673 677.413 12.422C677.04 12.898 676.596 13.4347 676.083 14.032C675.57 14.62 675.056 15.1987 674.543 15.768ZM683.6 17.14C682.658 17.14 681.906 16.874 681.346 16.342C680.796 15.8007 680.52 15.0773 680.52 14.172V10.028C680.52 9.12267 680.796 8.404 681.346 7.872C681.906 7.34 682.658 7.074 683.6 7.074C684.543 7.074 685.294 7.34 685.854 7.872C686.424 8.404 686.708 9.12267 686.708 10.028V14.172C686.708 15.0773 686.424 15.8007 685.854 16.342C685.294 16.874 684.543 17.14 683.6 17.14ZM683.6 15.978C684.142 15.978 684.571 15.824 684.888 15.516C685.206 15.1987 685.364 14.7787 685.364 14.256V9.972C685.364 9.44933 685.206 9.034 684.888 8.726C684.571 8.40867 684.142 8.25 683.6 8.25C683.078 8.25 682.658 8.40867 682.34 8.726C682.023 9.034 681.864 9.44933 681.864 9.972V14.256C681.864 14.7787 682.023 15.1987 682.34 15.516C682.658 15.824 683.078 15.978 683.6 15.978ZM689.648 7.242C689.704 7.214 689.764 7.2 689.83 7.2H690.936C691.029 7.2 691.076 7.24667 691.076 7.34V16.86C691.076 16.9533 691.029 17 690.936 17H689.872C689.778 17 689.732 16.9533 689.732 16.86V8.642C689.732 8.62333 689.722 8.60933 689.704 8.6C689.694 8.59067 689.68 8.59067 689.662 8.6L688.192 9.104C688.173 9.11333 688.15 9.118 688.122 9.118C688.066 9.118 688.033 9.08067 688.024 9.006L687.968 8.208C687.968 8.11467 687.996 8.05867 688.052 8.04L689.648 7.242ZM673.997 40C673.95 40 673.913 39.986 673.885 39.958C673.866 39.9207 673.866 39.8787 673.885 39.832L677.063 31.432C677.072 31.4133 677.072 31.3993 677.063 31.39C677.054 31.3713 677.04 31.362 677.021 31.362H673.647C673.61 31.362 673.591 31.3807 673.591 31.418V32.076C673.591 32.1693 673.544 32.216 673.451 32.216H672.611C672.518 32.216 672.471 32.1693 672.471 32.076V30.34C672.471 30.2467 672.518 30.2 672.611 30.2H678.365C678.458 30.2 678.505 30.2467 678.505 30.34V31.278C678.505 31.3153 678.496 31.3713 678.477 31.446L675.313 39.888C675.285 39.9627 675.234 40 675.159 40H673.997Z" fill="#A3A3A3"/>
<ellipse cx="661.152" cy="8.73534" rx="7.37288" ry="6.35301" fill="#FF5B5B"/>
<path d="M7.56 67.0966C7.66 67.0966 7.71 67.1466 7.71 67.2466V68.2366C7.71 68.3366 7.66 68.3866 7.56 68.3866H6.915C6.875 68.3866 6.855 68.4066 6.855 68.4466V71.0566C6.855 71.1566 6.805 71.2066 6.705 71.2066H5.565C5.465 71.2066 5.415 71.1566 5.415 71.0566V68.4466C5.415 68.4066 5.395 68.3866 5.355 68.3866H0.795C0.695 68.3866 0.645 68.3366 0.645 68.2366V67.4266C0.645 67.3766 0.66 67.3166 0.69 67.2466L3.645 60.8116C3.675 60.7416 3.73 60.7066 3.81 60.7066H5.01C5.06 60.7066 5.095 60.7266 5.115 60.7666C5.145 60.7966 5.15 60.8366 5.13 60.8866L2.31 67.0216C2.3 67.0416 2.3 67.0616 2.31 67.0816C2.32 67.0916 2.335 67.0966 2.355 67.0966H5.355C5.395 67.0966 5.415 67.0766 5.415 67.0366V64.8016C5.415 64.7016 5.465 64.6516 5.565 64.6516H6.705C6.805 64.6516 6.855 64.7016 6.855 64.8016V67.0366C6.855 67.0766 6.875 67.0966 6.915 67.0966H7.56ZM12.7847 71.3566C11.7747 71.3566 10.9697 71.0716 10.3697 70.5016C9.77969 69.9216 9.48469 69.1466 9.48469 68.1766V63.7366C9.48469 62.7666 9.77969 61.9966 10.3697 61.4266C10.9697 60.8566 11.7747 60.5716 12.7847 60.5716C13.7947 60.5716 14.5997 60.8566 15.1997 61.4266C15.8097 61.9966 16.1147 62.7666 16.1147 63.7366V68.1766C16.1147 69.1466 15.8097 69.9216 15.1997 70.5016C14.5997 71.0716 13.7947 71.3566 12.7847 71.3566ZM12.7847 70.1116C13.3647 70.1116 13.8247 69.9466 14.1647 69.6166C14.5047 69.2766 14.6747 68.8266 14.6747 68.2666V63.6766C14.6747 63.1166 14.5047 62.6716 14.1647 62.3416C13.8247 62.0016 13.3647 61.8316 12.7847 61.8316C12.2247 61.8316 11.7747 62.0016 11.4347 62.3416C11.0947 62.6716 10.9247 63.1166 10.9247 63.6766V68.2666C10.9247 68.8266 11.0947 69.2766 11.4347 69.6166C11.7747 69.9466 12.2247 70.1116 12.7847 70.1116ZM18.2508 71.2066C18.1508 71.2066 18.1008 71.1566 18.1008 71.0566V60.8566C18.1008 60.7566 18.1508 60.7066 18.2508 60.7066H19.3908C19.4908 60.7066 19.5408 60.7566 19.5408 60.8566V66.6316C19.5408 66.6516 19.5508 66.6666 19.5708 66.6766C19.5908 66.6866 19.6058 66.6816 19.6158 66.6616L22.3908 63.6466C22.4308 63.5966 22.4908 63.5716 22.5708 63.5716H23.9058C23.9658 63.5716 24.0008 63.5916 24.0108 63.6316C24.0308 63.6616 24.0208 63.7016 23.9808 63.7516L22.0458 65.9866C22.0258 66.0266 22.0208 66.0566 22.0308 66.0766L24.3258 71.0266L24.3408 71.0866C24.3408 71.1666 24.2958 71.2066 24.2058 71.2066H23.0058C22.9258 71.2066 22.8708 71.1666 22.8408 71.0866L21.0558 67.0066C21.0358 66.9566 21.0108 66.9516 20.9808 66.9916L19.5708 68.5516C19.5508 68.5916 19.5408 68.6166 19.5408 68.6266V71.0566C19.5408 71.1566 19.4908 71.2066 19.3908 71.2066H18.2508Z" fill="#A3A3A3"/>
<path d="M6.705 130.227C6.905 130.717 7.005 131.282 7.005 131.922C7.005 132.452 6.925 132.942 6.765 133.392C6.545 134.012 6.18 134.492 5.67 134.832C5.16 135.162 4.545 135.327 3.825 135.327C3.105 135.327 2.48 135.142 1.95 134.772C1.43 134.402 1.065 133.902 0.855 133.272C0.745 132.992 0.68 132.592 0.66 132.072C0.66 131.972 0.71 131.922 0.81 131.922H1.965C2.065 131.922 2.115 131.972 2.115 132.072C2.135 132.432 2.175 132.697 2.235 132.867C2.335 133.237 2.52 133.532 2.79 133.752C3.07 133.972 3.415 134.082 3.825 134.082C4.585 134.082 5.095 133.737 5.355 133.047C5.485 132.747 5.55 132.357 5.55 131.877C5.55 131.367 5.47 130.912 5.31 130.512C5.03 129.892 4.53 129.582 3.81 129.582C3.64 129.582 3.425 129.657 3.165 129.807C3.125 129.827 3.095 129.837 3.075 129.837C3.025 129.837 2.985 129.812 2.955 129.762L2.385 128.982C2.365 128.942 2.355 128.907 2.355 128.877C2.355 128.847 2.37 128.812 2.4 128.772L4.965 126.027C4.995 125.977 4.985 125.952 4.935 125.952H0.945C0.845 125.952 0.795 125.902 0.795 125.802V124.857C0.795 124.757 0.845 124.707 0.945 124.707H6.765C6.865 124.707 6.915 124.757 6.915 124.857V125.937C6.915 125.987 6.89 126.047 6.84 126.117L4.56 128.607C4.54 128.627 4.535 128.647 4.545 128.667C4.555 128.677 4.575 128.687 4.605 128.697C5.115 128.747 5.545 128.907 5.895 129.177C6.245 129.437 6.515 129.787 6.705 130.227ZM12.0962 135.357C11.0862 135.357 10.2812 135.072 9.68121 134.502C9.09121 133.922 8.79621 133.147 8.79621 132.177V127.737C8.79621 126.767 9.09121 125.997 9.68121 125.427C10.2812 124.857 11.0862 124.572 12.0962 124.572C13.1062 124.572 13.9112 124.857 14.5112 125.427C15.1212 125.997 15.4262 126.767 15.4262 127.737V132.177C15.4262 133.147 15.1212 133.922 14.5112 134.502C13.9112 135.072 13.1062 135.357 12.0962 135.357ZM12.0962 134.112C12.6762 134.112 13.1362 133.947 13.4762 133.617C13.8162 133.277 13.9862 132.827 13.9862 132.267V127.677C13.9862 127.117 13.8162 126.672 13.4762 126.342C13.1362 126.002 12.6762 125.832 12.0962 125.832C11.5362 125.832 11.0862 126.002 10.7462 126.342C10.4062 126.672 10.2362 127.117 10.2362 127.677V132.267C10.2362 132.827 10.4062 133.277 10.7462 133.617C11.0862 133.947 11.5362 134.112 12.0962 134.112ZM17.5623 135.207C17.4623 135.207 17.4123 135.157 17.4123 135.057V124.857C17.4123 124.757 17.4623 124.707 17.5623 124.707H18.7023C18.8023 124.707 18.8523 124.757 18.8523 124.857V130.632C18.8523 130.652 18.8623 130.667 18.8823 130.677C18.9023 130.687 18.9173 130.682 18.9273 130.662L21.7023 127.647C21.7423 127.597 21.8023 127.572 21.8823 127.572H23.2173C23.2773 127.572 23.3123 127.592 23.3223 127.632C23.3423 127.662 23.3323 127.702 23.2923 127.752L21.3573 129.987C21.3373 130.027 21.3323 130.057 21.3423 130.077L23.6373 135.027L23.6523 135.087C23.6523 135.167 23.6073 135.207 23.5173 135.207H22.3173C22.2373 135.207 22.1823 135.167 22.1523 135.087L20.3673 131.007C20.3473 130.957 20.3223 130.952 20.2923 130.992L18.8823 132.552C18.8623 132.592 18.8523 132.617 18.8523 132.627V135.057C18.8523 135.157 18.8023 135.207 18.7023 135.207H17.5623Z" fill="#A3A3A3"/>
<path d="M2.685 197.887C2.675 197.907 2.675 197.927 2.685 197.947C2.695 197.957 2.71 197.962 2.73 197.962H7.245C7.345 197.962 7.395 198.012 7.395 198.112V199.057C7.395 199.157 7.345 199.207 7.245 199.207H0.96C0.86 199.207 0.81 199.157 0.81 199.057V198.142C0.81 198.072 0.835 198.012 0.885 197.962C1.225 197.572 2.005 196.657 3.225 195.217L4.26 193.972C5.19 192.862 5.655 192.002 5.655 191.392C5.655 190.922 5.495 190.547 5.175 190.267C4.865 189.977 4.45 189.832 3.93 189.832C3.41 189.832 2.995 189.977 2.685 190.267C2.375 190.557 2.225 190.937 2.235 191.407V191.857C2.235 191.957 2.185 192.007 2.085 192.007H0.93C0.83 192.007 0.78 191.957 0.78 191.857V191.212C0.8 190.692 0.945 190.232 1.215 189.832C1.495 189.432 1.87 189.127 2.34 188.917C2.81 188.697 3.34 188.587 3.93 188.587C4.57 188.587 5.13 188.707 5.61 188.947C6.09 189.187 6.46 189.517 6.72 189.937C6.98 190.357 7.11 190.832 7.11 191.362C7.11 192.192 6.66 193.172 5.76 194.302C5.36 194.812 4.885 195.387 4.335 196.027C3.785 196.657 3.235 197.277 2.685 197.887ZM12.3892 199.357C11.3792 199.357 10.5742 199.072 9.97418 198.502C9.38418 197.922 9.08918 197.147 9.08918 196.177V191.737C9.08918 190.767 9.38418 189.997 9.97418 189.427C10.5742 188.857 11.3792 188.572 12.3892 188.572C13.3992 188.572 14.2042 188.857 14.8042 189.427C15.4142 189.997 15.7192 190.767 15.7192 191.737V196.177C15.7192 197.147 15.4142 197.922 14.8042 198.502C14.2042 199.072 13.3992 199.357 12.3892 199.357ZM12.3892 198.112C12.9692 198.112 13.4292 197.947 13.7692 197.617C14.1092 197.277 14.2792 196.827 14.2792 196.267V191.677C14.2792 191.117 14.1092 190.672 13.7692 190.342C13.4292 190.002 12.9692 189.832 12.3892 189.832C11.8292 189.832 11.3792 190.002 11.0392 190.342C10.6992 190.672 10.5292 191.117 10.5292 191.677V196.267C10.5292 196.827 10.6992 197.277 11.0392 197.617C11.3792 197.947 11.8292 198.112 12.3892 198.112ZM17.8553 199.207C17.7553 199.207 17.7053 199.157 17.7053 199.057V188.857C17.7053 188.757 17.7553 188.707 17.8553 188.707H18.9953C19.0953 188.707 19.1453 188.757 19.1453 188.857V194.632C19.1453 194.652 19.1553 194.667 19.1753 194.677C19.1953 194.687 19.2103 194.682 19.2203 194.662L21.9953 191.647C22.0353 191.597 22.0953 191.572 22.1753 191.572H23.5103C23.5703 191.572 23.6053 191.592 23.6153 191.632C23.6353 191.662 23.6253 191.702 23.5853 191.752L21.6503 193.987C21.6303 194.027 21.6253 194.057 21.6353 194.077L23.9303 199.027L23.9453 199.087C23.9453 199.167 23.9003 199.207 23.8103 199.207H22.6103C22.5303 199.207 22.4753 199.167 22.4453 199.087L20.6603 195.007C20.6403 194.957 20.6153 194.952 20.5853 194.992L19.1753 196.552C19.1553 196.592 19.1453 196.617 19.1453 196.627V199.057C19.1453 199.157 19.0953 199.207 18.9953 199.207H17.8553Z" fill="#A3A3A3"/>
<path d="M2.55 252.752C2.61 252.722 2.675 252.707 2.745 252.707H3.93C4.03 252.707 4.08 252.757 4.08 252.857V263.057C4.08 263.157 4.03 263.207 3.93 263.207H2.79C2.69 263.207 2.64 263.157 2.64 263.057V254.252C2.64 254.232 2.63 254.217 2.61 254.207C2.6 254.197 2.585 254.197 2.565 254.207L0.99 254.747C0.97 254.757 0.945 254.762 0.915 254.762C0.855 254.762 0.82 254.722 0.81 254.642L0.75 253.787C0.75 253.687 0.78 253.627 0.84 253.607L2.55 252.752ZM9.50344 263.357C8.49344 263.357 7.68844 263.072 7.08844 262.502C6.49844 261.922 6.20344 261.147 6.20344 260.177V255.737C6.20344 254.767 6.49844 253.997 7.08844 253.427C7.68844 252.857 8.49344 252.572 9.50344 252.572C10.5134 252.572 11.3184 252.857 11.9184 253.427C12.5284 253.997 12.8334 254.767 12.8334 255.737V260.177C12.8334 261.147 12.5284 261.922 11.9184 262.502C11.3184 263.072 10.5134 263.357 9.50344 263.357ZM9.50344 262.112C10.0834 262.112 10.5434 261.947 10.8834 261.617C11.2234 261.277 11.3934 260.827 11.3934 260.267V255.677C11.3934 255.117 11.2234 254.672 10.8834 254.342C10.5434 254.002 10.0834 253.832 9.50344 253.832C8.94344 253.832 8.49344 254.002 8.15344 254.342C7.81344 254.672 7.64344 255.117 7.64344 255.677V260.267C7.64344 260.827 7.81344 261.277 8.15344 261.617C8.49344 261.947 8.94344 262.112 9.50344 262.112ZM14.9695 263.207C14.8695 263.207 14.8195 263.157 14.8195 263.057V252.857C14.8195 252.757 14.8695 252.707 14.9695 252.707H16.1095C16.2095 252.707 16.2595 252.757 16.2595 252.857V258.632C16.2595 258.652 16.2695 258.667 16.2895 258.677C16.3095 258.687 16.3245 258.682 16.3345 258.662L19.1095 255.647C19.1495 255.597 19.2095 255.572 19.2895 255.572H20.6245C20.6845 255.572 20.7195 255.592 20.7295 255.632C20.7495 255.662 20.7395 255.702 20.6995 255.752L18.7645 257.987C18.7445 258.027 18.7395 258.057 18.7495 258.077L21.0445 263.027L21.0595 263.087C21.0595 263.167 21.0145 263.207 20.9245 263.207H19.7245C19.6445 263.207 19.5895 263.167 19.5595 263.087L17.7745 259.007C17.7545 258.957 17.7295 258.952 17.6995 258.992L16.2895 260.552C16.2695 260.592 16.2595 260.617 16.2595 260.627V263.057C16.2595 263.157 16.2095 263.207 16.1095 263.207H14.9695Z" fill="#A3A3A3"/>
<path d="M77.4606 284.943C76.7506 284.943 76.1256 284.808 75.5856 284.538C75.0556 284.268 74.6456 283.888 74.3556 283.398C74.0656 282.908 73.9206 282.343 73.9206 281.703V280.638C73.9206 280.538 73.9706 280.488 74.0706 280.488H75.2106C75.3106 280.488 75.3606 280.538 75.3606 280.638V281.703C75.3606 282.303 75.5506 282.788 75.9306 283.158C76.3106 283.518 76.8206 283.698 77.4606 283.698C78.0806 283.698 78.5856 283.518 78.9756 283.158C79.3656 282.788 79.5606 282.303 79.5606 281.703V274.473C79.5606 274.373 79.6106 274.323 79.7106 274.323H80.8506C80.9506 274.323 81.0006 274.373 81.0006 274.473V281.703C81.0006 282.343 80.8506 282.908 80.5506 283.398C80.2606 283.888 79.8456 284.268 79.3056 284.538C78.7656 284.808 78.1506 284.943 77.4606 284.943ZM86.0721 277.068C86.6821 277.068 87.2121 277.178 87.6621 277.398C88.1221 277.608 88.4721 277.908 88.7121 278.298C88.9621 278.678 89.0871 279.113 89.0871 279.603V284.673C89.0871 284.773 89.0371 284.823 88.9371 284.823H87.7971C87.6971 284.823 87.6471 284.773 87.6471 284.673V284.133C87.6471 284.083 87.6221 284.073 87.5721 284.103C87.3121 284.373 86.9921 284.583 86.6121 284.733C86.2421 284.873 85.8271 284.943 85.3671 284.943C84.6271 284.943 84.0121 284.758 83.5221 284.388C83.0421 284.008 82.8021 283.438 82.8021 282.678C82.8021 281.898 83.0721 281.288 83.6121 280.848C84.1621 280.398 84.9271 280.173 85.9071 280.173H87.5871C87.6271 280.173 87.6471 280.153 87.6471 280.113V279.708C87.6471 279.268 87.5171 278.928 87.2571 278.688C87.0071 278.438 86.6221 278.313 86.1021 278.313C85.6821 278.313 85.3371 278.398 85.0671 278.568C84.8071 278.728 84.6471 278.948 84.5871 279.228C84.5571 279.328 84.4971 279.373 84.4071 279.363L83.1921 279.198C83.0921 279.178 83.0471 279.138 83.0571 279.078C83.1371 278.488 83.4521 278.008 84.0021 277.638C84.5521 277.258 85.2421 277.068 86.0721 277.068ZM85.6821 283.728C86.2121 283.728 86.6721 283.588 87.0621 283.308C87.4521 283.028 87.6471 282.673 87.6471 282.243V281.358C87.6471 281.318 87.6271 281.298 87.5871 281.298H86.1771C85.5871 281.298 85.1171 281.413 84.7671 281.643C84.4171 281.873 84.2421 282.193 84.2421 282.603C84.2421 282.973 84.3721 283.253 84.6321 283.443C84.9021 283.633 85.2521 283.728 85.6821 283.728ZM94.4361 277.083C95.2561 277.083 95.9061 277.323 96.3861 277.803C96.8661 278.273 97.1061 278.913 97.1061 279.723V284.673C97.1061 284.773 97.0561 284.823 96.9561 284.823H95.8161C95.7161 284.823 95.6661 284.773 95.6661 284.673V280.008C95.6661 279.508 95.5211 279.103 95.2311 278.793C94.9411 278.483 94.5561 278.328 94.0761 278.328C93.6061 278.328 93.2211 278.483 92.9211 278.793C92.6211 279.103 92.4711 279.503 92.4711 279.993V284.673C92.4711 284.773 92.4211 284.823 92.3211 284.823H91.1811C91.0811 284.823 91.0311 284.773 91.0311 284.673V277.338C91.0311 277.238 91.0811 277.188 91.1811 277.188H92.3211C92.4211 277.188 92.4711 277.238 92.4711 277.338V277.878C92.4711 277.898 92.4761 277.913 92.4861 277.923C92.5061 277.933 92.5211 277.928 92.5311 277.908C92.9611 277.358 93.5961 277.083 94.4361 277.083Z" fill="#A3A3A3"/>
<circle cx="88.0456" cy="254.323" r="3.5" stroke="#B9BBBD" stroke-width="2"/>
<path d="M146.736 275.418C146.736 275.518 146.686 275.568 146.586 275.568H141.276C141.236 275.568 141.216 275.588 141.216 275.628V278.853C141.216 278.893 141.236 278.913 141.276 278.913H144.921C145.021 278.913 145.071 278.963 145.071 279.063V280.008C145.071 280.108 145.021 280.158 144.921 280.158H141.276C141.236 280.158 141.216 280.178 141.216 280.218V284.673C141.216 284.773 141.166 284.823 141.066 284.823H139.926C139.826 284.823 139.776 284.773 139.776 284.673V274.473C139.776 274.373 139.826 274.323 139.926 274.323H146.586C146.686 274.323 146.736 274.373 146.736 274.473V275.418ZM153.554 280.053C153.594 280.463 153.609 280.923 153.599 281.433C153.599 281.533 153.549 281.583 153.449 281.583H148.664C148.624 281.583 148.604 281.603 148.604 281.643C148.604 281.983 148.634 282.243 148.694 282.423C148.804 282.823 149.024 283.138 149.354 283.368C149.694 283.588 150.119 283.698 150.629 283.698C151.369 283.698 151.939 283.393 152.339 282.783C152.389 282.683 152.454 282.668 152.534 282.738L153.389 283.308C153.459 283.368 153.474 283.433 153.434 283.503C153.154 283.953 152.754 284.308 152.234 284.568C151.724 284.828 151.144 284.958 150.494 284.958C149.764 284.958 149.149 284.798 148.649 284.478C148.149 284.158 147.774 283.703 147.524 283.113C147.284 282.523 147.164 281.808 147.164 280.968C147.164 280.238 147.219 279.683 147.329 279.303C147.509 278.613 147.869 278.068 148.409 277.668C148.949 277.268 149.604 277.068 150.374 277.068C151.384 277.068 152.139 277.323 152.639 277.833C153.139 278.333 153.444 279.073 153.554 280.053ZM150.374 278.313C149.944 278.313 149.589 278.423 149.309 278.643C149.029 278.853 148.839 279.138 148.739 279.498C148.669 279.718 148.624 279.998 148.604 280.338C148.604 280.378 148.624 280.398 148.664 280.398H152.099C152.139 280.398 152.159 280.378 152.159 280.338C152.139 280.008 152.109 279.763 152.069 279.603C151.969 279.213 151.769 278.903 151.469 278.673C151.179 278.433 150.814 278.313 150.374 278.313ZM161.581 279.168C161.741 279.678 161.821 280.283 161.821 280.983C161.821 281.733 161.726 282.373 161.536 282.903C161.316 283.553 160.966 284.058 160.486 284.418C160.016 284.768 159.421 284.943 158.701 284.943C158.351 284.943 158.026 284.873 157.726 284.733C157.426 284.593 157.166 284.398 156.946 284.148C156.926 284.128 156.906 284.123 156.886 284.133C156.876 284.143 156.871 284.158 156.871 284.178V284.673C156.871 284.773 156.821 284.823 156.721 284.823H155.581C155.481 284.823 155.431 284.773 155.431 284.673V274.473C155.431 274.373 155.481 274.323 155.581 274.323H156.721C156.821 274.323 156.871 274.373 156.871 274.473V277.818C156.871 277.838 156.876 277.853 156.886 277.863C156.906 277.873 156.926 277.868 156.946 277.848C157.166 277.598 157.426 277.408 157.726 277.278C158.036 277.138 158.361 277.068 158.701 277.068C159.451 277.068 160.066 277.253 160.546 277.623C161.026 277.993 161.371 278.508 161.581 279.168ZM159.991 282.873C160.241 282.403 160.366 281.783 160.366 281.013C160.366 280.193 160.206 279.533 159.886 279.033C159.596 278.553 159.151 278.313 158.551 278.313C157.991 278.313 157.566 278.568 157.276 279.078C157.016 279.538 156.886 280.178 156.886 280.998C156.886 281.818 157.006 282.448 157.246 282.888C157.546 283.428 157.986 283.698 158.566 283.698C159.226 283.698 159.701 283.423 159.991 282.873Z" fill="#A3A3A3"/>
<circle cx="153.046" cy="254.323" r="3.5" stroke="#B9BBBD" stroke-width="2"/>
<path d="M211.571 274.413C211.621 274.353 211.681 274.323 211.751 274.323H212.891C212.991 274.323 213.041 274.373 213.041 274.473V284.673C213.041 284.773 212.991 284.823 212.891 284.823H211.751C211.651 284.823 211.601 284.773 211.601 284.673V276.993C211.601 276.963 211.591 276.943 211.571 276.933C211.551 276.923 211.536 276.933 211.526 276.963L209.381 280.233C209.341 280.293 209.281 280.323 209.201 280.323H208.631C208.561 280.323 208.501 280.293 208.451 280.233L206.291 276.993C206.281 276.963 206.266 276.953 206.246 276.963C206.226 276.973 206.216 276.993 206.216 277.023V284.673C206.216 284.773 206.166 284.823 206.066 284.823H204.926C204.826 284.823 204.776 284.773 204.776 284.673V274.473C204.776 274.373 204.826 274.323 204.926 274.323H206.066C206.146 274.323 206.206 274.353 206.246 274.413L208.871 278.343C208.881 278.353 208.896 278.358 208.916 278.358C208.936 278.358 208.951 278.353 208.961 278.343L211.571 274.413ZM218.108 277.068C218.718 277.068 219.248 277.178 219.698 277.398C220.158 277.608 220.508 277.908 220.748 278.298C220.998 278.678 221.123 279.113 221.123 279.603V284.673C221.123 284.773 221.073 284.823 220.973 284.823H219.833C219.733 284.823 219.683 284.773 219.683 284.673V284.133C219.683 284.083 219.658 284.073 219.608 284.103C219.348 284.373 219.028 284.583 218.648 284.733C218.278 284.873 217.863 284.943 217.403 284.943C216.663 284.943 216.048 284.758 215.558 284.388C215.078 284.008 214.838 283.438 214.838 282.678C214.838 281.898 215.108 281.288 215.648 280.848C216.198 280.398 216.963 280.173 217.943 280.173H219.623C219.663 280.173 219.683 280.153 219.683 280.113V279.708C219.683 279.268 219.553 278.928 219.293 278.688C219.043 278.438 218.658 278.313 218.138 278.313C217.718 278.313 217.373 278.398 217.103 278.568C216.843 278.728 216.683 278.948 216.623 279.228C216.593 279.328 216.533 279.373 216.443 279.363L215.228 279.198C215.128 279.178 215.083 279.138 215.093 279.078C215.173 278.488 215.488 278.008 216.038 277.638C216.588 277.258 217.278 277.068 218.108 277.068ZM217.718 283.728C218.248 283.728 218.708 283.588 219.098 283.308C219.488 283.028 219.683 282.673 219.683 282.243V281.358C219.683 281.318 219.663 281.298 219.623 281.298H218.213C217.623 281.298 217.153 281.413 216.803 281.643C216.453 281.873 216.278 282.193 216.278 282.603C216.278 282.973 216.408 283.253 216.668 283.443C216.938 283.633 217.288 283.728 217.718 283.728ZM226.412 277.113C226.732 277.113 227.022 277.178 227.282 277.308C227.352 277.338 227.377 277.398 227.357 277.488L227.117 278.613C227.107 278.703 227.047 278.733 226.937 278.703C226.767 278.633 226.567 278.598 226.337 278.598L226.127 278.613C225.657 278.633 225.267 278.798 224.957 279.108C224.657 279.408 224.507 279.803 224.507 280.293V284.673C224.507 284.773 224.457 284.823 224.357 284.823H223.217C223.117 284.823 223.067 284.773 223.067 284.673V277.338C223.067 277.238 223.117 277.188 223.217 277.188H224.357C224.457 277.188 224.507 277.238 224.507 277.338V278.133C224.507 278.163 224.512 278.183 224.522 278.193C224.542 278.193 224.557 278.183 224.567 278.163C225.017 277.463 225.632 277.113 226.412 277.113Z" fill="#A3A3A3"/>
<circle cx="218.046" cy="254.323" r="3.5" stroke="#B9BBBD" stroke-width="2"/>
<path d="M276.151 284.823C276.061 284.823 276.001 284.783 275.971 284.703L275.431 282.948C275.421 282.918 275.401 282.903 275.371 282.903H271.156C271.126 282.903 271.106 282.918 271.096 282.948L270.556 284.703C270.526 284.783 270.466 284.823 270.376 284.823H269.161C269.051 284.823 269.011 284.768 269.041 284.658L272.326 274.443C272.356 274.363 272.416 274.323 272.506 274.323H274.006C274.096 274.323 274.156 274.363 274.186 274.443L277.501 284.658L277.516 284.718C277.516 284.788 277.471 284.823 277.381 284.823H276.151ZM271.471 281.688C271.461 281.708 271.461 281.728 271.471 281.748C271.491 281.758 271.511 281.763 271.531 281.763H274.981C275.001 281.763 275.016 281.758 275.026 281.748C275.046 281.728 275.051 281.708 275.041 281.688L273.301 276.123C273.291 276.103 273.276 276.093 273.256 276.093C273.236 276.093 273.221 276.103 273.211 276.123L271.471 281.688ZM285.239 279.108C285.429 279.648 285.524 280.288 285.524 281.028C285.524 281.728 285.444 282.333 285.284 282.843C285.074 283.513 284.729 284.033 284.249 284.403C283.769 284.763 283.154 284.943 282.404 284.943C282.064 284.943 281.739 284.878 281.429 284.748C281.129 284.608 280.869 284.413 280.649 284.163C280.629 284.143 280.609 284.138 280.589 284.148C280.579 284.158 280.574 284.173 280.574 284.193V287.538C280.574 287.638 280.524 287.688 280.424 287.688H279.284C279.184 287.688 279.134 287.638 279.134 287.538V277.338C279.134 277.238 279.184 277.188 279.284 277.188H280.424C280.524 277.188 280.574 277.238 280.574 277.338V277.833C280.574 277.853 280.579 277.868 280.589 277.878C280.609 277.888 280.629 277.883 280.649 277.863C280.869 277.613 281.129 277.418 281.429 277.278C281.729 277.138 282.054 277.068 282.404 277.068C283.124 277.068 283.719 277.248 284.189 277.608C284.669 277.958 285.019 278.458 285.239 279.108ZM283.589 282.978C283.909 282.498 284.069 281.838 284.069 280.998C284.069 280.228 283.944 279.608 283.694 279.138C283.404 278.588 282.929 278.313 282.269 278.313C281.689 278.313 281.249 278.583 280.949 279.123C280.709 279.553 280.589 280.183 280.589 281.013C280.589 281.853 280.719 282.493 280.979 282.933C281.269 283.443 281.694 283.698 282.254 283.698C282.854 283.698 283.299 283.458 283.589 282.978ZM290.753 277.113C291.073 277.113 291.363 277.178 291.623 277.308C291.693 277.338 291.718 277.398 291.698 277.488L291.458 278.613C291.448 278.703 291.388 278.733 291.278 278.703C291.108 278.633 290.908 278.598 290.678 278.598L290.468 278.613C289.998 278.633 289.608 278.798 289.298 279.108C288.998 279.408 288.848 279.803 288.848 280.293V284.673C288.848 284.773 288.798 284.823 288.698 284.823H287.558C287.458 284.823 287.408 284.773 287.408 284.673V277.338C287.408 277.238 287.458 277.188 287.558 277.188H288.698C288.798 277.188 288.848 277.238 288.848 277.338V278.133C288.848 278.163 288.853 278.183 288.863 278.193C288.883 278.193 288.898 278.183 288.908 278.163C289.358 277.463 289.973 277.113 290.753 277.113Z" fill="#A3A3A3"/>
<circle cx="283.046" cy="254.323" r="3.5" stroke="#B9BBBD" stroke-width="2"/>
<path d="M340.571 274.413C340.621 274.353 340.681 274.323 340.751 274.323H341.891C341.991 274.323 342.041 274.373 342.041 274.473V284.673C342.041 284.773 341.991 284.823 341.891 284.823H340.751C340.651 284.823 340.601 284.773 340.601 284.673V276.993C340.601 276.963 340.591 276.943 340.571 276.933C340.551 276.923 340.536 276.933 340.526 276.963L338.381 280.233C338.341 280.293 338.281 280.323 338.201 280.323H337.631C337.561 280.323 337.501 280.293 337.451 280.233L335.291 276.993C335.281 276.963 335.266 276.953 335.246 276.963C335.226 276.973 335.216 276.993 335.216 277.023V284.673C335.216 284.773 335.166 284.823 335.066 284.823H333.926C333.826 284.823 333.776 284.773 333.776 284.673V274.473C333.776 274.373 333.826 274.323 333.926 274.323H335.066C335.146 274.323 335.206 274.353 335.246 274.413L337.871 278.343C337.881 278.353 337.896 278.358 337.916 278.358C337.936 278.358 337.951 278.353 337.961 278.343L340.571 274.413ZM347.108 277.068C347.718 277.068 348.248 277.178 348.698 277.398C349.158 277.608 349.508 277.908 349.748 278.298C349.998 278.678 350.123 279.113 350.123 279.603V284.673C350.123 284.773 350.073 284.823 349.973 284.823H348.833C348.733 284.823 348.683 284.773 348.683 284.673V284.133C348.683 284.083 348.658 284.073 348.608 284.103C348.348 284.373 348.028 284.583 347.648 284.733C347.278 284.873 346.863 284.943 346.403 284.943C345.663 284.943 345.048 284.758 344.558 284.388C344.078 284.008 343.838 283.438 343.838 282.678C343.838 281.898 344.108 281.288 344.648 280.848C345.198 280.398 345.963 280.173 346.943 280.173H348.623C348.663 280.173 348.683 280.153 348.683 280.113V279.708C348.683 279.268 348.553 278.928 348.293 278.688C348.043 278.438 347.658 278.313 347.138 278.313C346.718 278.313 346.373 278.398 346.103 278.568C345.843 278.728 345.683 278.948 345.623 279.228C345.593 279.328 345.533 279.373 345.443 279.363L344.228 279.198C344.128 279.178 344.083 279.138 344.093 279.078C344.173 278.488 344.488 278.008 345.038 277.638C345.588 277.258 346.278 277.068 347.108 277.068ZM346.718 283.728C347.248 283.728 347.708 283.588 348.098 283.308C348.488 283.028 348.683 282.673 348.683 282.243V281.358C348.683 281.318 348.663 281.298 348.623 281.298H347.213C346.623 281.298 346.153 281.413 345.803 281.643C345.453 281.873 345.278 282.193 345.278 282.603C345.278 282.973 345.408 283.253 345.668 283.443C345.938 283.633 346.288 283.728 346.718 283.728ZM351.71 287.808C351.64 287.808 351.605 287.758 351.605 287.658V286.773C351.605 286.673 351.655 286.623 351.755 286.623H351.785C352.185 286.613 352.5 286.563 352.73 286.473C352.96 286.383 353.15 286.213 353.3 285.963C353.45 285.723 353.595 285.358 353.735 284.868C353.745 284.858 353.745 284.843 353.735 284.823C353.735 284.793 353.735 284.778 353.735 284.778L351.23 277.353L351.215 277.293C351.215 277.223 351.26 277.188 351.35 277.188H352.565C352.655 277.188 352.715 277.228 352.745 277.308L354.44 282.963C354.45 282.983 354.465 282.993 354.485 282.993C354.505 282.993 354.52 282.983 354.53 282.963L356.21 277.308C356.24 277.228 356.3 277.188 356.39 277.188H357.575C357.685 277.188 357.725 277.243 357.695 277.353L354.965 285.348C354.735 286.038 354.505 286.548 354.275 286.878C354.045 287.218 353.745 287.458 353.375 287.598C353.005 287.738 352.485 287.808 351.815 287.808H351.71Z" fill="#A3A3A3"/>
<circle cx="347.046" cy="254.323" r="3.5" stroke="#B9BBBD" stroke-width="2"/>
<path d="M402.461 284.943C401.751 284.943 401.126 284.808 400.586 284.538C400.056 284.268 399.646 283.888 399.356 283.398C399.066 282.908 398.921 282.343 398.921 281.703V280.638C398.921 280.538 398.971 280.488 399.071 280.488H400.211C400.311 280.488 400.361 280.538 400.361 280.638V281.703C400.361 282.303 400.551 282.788 400.931 283.158C401.311 283.518 401.821 283.698 402.461 283.698C403.081 283.698 403.586 283.518 403.976 283.158C404.366 282.788 404.561 282.303 404.561 281.703V274.473C404.561 274.373 404.611 274.323 404.711 274.323H405.851C405.951 274.323 406.001 274.373 406.001 274.473V281.703C406.001 282.343 405.851 282.908 405.551 283.398C405.261 283.888 404.846 284.268 404.306 284.538C403.766 284.808 403.151 284.943 402.461 284.943ZM412.827 277.338C412.827 277.238 412.877 277.188 412.977 277.188H414.102C414.202 277.188 414.252 277.238 414.252 277.338V284.673C414.252 284.773 414.202 284.823 414.102 284.823H412.977C412.877 284.823 412.827 284.773 412.827 284.673V284.118C412.827 284.098 412.817 284.088 412.797 284.088C412.787 284.078 412.772 284.083 412.752 284.103C412.352 284.653 411.737 284.928 410.907 284.928C410.417 284.928 409.962 284.833 409.542 284.643C409.132 284.453 408.802 284.173 408.552 283.803C408.302 283.433 408.177 282.983 408.177 282.453V277.338C408.177 277.238 408.227 277.188 408.327 277.188H409.452C409.552 277.188 409.602 277.238 409.602 277.338V282.003C409.602 282.523 409.737 282.933 410.007 283.233C410.287 283.533 410.677 283.683 411.177 283.683C411.677 283.683 412.077 283.533 412.377 283.233C412.677 282.923 412.827 282.513 412.827 282.003V277.338ZM419.758 277.083C420.578 277.083 421.228 277.323 421.708 277.803C422.188 278.273 422.428 278.913 422.428 279.723V284.673C422.428 284.773 422.378 284.823 422.278 284.823H421.138C421.038 284.823 420.988 284.773 420.988 284.673V280.008C420.988 279.508 420.843 279.103 420.553 278.793C420.263 278.483 419.878 278.328 419.398 278.328C418.928 278.328 418.543 278.483 418.243 278.793C417.943 279.103 417.793 279.503 417.793 279.993V284.673C417.793 284.773 417.743 284.823 417.643 284.823H416.503C416.403 284.823 416.353 284.773 416.353 284.673V277.338C416.353 277.238 416.403 277.188 416.503 277.188H417.643C417.743 277.188 417.793 277.238 417.793 277.338V277.878C417.793 277.898 417.798 277.913 417.808 277.923C417.828 277.933 417.843 277.928 417.853 277.908C418.283 277.358 418.918 277.083 419.758 277.083Z" fill="#A3A3A3"/>
<circle cx="413.046" cy="254.323" r="4.5" fill="#2D9CDB"/>
<path d="M467.461 284.943C466.751 284.943 466.126 284.808 465.586 284.538C465.056 284.268 464.646 283.888 464.356 283.398C464.066 282.908 463.921 282.343 463.921 281.703V280.638C463.921 280.538 463.971 280.488 464.071 280.488H465.211C465.311 280.488 465.361 280.538 465.361 280.638V281.703C465.361 282.303 465.551 282.788 465.931 283.158C466.311 283.518 466.821 283.698 467.461 283.698C468.081 283.698 468.586 283.518 468.976 283.158C469.366 282.788 469.561 282.303 469.561 281.703V274.473C469.561 274.373 469.611 274.323 469.711 274.323H470.851C470.951 274.323 471.001 274.373 471.001 274.473V281.703C471.001 282.343 470.851 282.908 470.551 283.398C470.261 283.888 469.846 284.268 469.306 284.538C468.766 284.808 468.151 284.943 467.461 284.943ZM477.827 277.338C477.827 277.238 477.877 277.188 477.977 277.188H479.102C479.202 277.188 479.252 277.238 479.252 277.338V284.673C479.252 284.773 479.202 284.823 479.102 284.823H477.977C477.877 284.823 477.827 284.773 477.827 284.673V284.118C477.827 284.098 477.817 284.088 477.797 284.088C477.787 284.078 477.772 284.083 477.752 284.103C477.352 284.653 476.737 284.928 475.907 284.928C475.417 284.928 474.962 284.833 474.542 284.643C474.132 284.453 473.802 284.173 473.552 283.803C473.302 283.433 473.177 282.983 473.177 282.453V277.338C473.177 277.238 473.227 277.188 473.327 277.188H474.452C474.552 277.188 474.602 277.238 474.602 277.338V282.003C474.602 282.523 474.737 282.933 475.007 283.233C475.287 283.533 475.677 283.683 476.177 283.683C476.677 283.683 477.077 283.533 477.377 283.233C477.677 282.923 477.827 282.513 477.827 282.003V277.338ZM481.503 284.823C481.403 284.823 481.353 284.773 481.353 284.673V274.473C481.353 274.373 481.403 274.323 481.503 274.323H482.643C482.743 274.323 482.793 274.373 482.793 274.473V284.673C482.793 284.773 482.743 284.823 482.643 284.823H481.503Z" fill="#A3A3A3"/>
<circle cx="478.046" cy="254.323" r="3.5" stroke="#B9BBBD" stroke-width="2"/>
<path d="M532.151 284.823C532.061 284.823 532.001 284.783 531.971 284.703L531.431 282.948C531.421 282.918 531.401 282.903 531.371 282.903H527.156C527.126 282.903 527.106 282.918 527.096 282.948L526.556 284.703C526.526 284.783 526.466 284.823 526.376 284.823H525.161C525.051 284.823 525.011 284.768 525.041 284.658L528.326 274.443C528.356 274.363 528.416 274.323 528.506 274.323H530.006C530.096 274.323 530.156 274.363 530.186 274.443L533.501 284.658L533.516 284.718C533.516 284.788 533.471 284.823 533.381 284.823H532.151ZM527.471 281.688C527.461 281.708 527.461 281.728 527.471 281.748C527.491 281.758 527.511 281.763 527.531 281.763H530.981C531.001 281.763 531.016 281.758 531.026 281.748C531.046 281.728 531.051 281.708 531.041 281.688L529.301 276.123C529.291 276.103 529.276 276.093 529.256 276.093C529.236 276.093 529.221 276.103 529.211 276.123L527.471 281.688ZM539.589 277.338C539.589 277.238 539.639 277.188 539.739 277.188H540.864C540.964 277.188 541.014 277.238 541.014 277.338V284.673C541.014 284.773 540.964 284.823 540.864 284.823H539.739C539.639 284.823 539.589 284.773 539.589 284.673V284.118C539.589 284.098 539.579 284.088 539.559 284.088C539.549 284.078 539.534 284.083 539.514 284.103C539.114 284.653 538.499 284.928 537.669 284.928C537.179 284.928 536.724 284.833 536.304 284.643C535.894 284.453 535.564 284.173 535.314 283.803C535.064 283.433 534.939 282.983 534.939 282.453V277.338C534.939 277.238 534.989 277.188 535.089 277.188H536.214C536.314 277.188 536.364 277.238 536.364 277.338V282.003C536.364 282.523 536.499 282.933 536.769 283.233C537.049 283.533 537.439 283.683 537.939 283.683C538.439 283.683 538.839 283.533 539.139 283.233C539.439 282.923 539.589 282.513 539.589 282.003V277.338ZM547.81 277.338C547.81 277.238 547.86 277.188 547.96 277.188H549.1C549.2 277.188 549.25 277.238 549.25 277.338V284.433C549.25 285.643 548.905 286.508 548.215 287.028C547.535 287.548 546.62 287.808 545.47 287.808C545.31 287.808 545.06 287.798 544.72 287.778C544.62 287.768 544.57 287.713 544.57 287.613L544.615 286.578C544.615 286.538 544.63 286.503 544.66 286.473C544.69 286.443 544.73 286.433 544.78 286.443C544.92 286.453 545.125 286.458 545.395 286.458C546.245 286.458 546.86 286.298 547.24 285.978C547.62 285.668 547.81 285.138 547.81 284.388V284.118C547.81 284.098 547.8 284.083 547.78 284.073C547.77 284.063 547.755 284.068 547.735 284.088C547.315 284.578 546.7 284.823 545.89 284.823C545.24 284.823 544.65 284.653 544.12 284.313C543.6 283.973 543.24 283.473 543.04 282.813C542.91 282.373 542.845 281.763 542.845 280.983C542.845 280.153 542.92 279.513 543.07 279.063C543.26 278.463 543.595 277.983 544.075 277.623C544.565 277.253 545.14 277.068 545.8 277.068C546.62 277.068 547.265 277.318 547.735 277.818C547.755 277.838 547.77 277.848 547.78 277.848C547.8 277.838 547.81 277.823 547.81 277.803V277.338ZM547.72 282.378C547.75 282.218 547.77 282.048 547.78 281.868C547.8 281.688 547.81 281.388 547.81 280.968C547.81 280.548 547.8 280.253 547.78 280.083C547.77 279.903 547.745 279.733 547.705 279.573C547.625 279.203 547.445 278.903 547.165 278.673C546.885 278.433 546.535 278.313 546.115 278.313C545.695 278.313 545.345 278.433 545.065 278.673C544.785 278.903 544.585 279.203 544.465 279.573C544.355 279.873 544.3 280.338 544.3 280.968C544.3 281.658 544.35 282.128 544.45 282.378C544.55 282.748 544.745 283.053 545.035 283.293C545.335 283.523 545.695 283.638 546.115 283.638C546.555 283.638 546.91 283.523 547.18 283.293C547.46 283.053 547.64 282.748 547.72 282.378Z" fill="#A3A3A3"/>
<circle cx="539.046" cy="254.323" r="3.5" stroke="#B9BBBD" stroke-width="2"/>
<path d="M595.016 284.943C594.246 284.943 593.576 284.823 593.006 284.583C592.446 284.343 592.011 284.003 591.701 283.563C591.401 283.123 591.251 282.608 591.251 282.018V281.583C591.251 281.483 591.301 281.433 591.401 281.433H592.496C592.596 281.433 592.646 281.483 592.646 281.583V281.943C592.646 282.453 592.866 282.873 593.306 283.203C593.746 283.533 594.351 283.698 595.121 283.698C595.811 283.698 596.331 283.553 596.681 283.263C597.031 282.973 597.206 282.593 597.206 282.123C597.206 281.813 597.116 281.548 596.936 281.328C596.756 281.108 596.491 280.908 596.141 280.728C595.801 280.538 595.301 280.313 594.641 280.053C593.911 279.773 593.331 279.518 592.901 279.288C592.481 279.058 592.131 278.758 591.851 278.388C591.571 278.008 591.431 277.533 591.431 276.963C591.431 276.103 591.736 275.428 592.346 274.938C592.966 274.448 593.801 274.203 594.851 274.203C595.591 274.203 596.241 274.328 596.801 274.578C597.361 274.828 597.791 275.178 598.091 275.628C598.401 276.078 598.556 276.598 598.556 277.188V277.488C598.556 277.588 598.506 277.638 598.406 277.638H597.281C597.181 277.638 597.131 277.588 597.131 277.488V277.263C597.131 276.743 596.921 276.313 596.501 275.973C596.091 275.623 595.521 275.448 594.791 275.448C594.171 275.448 593.691 275.578 593.351 275.838C593.011 276.088 592.841 276.453 592.841 276.933C592.841 277.263 592.926 277.533 593.096 277.743C593.266 277.953 593.516 278.143 593.846 278.313C594.186 278.473 594.701 278.683 595.391 278.943C596.101 279.223 596.676 279.483 597.116 279.723C597.556 279.953 597.921 280.263 598.211 280.653C598.501 281.033 598.646 281.508 598.646 282.078C598.646 282.958 598.321 283.658 597.671 284.178C597.031 284.688 596.146 284.943 595.016 284.943ZM606.594 280.053C606.634 280.463 606.649 280.923 606.639 281.433C606.639 281.533 606.589 281.583 606.489 281.583H601.704C601.664 281.583 601.644 281.603 601.644 281.643C601.644 281.983 601.674 282.243 601.734 282.423C601.844 282.823 602.064 283.138 602.394 283.368C602.734 283.588 603.159 283.698 603.669 283.698C604.409 283.698 604.979 283.393 605.379 282.783C605.429 282.683 605.494 282.668 605.574 282.738L606.429 283.308C606.499 283.368 606.514 283.433 606.474 283.503C606.194 283.953 605.794 284.308 605.274 284.568C604.764 284.828 604.184 284.958 603.534 284.958C602.804 284.958 602.189 284.798 601.689 284.478C601.189 284.158 600.814 283.703 600.564 283.113C600.324 282.523 600.204 281.808 600.204 280.968C600.204 280.238 600.259 279.683 600.369 279.303C600.549 278.613 600.909 278.068 601.449 277.668C601.989 277.268 602.644 277.068 603.414 277.068C604.424 277.068 605.179 277.323 605.679 277.833C606.179 278.333 606.484 279.073 606.594 280.053ZM603.414 278.313C602.984 278.313 602.629 278.423 602.349 278.643C602.069 278.853 601.879 279.138 601.779 279.498C601.709 279.718 601.664 279.998 601.644 280.338C601.644 280.378 601.664 280.398 601.704 280.398H605.139C605.179 280.398 605.199 280.378 605.199 280.338C605.179 280.008 605.149 279.763 605.109 279.603C605.009 279.213 604.809 278.903 604.509 278.673C604.219 278.433 603.854 278.313 603.414 278.313ZM614.651 279.108C614.841 279.648 614.936 280.288 614.936 281.028C614.936 281.728 614.856 282.333 614.696 282.843C614.486 283.513 614.141 284.033 613.661 284.403C613.181 284.763 612.566 284.943 611.816 284.943C611.476 284.943 611.151 284.878 610.841 284.748C610.541 284.608 610.281 284.413 610.061 284.163C610.041 284.143 610.021 284.138 610.001 284.148C609.991 284.158 609.986 284.173 609.986 284.193V287.538C609.986 287.638 609.936 287.688 609.836 287.688H608.696C608.596 287.688 608.546 287.638 608.546 287.538V277.338C608.546 277.238 608.596 277.188 608.696 277.188H609.836C609.936 277.188 609.986 277.238 609.986 277.338V277.833C609.986 277.853 609.991 277.868 610.001 277.878C610.021 277.888 610.041 277.883 610.061 277.863C610.281 277.613 610.541 277.418 610.841 277.278C611.141 277.138 611.466 277.068 611.816 277.068C612.536 277.068 613.131 277.248 613.601 277.608C614.081 277.958 614.431 278.458 614.651 279.108ZM613.001 282.978C613.321 282.498 613.481 281.838 613.481 280.998C613.481 280.228 613.356 279.608 613.106 279.138C612.816 278.588 612.341 278.313 611.681 278.313C611.101 278.313 610.661 278.583 610.361 279.123C610.121 279.553 610.001 280.183 610.001 281.013C610.001 281.853 610.131 282.493 610.391 282.933C610.681 283.443 611.106 283.698 611.666 283.698C612.266 283.698 612.711 283.458 613.001 282.978ZM620.585 278.223C620.585 278.323 620.535 278.373 620.435 278.373H618.815C618.775 278.373 618.755 278.393 618.755 278.433V282.408C618.755 282.828 618.85 283.133 619.04 283.323C619.23 283.503 619.525 283.593 619.925 283.593H620.36C620.46 283.593 620.51 283.643 620.51 283.743V284.673C620.51 284.773 620.46 284.823 620.36 284.823C620.04 284.843 619.81 284.853 619.67 284.853C618.91 284.853 618.335 284.718 617.945 284.448C617.565 284.168 617.375 283.658 617.375 282.918V278.433C617.375 278.393 617.355 278.373 617.315 278.373H616.4C616.3 278.373 616.25 278.323 616.25 278.223V277.338C616.25 277.238 616.3 277.188 616.4 277.188H617.315C617.355 277.188 617.375 277.168 617.375 277.128V275.358C617.375 275.258 617.425 275.208 617.525 275.208H618.605C618.705 275.208 618.755 275.258 618.755 275.358V277.128C618.755 277.168 618.775 277.188 618.815 277.188H620.435C620.535 277.188 620.585 277.238 620.585 277.338V278.223Z" fill="#A3A3A3"/>
<circle cx="605.046" cy="254.323" r="3.5" stroke="#B9BBBD" stroke-width="2"/>
<path d="M666.196 284.958C665.466 284.958 664.821 284.808 664.261 284.508C663.701 284.208 663.266 283.788 662.956 283.248C662.646 282.698 662.491 282.068 662.491 281.358V277.788C662.491 277.078 662.646 276.453 662.956 275.913C663.266 275.373 663.701 274.953 664.261 274.653C664.821 274.353 665.466 274.203 666.196 274.203C666.936 274.203 667.586 274.353 668.146 274.653C668.706 274.953 669.141 275.373 669.451 275.913C669.761 276.453 669.916 277.078 669.916 277.788V281.358C669.916 282.068 669.761 282.698 669.451 283.248C669.141 283.788 668.706 284.208 668.146 284.508C667.586 284.808 666.936 284.958 666.196 284.958ZM666.196 283.713C666.876 283.713 667.426 283.503 667.846 283.083C668.266 282.663 668.476 282.108 668.476 281.418V277.773C668.476 277.073 668.266 276.513 667.846 276.093C667.426 275.663 666.876 275.448 666.196 275.448C665.516 275.448 664.966 275.663 664.546 276.093C664.136 276.513 663.931 277.073 663.931 277.773V281.418C663.931 282.108 664.136 282.663 664.546 283.083C664.966 283.503 665.516 283.713 666.196 283.713ZM674.972 284.943C674.212 284.943 673.562 284.753 673.022 284.373C672.482 283.983 672.112 283.458 671.912 282.798C671.762 282.338 671.687 281.733 671.687 280.983C671.687 280.293 671.762 279.688 671.912 279.168C672.112 278.528 672.482 278.018 673.022 277.638C673.572 277.258 674.222 277.068 674.972 277.068C675.722 277.068 676.377 277.258 676.937 277.638C677.497 278.018 677.862 278.498 678.032 279.078C678.092 279.238 678.132 279.403 678.152 279.573C678.152 279.653 678.107 279.703 678.017 279.723L676.892 279.888H676.862C676.792 279.888 676.742 279.843 676.712 279.753L676.667 279.513C676.587 279.173 676.392 278.888 676.082 278.658C675.772 278.428 675.397 278.313 674.957 278.313C674.527 278.313 674.162 278.428 673.862 278.658C673.562 278.888 673.367 279.193 673.277 279.573C673.187 279.933 673.142 280.408 673.142 280.998C673.142 281.578 673.187 282.048 673.277 282.408C673.377 282.808 673.572 283.123 673.862 283.353C674.162 283.583 674.527 283.698 674.957 283.698C675.397 283.698 675.772 283.583 676.082 283.353C676.402 283.123 676.602 282.823 676.682 282.453C676.692 282.443 676.692 282.433 676.682 282.423C676.682 282.403 676.687 282.388 676.697 282.378V282.318C676.727 282.238 676.782 282.208 676.862 282.228L677.987 282.408C678.067 282.428 678.107 282.468 678.107 282.528V282.588C678.107 282.678 678.082 282.788 678.032 282.918C677.862 283.528 677.497 284.018 676.937 284.388C676.377 284.758 675.722 284.943 674.972 284.943ZM683.573 278.223C683.573 278.323 683.523 278.373 683.423 278.373H681.803C681.763 278.373 681.743 278.393 681.743 278.433V282.408C681.743 282.828 681.838 283.133 682.028 283.323C682.218 283.503 682.513 283.593 682.913 283.593H683.348C683.448 283.593 683.498 283.643 683.498 283.743V284.673C683.498 284.773 683.448 284.823 683.348 284.823C683.028 284.843 682.798 284.853 682.658 284.853C681.898 284.853 681.323 284.718 680.933 284.448C680.553 284.168 680.363 283.658 680.363 282.918V278.433C680.363 278.393 680.343 278.373 680.303 278.373H679.388C679.288 278.373 679.238 278.323 679.238 278.223V277.338C679.238 277.238 679.288 277.188 679.388 277.188H680.303C680.343 277.188 680.363 277.168 680.363 277.128V275.358C680.363 275.258 680.413 275.208 680.513 275.208H681.593C681.693 275.208 681.743 275.258 681.743 275.358V277.128C681.743 277.168 681.763 277.188 681.803 277.188H683.423C683.523 277.188 683.573 277.238 683.573 277.338V278.223Z" fill="#A3A3A3"/>
<circle cx="676.046" cy="254.323" r="4.5" fill="#FF5B5B"/>
<path d="M725.926 284.823C725.826 284.823 725.776 284.773 725.776 284.673V274.473C725.776 274.373 725.826 274.323 725.926 274.323H729.556C730.596 274.323 731.426 274.598 732.046 275.148C732.666 275.688 732.976 276.413 732.976 277.323V281.823C732.976 282.733 732.666 283.463 732.046 284.013C731.426 284.553 730.596 284.823 729.556 284.823H725.926ZM727.216 283.518C727.216 283.558 727.236 283.578 727.276 283.578H729.616C730.196 283.578 730.656 283.403 730.996 283.053C731.346 282.693 731.526 282.213 731.536 281.613V277.533C731.536 276.933 731.361 276.458 731.011 276.108C730.671 275.748 730.206 275.568 729.616 275.568H727.276C727.236 275.568 727.216 275.588 727.216 275.628V283.518ZM741.048 280.053C741.088 280.463 741.103 280.923 741.093 281.433C741.093 281.533 741.043 281.583 740.943 281.583H736.158C736.118 281.583 736.098 281.603 736.098 281.643C736.098 281.983 736.128 282.243 736.188 282.423C736.298 282.823 736.518 283.138 736.848 283.368C737.188 283.588 737.613 283.698 738.123 283.698C738.863 283.698 739.433 283.393 739.833 282.783C739.883 282.683 739.948 282.668 740.028 282.738L740.883 283.308C740.953 283.368 740.968 283.433 740.928 283.503C740.648 283.953 740.248 284.308 739.728 284.568C739.218 284.828 738.638 284.958 737.988 284.958C737.258 284.958 736.643 284.798 736.143 284.478C735.643 284.158 735.268 283.703 735.018 283.113C734.778 282.523 734.658 281.808 734.658 280.968C734.658 280.238 734.713 279.683 734.823 279.303C735.003 278.613 735.363 278.068 735.903 277.668C736.443 277.268 737.098 277.068 737.868 277.068C738.878 277.068 739.633 277.323 740.133 277.833C740.633 278.333 740.938 279.073 741.048 280.053ZM737.868 278.313C737.438 278.313 737.083 278.423 736.803 278.643C736.523 278.853 736.333 279.138 736.233 279.498C736.163 279.718 736.118 279.998 736.098 280.338C736.098 280.378 736.118 280.398 736.158 280.398H739.593C739.633 280.398 739.653 280.378 739.653 280.338C739.633 280.008 739.603 279.763 739.563 279.603C739.463 279.213 739.263 278.903 738.963 278.673C738.673 278.433 738.308 278.313 737.868 278.313ZM745.478 284.913C744.878 284.913 744.348 284.823 743.888 284.643C743.438 284.463 743.088 284.218 742.838 283.908C742.588 283.588 742.463 283.238 742.463 282.858V282.693C742.463 282.593 742.513 282.543 742.613 282.543H743.693C743.793 282.543 743.843 282.593 743.843 282.693V282.768C743.843 283.048 743.993 283.293 744.293 283.503C744.603 283.713 744.993 283.818 745.463 283.818C745.913 283.818 746.278 283.723 746.558 283.533C746.838 283.333 746.978 283.083 746.978 282.783C746.978 282.493 746.848 282.278 746.588 282.138C746.328 281.988 745.908 281.833 745.328 281.673C744.758 281.513 744.278 281.353 743.888 281.193C743.508 281.023 743.183 280.788 742.913 280.488C742.653 280.178 742.523 279.783 742.523 279.303C742.523 278.633 742.783 278.103 743.303 277.713C743.833 277.313 744.533 277.113 745.403 277.113C745.983 277.113 746.493 277.208 746.933 277.398C747.383 277.578 747.728 277.833 747.968 278.163C748.208 278.493 748.328 278.863 748.328 279.273V279.318C748.328 279.418 748.278 279.468 748.178 279.468H747.128C747.028 279.468 746.978 279.418 746.978 279.318V279.273C746.978 278.983 746.833 278.743 746.543 278.553C746.263 278.353 745.878 278.253 745.388 278.253C744.948 278.253 744.588 278.338 744.308 278.508C744.038 278.678 743.903 278.908 743.903 279.198C743.903 279.488 744.033 279.708 744.293 279.858C744.563 280.008 744.993 280.168 745.583 280.338C746.163 280.498 746.643 280.658 747.023 280.818C747.413 280.968 747.743 281.198 748.013 281.508C748.283 281.808 748.418 282.203 748.418 282.693C748.418 283.373 748.148 283.913 747.608 284.313C747.078 284.713 746.368 284.913 745.478 284.913Z" fill="#A3A3A3"/>
<circle cx="739.046" cy="254.323" r="3.5" stroke="#B9BBBD" stroke-width="2"/>
<rect x="334.415" y="38.9124" width="78.3369" height="17.4708" fill="#2D9CDB" fill-opacity="0.15"/>
<path d="M346.327 49.8272C346.487 50.2112 346.567 50.6512 346.567 51.1472C346.567 51.5952 346.499 51.9912 346.363 52.3352C346.179 52.8392 345.875 53.2312 345.451 53.5112C345.027 53.7832 344.515 53.9192 343.915 53.9192C343.323 53.9192 342.807 53.7712 342.367 53.4752C341.935 53.1712 341.627 52.7632 341.443 52.2512C341.347 52.0032 341.291 51.6792 341.275 51.2792C341.275 51.1832 341.323 51.1352 341.419 51.1352H342.535C342.631 51.1352 342.679 51.1832 342.679 51.2792C342.695 51.5352 342.735 51.7392 342.799 51.8912C342.871 52.1472 343.003 52.3512 343.195 52.5032C343.395 52.6472 343.635 52.7192 343.915 52.7192C344.443 52.7192 344.807 52.4792 345.007 51.9992C345.111 51.7672 345.163 51.4672 345.163 51.0992C345.163 50.6912 345.103 50.3552 344.983 50.0912C344.775 49.6432 344.415 49.4192 343.903 49.4192C343.767 49.4192 343.583 49.4992 343.351 49.6592C343.319 49.6752 343.291 49.6832 343.267 49.6832C343.227 49.6832 343.187 49.6592 343.147 49.6112L342.595 48.8432C342.571 48.8032 342.559 48.7712 342.559 48.7472C342.559 48.7072 342.575 48.6712 342.607 48.6392L344.587 46.6952C344.603 46.6792 344.607 46.6632 344.599 46.6472C344.591 46.6312 344.575 46.6232 344.551 46.6232H341.551C341.511 46.6232 341.475 46.6112 341.443 46.5872C341.419 46.5552 341.407 46.5192 341.407 46.4792V45.5672C341.407 45.5272 341.419 45.4952 341.443 45.4712C341.475 45.4392 341.511 45.4232 341.551 45.4232H346.339C346.379 45.4232 346.411 45.4392 346.435 45.4712C346.467 45.4952 346.483 45.5272 346.483 45.5672V46.6112C346.483 46.6832 346.459 46.7432 346.411 46.7912L344.695 48.5192C344.663 48.5512 344.679 48.5752 344.743 48.5912C345.487 48.6952 346.015 49.1072 346.327 49.8272ZM352.762 50.1872C352.938 50.5392 353.026 50.9432 353.026 51.3992C353.026 51.8792 352.922 52.3152 352.714 52.7072C352.506 53.0832 352.202 53.3792 351.802 53.5952C351.402 53.8112 350.93 53.9192 350.386 53.9192C349.85 53.9192 349.374 53.8152 348.958 53.6072C348.542 53.3912 348.23 53.0792 348.022 52.6712C347.814 52.2952 347.71 51.8672 347.71 51.3872C347.71 50.9552 347.802 50.5472 347.986 50.1632C348.146 49.8352 348.374 49.5872 348.67 49.4192C348.71 49.3952 348.714 49.3672 348.682 49.3352C348.482 49.1912 348.302 48.9912 348.142 48.7352C347.934 48.3992 347.83 48.0272 347.83 47.6192C347.83 47.1152 347.978 46.6632 348.274 46.2632C348.49 45.9512 348.782 45.7112 349.15 45.5432C349.518 45.3672 349.93 45.2792 350.386 45.2792C350.858 45.2792 351.27 45.3672 351.622 45.5432C351.982 45.7112 352.27 45.9512 352.486 46.2632C352.766 46.6712 352.906 47.1232 352.906 47.6192C352.906 48.0592 352.798 48.4432 352.582 48.7712C352.43 48.9952 352.254 49.1792 352.054 49.3232C352.022 49.3552 352.022 49.3832 352.054 49.4072C352.358 49.5832 352.594 49.8432 352.762 50.1872ZM349.354 47.0912C349.258 47.2992 349.21 47.4832 349.21 47.6432C349.21 47.9152 349.278 48.1592 349.414 48.3752C349.606 48.7032 349.926 48.8672 350.374 48.8672C350.806 48.8672 351.134 48.6992 351.358 48.3632C351.478 48.1872 351.538 47.9432 351.538 47.6312C351.538 47.4552 351.494 47.2712 351.406 47.0792C351.302 46.8952 351.162 46.7512 350.986 46.6472C350.81 46.5352 350.602 46.4792 350.362 46.4792C350.138 46.4792 349.938 46.5352 349.762 46.6472C349.586 46.7512 349.45 46.8992 349.354 47.0912ZM351.37 52.2272C351.538 51.9952 351.622 51.6792 351.622 51.2792C351.622 50.9112 351.558 50.6232 351.43 50.4152C351.23 50.0472 350.878 49.8632 350.374 49.8632C349.902 49.8632 349.558 50.0392 349.342 50.3912C349.206 50.6072 349.138 50.9072 349.138 51.2912C349.138 51.6592 349.21 51.9592 349.354 52.1912C349.57 52.5432 349.914 52.7192 350.386 52.7192C350.834 52.7192 351.162 52.5552 351.37 52.2272ZM355.176 53.8472C354.928 53.8472 354.724 53.7672 354.564 53.6072C354.404 53.4472 354.324 53.2432 354.324 52.9952C354.324 52.7472 354.404 52.5432 354.564 52.3832C354.724 52.2232 354.928 52.1432 355.176 52.1432C355.424 52.1432 355.624 52.2232 355.776 52.3832C355.936 52.5432 356.016 52.7472 356.016 52.9952C356.016 53.2432 355.936 53.4472 355.776 53.6072C355.616 53.7672 355.416 53.8472 355.176 53.8472ZM358.481 53.8232C358.361 53.8232 358.321 53.7672 358.361 53.6552L361.013 46.6952C361.029 46.6472 361.013 46.6232 360.965 46.6232H358.385C358.345 46.6232 358.325 46.6432 358.325 46.6832V47.2232C358.325 47.2632 358.309 47.2992 358.277 47.3312C358.253 47.3552 358.221 47.3672 358.181 47.3672H357.317C357.277 47.3672 357.241 47.3552 357.209 47.3312C357.185 47.2992 357.173 47.2632 357.173 47.2232V45.5672C357.173 45.5272 357.185 45.4952 357.209 45.4712C357.241 45.4392 357.277 45.4232 357.317 45.4232H362.369C362.409 45.4232 362.441 45.4392 362.465 45.4712C362.497 45.4952 362.513 45.5272 362.513 45.5672V46.5272C362.513 46.5752 362.501 46.6352 362.477 46.7072L359.837 53.7032C359.813 53.7832 359.757 53.8232 359.669 53.8232H358.481ZM368.457 50.0552C368.561 50.4152 368.613 50.7872 368.613 51.1712C368.613 51.5472 368.561 51.9032 368.457 52.2392C368.289 52.7512 367.981 53.1592 367.533 53.4632C367.085 53.7592 366.561 53.9072 365.961 53.9072C365.369 53.9072 364.853 53.7632 364.413 53.4752C363.973 53.1792 363.665 52.7832 363.489 52.2872C363.425 52.1112 363.373 51.9112 363.333 51.6872V51.6632C363.333 51.5752 363.381 51.5312 363.477 51.5312H364.617C364.697 51.5312 364.749 51.5752 364.773 51.6632C364.781 51.7112 364.801 51.7832 364.833 51.8792C364.921 52.1432 365.061 52.3472 365.253 52.4912C365.445 52.6352 365.677 52.7072 365.949 52.7072C366.229 52.7072 366.469 52.6312 366.669 52.4792C366.869 52.3192 367.009 52.1032 367.089 51.8312C367.161 51.6392 367.197 51.4192 367.197 51.1712C367.197 50.9392 367.165 50.7112 367.101 50.4872C367.045 50.2232 366.917 50.0232 366.717 49.8872C366.517 49.7432 366.273 49.6712 365.985 49.6712C365.713 49.6712 365.465 49.7352 365.241 49.8632C365.025 49.9832 364.885 50.1432 364.821 50.3432C364.789 50.4232 364.733 50.4632 364.653 50.4632H363.489C363.449 50.4632 363.413 50.4512 363.381 50.4272C363.357 50.3952 363.345 50.3592 363.345 50.3192V45.5672C363.345 45.5272 363.357 45.4952 363.381 45.4712C363.413 45.4392 363.449 45.4232 363.489 45.4232H368.157C368.197 45.4232 368.229 45.4392 368.253 45.4712C368.285 45.4952 368.301 45.5272 368.301 45.5672V46.4792C368.301 46.5192 368.285 46.5552 368.253 46.5872C368.229 46.6112 368.197 46.6232 368.157 46.6232H364.797C364.757 46.6232 364.737 46.6432 364.737 46.6832L364.725 48.8432C364.725 48.8752 364.733 48.8952 364.749 48.9032C364.765 48.9032 364.781 48.8952 364.797 48.8792C365.173 48.5992 365.625 48.4592 366.153 48.4592C366.713 48.4592 367.197 48.6032 367.605 48.8912C368.021 49.1712 368.305 49.5592 368.457 50.0552ZM374.604 49.8272C374.764 50.2112 374.844 50.6512 374.844 51.1472C374.844 51.5952 374.776 51.9912 374.64 52.3352C374.456 52.8392 374.152 53.2312 373.728 53.5112C373.304 53.7832 372.792 53.9192 372.192 53.9192C371.6 53.9192 371.084 53.7712 370.644 53.4752C370.212 53.1712 369.904 52.7632 369.72 52.2512C369.624 52.0032 369.568 51.6792 369.552 51.2792C369.552 51.1832 369.6 51.1352 369.696 51.1352H370.812C370.908 51.1352 370.956 51.1832 370.956 51.2792C370.972 51.5352 371.012 51.7392 371.076 51.8912C371.148 52.1472 371.28 52.3512 371.472 52.5032C371.672 52.6472 371.912 52.7192 372.192 52.7192C372.72 52.7192 373.084 52.4792 373.284 51.9992C373.388 51.7672 373.44 51.4672 373.44 51.0992C373.44 50.6912 373.38 50.3552 373.26 50.0912C373.052 49.6432 372.692 49.4192 372.18 49.4192C372.044 49.4192 371.86 49.4992 371.628 49.6592C371.596 49.6752 371.568 49.6832 371.544 49.6832C371.504 49.6832 371.464 49.6592 371.424 49.6112L370.872 48.8432C370.848 48.8032 370.836 48.7712 370.836 48.7472C370.836 48.7072 370.852 48.6712 370.884 48.6392L372.864 46.6952C372.88 46.6792 372.884 46.6632 372.876 46.6472C372.868 46.6312 372.852 46.6232 372.828 46.6232H369.828C369.788 46.6232 369.752 46.6112 369.72 46.5872C369.696 46.5552 369.684 46.5192 369.684 46.4792V45.5672C369.684 45.5272 369.696 45.4952 369.72 45.4712C369.752 45.4392 369.788 45.4232 369.828 45.4232H374.616C374.656 45.4232 374.688 45.4392 374.712 45.4712C374.744 45.4952 374.76 45.5272 374.76 45.5672V46.6112C374.76 46.6832 374.736 46.7432 374.688 46.7912L372.972 48.5192C372.94 48.5512 372.956 48.5752 373.02 48.5912C373.764 48.6952 374.292 49.1072 374.604 49.8272ZM376.191 54.9152C376.095 54.9152 376.051 54.8632 376.059 54.7592L376.503 52.0712C376.511 51.9832 376.563 51.9392 376.659 51.9392H377.619C377.723 51.9392 377.763 51.9912 377.739 52.0952L377.031 54.7952C377.007 54.8752 376.951 54.9152 376.863 54.9152H376.191ZM381.679 53.9552C380.839 53.9552 380.171 53.7192 379.675 53.2472C379.187 52.7672 378.943 52.1232 378.943 51.3152V47.9312C378.943 47.1312 379.187 46.4992 379.675 46.0352C380.171 45.5632 380.839 45.3272 381.679 45.3272C382.519 45.3272 383.187 45.5632 383.683 46.0352C384.187 46.4992 384.439 47.1312 384.439 47.9312V51.3152C384.439 52.1232 384.187 52.7672 383.683 53.2472C383.187 53.7192 382.519 53.9552 381.679 53.9552ZM381.679 52.7432C382.095 52.7432 382.427 52.6232 382.675 52.3832C382.923 52.1352 383.047 51.8032 383.047 51.3872V47.8832C383.047 47.4672 382.923 47.1392 382.675 46.8992C382.427 46.6512 382.095 46.5272 381.679 46.5272C381.271 46.5272 380.943 46.6512 380.695 46.8992C380.455 47.1392 380.335 47.4672 380.335 47.8832V51.3872C380.335 51.8032 380.455 52.1352 380.695 52.3832C380.943 52.6232 381.271 52.7432 381.679 52.7432ZM388.5 53.9552C387.66 53.9552 386.992 53.7192 386.496 53.2472C386.008 52.7672 385.764 52.1232 385.764 51.3152V47.9312C385.764 47.1312 386.008 46.4992 386.496 46.0352C386.992 45.5632 387.66 45.3272 388.5 45.3272C389.34 45.3272 390.008 45.5632 390.504 46.0352C391.008 46.4992 391.26 47.1312 391.26 47.9312V51.3152C391.26 52.1232 391.008 52.7672 390.504 53.2472C390.008 53.7192 389.34 53.9552 388.5 53.9552ZM388.5 52.7432C388.916 52.7432 389.248 52.6232 389.496 52.3832C389.744 52.1352 389.868 51.8032 389.868 51.3872V47.8832C389.868 47.4672 389.744 47.1392 389.496 46.8992C389.248 46.6512 388.916 46.5272 388.5 46.5272C388.092 46.5272 387.764 46.6512 387.516 46.8992C387.276 47.1392 387.156 47.4672 387.156 47.8832V51.3872C387.156 51.8032 387.276 52.1352 387.516 52.3832C387.764 52.6232 388.092 52.7432 388.5 52.7432ZM400.242 49.2752C400.378 49.7232 400.446 50.2112 400.446 50.7392C400.446 51.3072 400.37 51.8072 400.218 52.2392C400.042 52.7672 399.758 53.1792 399.366 53.4752C398.974 53.7712 398.494 53.9192 397.926 53.9192C397.366 53.9192 396.906 53.7072 396.546 53.2832C396.53 53.2592 396.514 53.2512 396.498 53.2592C396.482 53.2672 396.474 53.2832 396.474 53.3072V53.6792C396.474 53.7192 396.458 53.7552 396.426 53.7872C396.402 53.8112 396.37 53.8232 396.33 53.8232H395.226C395.186 53.8232 395.15 53.8112 395.118 53.7872C395.094 53.7552 395.082 53.7192 395.082 53.6792V45.5672C395.082 45.5272 395.094 45.4952 395.118 45.4712C395.15 45.4392 395.186 45.4232 395.226 45.4232H396.33C396.37 45.4232 396.402 45.4392 396.426 45.4712C396.458 45.4952 396.474 45.5272 396.474 45.5672V48.1712C396.474 48.1952 396.482 48.2112 396.498 48.2192C396.514 48.2272 396.53 48.2232 396.546 48.2072C396.89 47.7992 397.346 47.5952 397.914 47.5952C398.506 47.5952 398.994 47.7432 399.378 48.0392C399.77 48.3352 400.058 48.7472 400.242 49.2752ZM398.73 52.1432C398.922 51.8072 399.018 51.3472 399.018 50.7632C399.018 50.1392 398.898 49.6512 398.658 49.2992C398.442 48.9632 398.122 48.7952 397.698 48.7952C397.306 48.7952 397.006 48.9712 396.798 49.3232C396.598 49.6512 396.498 50.1272 396.498 50.7512C396.498 51.3672 396.59 51.8312 396.774 52.1432C396.982 52.5272 397.294 52.7192 397.71 52.7192C397.934 52.7192 398.134 52.6712 398.31 52.5752C398.486 52.4712 398.626 52.3272 398.73 52.1432ZM404.629 47.6192C404.885 47.6192 405.109 47.6712 405.301 47.7752C405.365 47.8072 405.389 47.8672 405.373 47.9552L405.169 49.0352C405.161 49.1312 405.105 49.1592 405.001 49.1192C404.881 49.0792 404.741 49.0592 404.581 49.0592C404.477 49.0592 404.397 49.0632 404.341 49.0712C404.005 49.0872 403.725 49.2072 403.501 49.4312C403.277 49.6472 403.165 49.9312 403.165 50.2832V53.6792C403.165 53.7192 403.149 53.7552 403.117 53.7872C403.093 53.8112 403.061 53.8232 403.021 53.8232H401.917C401.877 53.8232 401.841 53.8112 401.809 53.7872C401.785 53.7552 401.773 53.7192 401.773 53.6792V47.8352C401.773 47.7952 401.785 47.7632 401.809 47.7392C401.841 47.7072 401.877 47.6912 401.917 47.6912H403.021C403.061 47.6912 403.093 47.7072 403.117 47.7392C403.149 47.7632 403.165 47.7952 403.165 47.8352V48.3752C403.165 48.4072 403.169 48.4272 403.177 48.4352C403.193 48.4352 403.209 48.4232 403.225 48.3992C403.561 47.8792 404.029 47.6192 404.629 47.6192Z" fill="#2D9CDB"/>
<path d="M139.274 133.016C124.989 87.7513 92.1184 142.81 89.968 157.634V241.494H746.615V81.795C696.848 71.4717 645.699 141.752 630.492 178.679C616.889 211.713 585.66 161.436 544.322 105.619C499.624 45.2655 439.95 111.816 388.57 157.634C348.94 192.973 334.656 15.0887 270.143 111.972C253.73 136.62 242.494 152.473 205.169 206.87C192.704 225.036 156.454 187.453 139.274 133.016Z" fill="url(#paint0_linear_1939_5414)"/>
<path d="M87.4099 157.634C89.5603 142.81 124.989 87.7513 139.274 133.016C156.454 187.453 192.704 225.036 205.169 206.87C242.495 152.473 253.73 136.62 270.143 111.972C334.656 15.0887 348.94 192.973 388.57 157.634C439.95 111.816 499.624 45.2655 544.322 105.619C585.66 161.436 616.889 211.713 630.493 178.679C645.699 141.752 696.848 71.4717 746.615 81.795" stroke="#0045FF" stroke-width="3"/>
<rect x="602.521" y="171.531" width="78.3369" height="17.4708" fill="#FF5B5B" fill-opacity="0.15"/>
<path d="M617.852 178.459C617.916 178.435 617.976 178.423 618.032 178.423H619.184C619.224 178.423 619.256 178.439 619.28 178.471C619.312 178.495 619.328 178.527 619.328 178.567V186.679C619.328 186.719 619.312 186.755 619.28 186.787C619.256 186.811 619.224 186.823 619.184 186.823H618.08C618.04 186.823 618.004 186.811 617.972 186.787C617.948 186.755 617.936 186.719 617.936 186.679V179.863C617.936 179.847 617.928 179.835 617.912 179.827C617.896 179.811 617.88 179.807 617.864 179.815L616.664 180.187C616.648 180.195 616.628 180.199 616.604 180.199C616.572 180.199 616.544 180.187 616.52 180.163C616.504 180.139 616.496 180.107 616.496 180.067L616.46 179.275C616.46 179.195 616.492 179.139 616.556 179.107L617.852 178.459ZM622.623 185.551C622.607 185.567 622.599 185.583 622.599 185.599C622.607 185.615 622.623 185.623 622.647 185.623H626.067C626.107 185.623 626.139 185.639 626.163 185.671C626.195 185.695 626.211 185.727 626.211 185.767V186.679C626.211 186.719 626.195 186.755 626.163 186.787C626.139 186.811 626.107 186.823 626.067 186.823H620.907C620.867 186.823 620.831 186.811 620.799 186.787C620.775 186.755 620.763 186.719 620.763 186.679V185.815C620.763 185.743 620.787 185.683 620.835 185.635C621.443 184.987 622.147 184.191 622.947 183.247L623.511 182.587C624.247 181.731 624.615 181.083 624.615 180.643C624.615 180.315 624.499 180.047 624.267 179.839C624.035 179.631 623.735 179.527 623.367 179.527C622.999 179.527 622.699 179.631 622.467 179.839C622.243 180.047 622.131 180.323 622.131 180.667V180.979C622.131 181.019 622.115 181.055 622.083 181.087C622.059 181.111 622.027 181.123 621.987 181.123H620.871C620.831 181.123 620.795 181.111 620.763 181.087C620.739 181.055 620.727 181.019 620.727 180.979V180.463C620.743 180.031 620.867 179.655 621.099 179.335C621.331 179.015 621.643 178.767 622.035 178.591C622.435 178.415 622.879 178.327 623.367 178.327C623.903 178.327 624.371 178.427 624.771 178.627C625.171 178.827 625.479 179.103 625.695 179.455C625.911 179.799 626.019 180.187 626.019 180.619C626.019 181.275 625.671 182.031 624.975 182.887C624.591 183.367 623.959 184.087 623.079 185.047L622.623 185.551ZM628.368 186.847C628.12 186.847 627.916 186.767 627.756 186.607C627.596 186.447 627.516 186.243 627.516 185.995C627.516 185.747 627.596 185.543 627.756 185.383C627.916 185.223 628.12 185.143 628.368 185.143C628.616 185.143 628.816 185.223 628.968 185.383C629.128 185.543 629.208 185.747 629.208 185.995C629.208 186.243 629.128 186.447 628.968 186.607C628.808 186.767 628.608 186.847 628.368 186.847ZM635.61 182.683C635.826 183.091 635.934 183.587 635.934 184.171C635.934 184.659 635.854 185.087 635.694 185.455C635.502 185.919 635.198 186.279 634.782 186.535C634.374 186.783 633.882 186.907 633.306 186.907C632.706 186.907 632.194 186.771 631.77 186.499C631.346 186.219 631.042 185.831 630.858 185.335C630.73 184.999 630.666 184.607 630.666 184.159V180.499C630.666 180.067 630.774 179.687 630.99 179.359C631.206 179.031 631.506 178.779 631.89 178.603C632.282 178.419 632.73 178.327 633.234 178.327C633.722 178.327 634.154 178.415 634.53 178.591C634.914 178.767 635.21 179.015 635.418 179.335C635.634 179.655 635.742 180.023 635.742 180.439V180.703C635.742 180.743 635.726 180.779 635.694 180.811C635.67 180.835 635.638 180.847 635.598 180.847H634.494C634.454 180.847 634.418 180.835 634.386 180.811C634.362 180.779 634.35 180.743 634.35 180.703V180.619C634.35 180.299 634.242 180.039 634.026 179.839C633.818 179.631 633.55 179.527 633.222 179.527C632.886 179.527 632.606 179.635 632.382 179.851C632.166 180.059 632.058 180.331 632.058 180.667V181.975C632.058 181.999 632.066 182.015 632.082 182.023C632.098 182.031 632.114 182.027 632.13 182.011C632.466 181.683 632.93 181.519 633.522 181.519C633.994 181.519 634.406 181.619 634.758 181.819C635.118 182.019 635.402 182.307 635.61 182.683ZM634.362 185.047C634.482 184.807 634.542 184.523 634.542 184.195C634.542 183.835 634.474 183.527 634.338 183.271C634.114 182.887 633.766 182.695 633.294 182.695C632.798 182.695 632.446 182.895 632.238 183.295C632.118 183.535 632.058 183.847 632.058 184.231C632.058 184.559 632.11 184.827 632.214 185.035C632.406 185.475 632.766 185.695 633.294 185.695C633.798 185.695 634.154 185.479 634.362 185.047ZM642.141 183.055C642.245 183.415 642.297 183.787 642.297 184.171C642.297 184.547 642.245 184.903 642.141 185.239C641.973 185.751 641.665 186.159 641.217 186.463C640.769 186.759 640.245 186.907 639.645 186.907C639.053 186.907 638.537 186.763 638.097 186.475C637.657 186.179 637.349 185.783 637.173 185.287C637.109 185.111 637.057 184.911 637.017 184.687V184.663C637.017 184.575 637.065 184.531 637.161 184.531H638.301C638.381 184.531 638.433 184.575 638.457 184.663C638.465 184.711 638.485 184.783 638.517 184.879C638.605 185.143 638.745 185.347 638.937 185.491C639.129 185.635 639.361 185.707 639.633 185.707C639.913 185.707 640.153 185.631 640.353 185.479C640.553 185.319 640.693 185.103 640.773 184.831C640.845 184.639 640.881 184.419 640.881 184.171C640.881 183.939 640.849 183.711 640.785 183.487C640.729 183.223 640.601 183.023 640.401 182.887C640.201 182.743 639.957 182.671 639.669 182.671C639.397 182.671 639.149 182.735 638.925 182.863C638.709 182.983 638.569 183.143 638.505 183.343C638.473 183.423 638.417 183.463 638.337 183.463H637.173C637.133 183.463 637.097 183.451 637.065 183.427C637.041 183.395 637.029 183.359 637.029 183.319V178.567C637.029 178.527 637.041 178.495 637.065 178.471C637.097 178.439 637.133 178.423 637.173 178.423H641.841C641.881 178.423 641.913 178.439 641.937 178.471C641.969 178.495 641.985 178.527 641.985 178.567V179.479C641.985 179.519 641.969 179.555 641.937 179.587C641.913 179.611 641.881 179.623 641.841 179.623H638.481C638.441 179.623 638.421 179.643 638.421 179.683L638.409 181.843C638.409 181.875 638.417 181.895 638.433 181.903C638.449 181.903 638.465 181.895 638.481 181.879C638.857 181.599 639.309 181.459 639.837 181.459C640.397 181.459 640.881 181.603 641.289 181.891C641.705 182.171 641.989 182.559 642.141 183.055ZM644.388 186.823C644.268 186.823 644.228 186.767 644.268 186.655L646.92 179.695C646.936 179.647 646.92 179.623 646.872 179.623H644.292C644.252 179.623 644.232 179.643 644.232 179.683V180.223C644.232 180.263 644.216 180.299 644.184 180.331C644.16 180.355 644.128 180.367 644.088 180.367H643.224C643.184 180.367 643.148 180.355 643.116 180.331C643.092 180.299 643.08 180.263 643.08 180.223V178.567C643.08 178.527 643.092 178.495 643.116 178.471C643.148 178.439 643.184 178.423 643.224 178.423H648.276C648.316 178.423 648.348 178.439 648.372 178.471C648.404 178.495 648.42 178.527 648.42 178.567V179.527C648.42 179.575 648.408 179.635 648.384 179.707L645.744 186.703C645.72 186.783 645.664 186.823 645.576 186.823H644.388ZM648.668 187.915C648.572 187.915 648.528 187.863 648.536 187.759L648.98 185.071C648.988 184.983 649.04 184.939 649.136 184.939H650.096C650.2 184.939 650.24 184.991 650.216 185.095L649.508 187.795C649.484 187.875 649.428 187.915 649.34 187.915H648.668ZM654.157 186.955C653.317 186.955 652.649 186.719 652.153 186.247C651.665 185.767 651.421 185.123 651.421 184.315V180.931C651.421 180.131 651.665 179.499 652.153 179.035C652.649 178.563 653.317 178.327 654.157 178.327C654.997 178.327 655.665 178.563 656.161 179.035C656.665 179.499 656.917 180.131 656.917 180.931V184.315C656.917 185.123 656.665 185.767 656.161 186.247C655.665 186.719 654.997 186.955 654.157 186.955ZM654.157 185.743C654.573 185.743 654.905 185.623 655.153 185.383C655.401 185.135 655.525 184.803 655.525 184.387V180.883C655.525 180.467 655.401 180.139 655.153 179.899C654.905 179.651 654.573 179.527 654.157 179.527C653.749 179.527 653.421 179.651 653.173 179.899C652.933 180.139 652.813 180.467 652.813 180.883V184.387C652.813 184.803 652.933 185.135 653.173 185.383C653.421 185.623 653.749 185.743 654.157 185.743ZM660.977 186.955C660.137 186.955 659.469 186.719 658.973 186.247C658.485 185.767 658.241 185.123 658.241 184.315V180.931C658.241 180.131 658.485 179.499 658.973 179.035C659.469 178.563 660.137 178.327 660.977 178.327C661.817 178.327 662.485 178.563 662.981 179.035C663.485 179.499 663.737 180.131 663.737 180.931V184.315C663.737 185.123 663.485 185.767 662.981 186.247C662.485 186.719 661.817 186.955 660.977 186.955ZM660.977 185.743C661.393 185.743 661.725 185.623 661.973 185.383C662.221 185.135 662.345 184.803 662.345 184.387V180.883C662.345 180.467 662.221 180.139 661.973 179.899C661.725 179.651 661.393 179.527 660.977 179.527C660.569 179.527 660.241 179.651 659.993 179.899C659.753 180.139 659.633 180.467 659.633 180.883V184.387C659.633 184.803 659.753 185.135 659.993 185.383C660.241 185.623 660.569 185.743 660.977 185.743ZM672.72 182.275C672.856 182.723 672.924 183.211 672.924 183.739C672.924 184.307 672.848 184.807 672.696 185.239C672.52 185.767 672.236 186.179 671.844 186.475C671.452 186.771 670.972 186.919 670.404 186.919C669.844 186.919 669.384 186.707 669.024 186.283C669.008 186.259 668.992 186.251 668.976 186.259C668.96 186.267 668.952 186.283 668.952 186.307V186.679C668.952 186.719 668.936 186.755 668.904 186.787C668.88 186.811 668.848 186.823 668.808 186.823H667.704C667.664 186.823 667.628 186.811 667.596 186.787C667.572 186.755 667.56 186.719 667.56 186.679V178.567C667.56 178.527 667.572 178.495 667.596 178.471C667.628 178.439 667.664 178.423 667.704 178.423H668.808C668.848 178.423 668.88 178.439 668.904 178.471C668.936 178.495 668.952 178.527 668.952 178.567V181.171C668.952 181.195 668.96 181.211 668.976 181.219C668.992 181.227 669.008 181.223 669.024 181.207C669.368 180.799 669.824 180.595 670.392 180.595C670.984 180.595 671.472 180.743 671.856 181.039C672.248 181.335 672.536 181.747 672.72 182.275ZM671.208 185.143C671.4 184.807 671.496 184.347 671.496 183.763C671.496 183.139 671.376 182.651 671.136 182.299C670.92 181.963 670.6 181.795 670.176 181.795C669.784 181.795 669.484 181.971 669.276 182.323C669.076 182.651 668.976 183.127 668.976 183.751C668.976 184.367 669.068 184.831 669.252 185.143C669.46 185.527 669.772 185.719 670.188 185.719C670.412 185.719 670.612 185.671 670.788 185.575C670.964 185.471 671.104 185.327 671.208 185.143ZM677.107 180.619C677.363 180.619 677.587 180.671 677.779 180.775C677.843 180.807 677.867 180.867 677.851 180.955L677.647 182.035C677.639 182.131 677.583 182.159 677.479 182.119C677.359 182.079 677.219 182.059 677.059 182.059C676.955 182.059 676.875 182.063 676.819 182.071C676.483 182.087 676.203 182.207 675.979 182.431C675.755 182.647 675.643 182.931 675.643 183.283V186.679C675.643 186.719 675.627 186.755 675.595 186.787C675.571 186.811 675.539 186.823 675.499 186.823H674.395C674.355 186.823 674.319 186.811 674.287 186.787C674.263 186.755 674.251 186.719 674.251 186.679V180.835C674.251 180.795 674.263 180.763 674.287 180.739C674.319 180.707 674.355 180.691 674.395 180.691H675.499C675.539 180.691 675.571 180.707 675.595 180.739C675.627 180.763 675.643 180.795 675.643 180.835V181.375C675.643 181.407 675.647 181.427 675.655 181.435C675.671 181.435 675.687 181.423 675.703 181.399C676.039 180.879 676.507 180.619 677.107 180.619Z" fill="#FF5B5B"/>
<defs>
<linearGradient id="paint0_linear_1939_5414" x1="418.292" y1="80.7712" x2="418.292" y2="241.494" gradientUnits="userSpaceOnUse">
<stop stop-color="#0045FF" stop-opacity="0.3"/>
<stop offset="1" stop-color="#0045FF" stop-opacity="0"/>
</linearGradient>
</defs>
</svg>
